<?xml version="1.0" standalone="no"?>
<!DOCTYPE svg PUBLIC "-//W3C//DTD SVG 1.1//EN" "http://www.w3.org/Graphics/SVG/1.1/DTD/svg11.dtd" >
<svg>
<metadata>
Created by FontForge 20090914 at Sun Nov 27 10:24:40 2016
 By www-data
M.F. Plexus Italic. Copyright (c) 2013 by deFharo. All rights reserved. 
Gratis para uso personal. 
Licencia comercial disponible en mi web./Commercial license available on my Web.
</metadata>
<defs>
<font id="M.F.Plexus-Italic" horiz-adv-x="760" >
  <font-face 
    font-family="M.F. Plexus Italic"
    font-weight="900"
    font-style="italic"
    font-stretch="normal"
    units-per-em="1000"
    panose-1="2 0 6 3 4 0 0 2 0 4"
    ascent="800"
    descent="-200"
    x-height="525"
    cap-height="700"
    bbox="-141 -399 1556 1007"
    underline-thickness="20"
    underline-position="-113"
    slope="-12"
    unicode-range="U+0020-U+FB06"
  />
<missing-glyph horiz-adv-x="770" 
d="M233 200v499h299v-200h200v-299h-499zM422 559v75h-75v-75h75zM34 200h199v-200z" />
    <glyph glyph-name=".notdef" horiz-adv-x="770" 
d="M233 200v499h299v-200h200v-299h-499zM422 559v75h-75v-75h75zM34 200h199v-200z" />
    <glyph glyph-name="space" unicode=" " horiz-adv-x="350" 
 />
    <glyph glyph-name="exclam" unicode="!" horiz-adv-x="360" 
d="M165 302v398h236l-43 -244l-88 -184h-178l-22 184l43 244h32v-398h20zM146 -11c-20.667 0 -39.998 2.49805 -57.998 7.49805s-33.833 12.333 -47.5 22s-24.334 21.667 -32.001 36s-11.5 31.166 -11.5 50.499c0 23.333 4.33301 43.833 13 61.5s20.5 32.5 35.5 44.5
s32.5 21 52.5 27s41.333 9 64 9c20.667 0 40.167 -2.5 58.5 -7.5s34.166 -12.167 47.499 -21.5s23.833 -21.166 31.5 -35.499s11.5 -30.5 11.5 -48.5c0 -19.333 -3.66699 -37.666 -11 -54.999s-18 -32.666 -32 -45.999s-31.333 -24 -52 -32s-44 -12 -70 -12z
M165.002 119.998v98h-20v-98h20z" />
    <glyph glyph-name="quotedbl" unicode="&#x22;" horiz-adv-x="660" 
d="M611 373h-197v327h299zM286 373h-197v327h299zM497 673h-20v-225h20v225zM169 673h-20v-225h20v225z" />
    <glyph glyph-name="numbersign" unicode="#" horiz-adv-x="826" 
d="M678 110l-20 -110h-254l20 110h-76l-20 -110h-254l20 110h-87l35 199h87l14 82h-87l35 199h87l20 110h254l-20 -110h76l20 110h254l-20 -110h87l-35 -199h-87l-14 -82h87l-35 -199h-87zM491 410h-104l-22 -120h104zM355 437h171l-24 -177h-171zM371 691l-40 -234h-122
v-20h126l-24 -177h-130v-20h125l-31 -229h20l31 229h172l-31 -229h20l31 229h121v20h-117l24 177h121v20h-116l31 234h-20l-31 -234h-171l31 234h-20z" />
    <glyph glyph-name="dollar" unicode="$" horiz-adv-x="677" 
d="M92 242c0 -43.333 6.3291 -80.502 18.9961 -111.502s30.334 -56.833 53.001 -77.5s49.834 -36.167 81.501 -46.5s66.834 -16.166 105.501 -17.499v-89h-202l22 121c-36 6 -69 14.167 -99 24.5s-63.333 24.5 -100 42.5l106 179c58 -28 109.5 -47.5 154.5 -58.5
s80.167 -16.5 105.5 -16.5h13v-183c-35.333 1.33301 -67.666 6.5 -96.999 15.5s-54.5 22.833 -75.5 41.5s-37.333 42.334 -49 71.001s-17.5 63.667 -17.5 105h-20zM370.996 359.998l81.002 -19c27.333 -6.66699 52.166 -16.167 74.499 -28.5s40.666 -28.833 54.999 -49.5
s21.5 -48 21.5 -82c0 -31.333 -6.83301 -57.833 -20.5 -79.5s-31.5 -39.5 -53.5 -53.5s-46.833 -24.167 -74.5 -30.5s-55.5 -9.5 -83.5 -9.5v352zM636.998 650.998c28.667 -11.333 55.6689 -25.3301 81.002 -41.9971l-111 -177c-38 22.667 -76.833 40.667 -116.5 54
s-75.5 20 -107.5 20c-6 0 -10 -0.333008 -12 -1v210c30.667 -0.666992 59 -4.66699 85 -12s48.667 -18.833 68 -34.5s34.666 -35.834 45.999 -60.501s17.666 -54.334 18.999 -89.001h20c-2 36 -8.5 67 -19.5 93s-25.833 47.667 -44.5 65
c35.333 -6.66699 66 -15.334 92 -26.001zM351 386.001c-28 6 -55.166 12.498 -81.499 19.498s-49.666 16.333 -69.999 28s-36.5 26.834 -48.5 45.501s-18 43 -18 73c0 23.333 3.66699 43.833 11 61.5s17.666 32.834 30.999 45.501l6 3c29.333 16 65.666 26.667 108.999 32
l3 17c9.33301 1.33301 19 2.5 29 3.5s19.667 1.5 29 1.5v-330zM333.001 232.999c-5.33301 2 -11.499 4 -18.499 6s-14.833 4.66699 -23.5 8c-40.667 12.667 -75.5 26 -104.5 40s-52.833 29 -71.5 45s-32.334 33.333 -41.001 52s-13 39.667 -13 63
c0 14.667 1.16699 30.167 3.5 46.5s6 32.166 11 47.499s11.667 30 20 44s18.5 26 30.5 36c-4 -10 -7.16699 -20.667 -9.5 -32s-3.5 -23.666 -3.5 -36.999c0 -34.667 7 -62.667 21 -84s32.333 -38.5 55 -51.5s48.167 -23.167 76.5 -30.5s56.833 -14.333 85.5 -21v-138z
M383.002 463.999l35.001 -12c40 -12.667 74.833 -25.667 104.5 -39s54.5 -28 74.5 -44s34.833 -34 44.5 -54s14.5 -43.333 14.5 -70c0 -30 -4.33301 -58.5 -13 -85.5s-22.667 -51.5 -42 -73.5l-14 -14c11.333 14 20.166 30 26.499 48s9.5 38 9.5 60
c0 37.333 -6.5 67 -19.5 89s-30.5 39.667 -52.5 53s-47.833 24 -77.5 32l-94.5 25l-8 2v88zM309.003 799.999h246.002l-21 -114c-20.667 16 -44.834 27.833 -72.501 35.5s-57.834 12.167 -90.501 13.5v44h-20v-43c-9.33301 0 -18.333 -0.333008 -27 -1
s-17.667 -1.66699 -27 -3zM371.005 -100.001l-0.00195312 88c6.66699 0 13.334 0.166992 20.001 0.5s13.334 0.833008 20.001 1.5l-16 -90h-24zM545.003 676.999l-11 9l-1 -7z" />
    <glyph glyph-name="percent" unicode="%" horiz-adv-x="1174" 
d="M257 275c-27.333 0 -53.3301 3.83301 -77.9971 11.5s-46.334 19.334 -65.001 35.001s-33.334 35 -44.001 58s-16 49.5 -16 79.5c0 33.333 5.5 65.166 16.5 95.499s27 57.166 48 80.499s46.167 41.833 75.5 55.5s62.666 20.5 99.999 20.5c28 0 54.167 -3.83301 78.5 -11.5
s45.833 -19.334 64.5 -35.001s33.334 -35 44.001 -58s16 -49.5 16 -79.5c0 -33.333 -5.5 -65.166 -16.5 -95.499s-26.833 -57.166 -47.5 -80.499s-45.834 -41.833 -75.501 -55.5s-63.167 -20.5 -100.5 -20.5zM848.003 -11c-27.333 0 -53.3301 3.83301 -77.9971 11.5
s-46.334 19.334 -65.001 35.001s-33.334 35 -44.001 58s-16 49.5 -16 79.5c0 33.333 5.5 65.166 16.5 95.499s27 57.166 48 80.499s46.167 41.833 75.5 55.5s62.666 20.5 99.999 20.5c28 0 54.167 -3.83301 78.5 -11.5s45.833 -19.334 64.5 -35.001s33.334 -35 44.001 -58
s16 -49.5 16 -79.5c0 -33.333 -5.5 -65.166 -16.5 -95.499s-26.833 -57.166 -47.5 -80.499s-45.834 -41.833 -75.501 -55.5s-63.167 -20.5 -100.5 -20.5zM131.006 519c0 -22 3.00195 -43.167 9.00195 -63.5s15.167 -38.333 27.5 -54s28.166 -28.167 47.499 -37.5
s42 -14 68 -14c24.667 0 46.667 4.5 66 13.5s35.666 21.333 48.999 37s23.333 33.667 30 54s10 42.166 10 65.499c0 50 -13.167 91.167 -39.5 123.5s-64.833 48.5 -115.5 48.5c-24 0 -45.5 -4.33301 -64.5 -13s-35 -20.667 -48 -36s-22.833 -33.666 -29.5 -54.999
s-10 -44.333 -10 -69zM729.008 187c0 -22 3.00195 -43.167 9.00195 -63.5s15.167 -38.333 27.5 -54s28.166 -28.167 47.499 -37.5s42 -14 68 -14c24.667 0 46.667 4.5 66 13.5s35.666 21.333 48.999 37s23.333 33.667 30 54s10 42.166 10 65.499
c0 50 -13.167 91.167 -39.5 123.5s-64.833 48.5 -115.5 48.5c-24 0 -45.5 -4.33301 -64.5 -13s-35 -20.667 -48 -36s-22.833 -33.666 -29.5 -54.999s-10 -44.333 -10 -69zM391.01 0h-35l446 700h162zM151.01 519c0 44 10.5 80.501 31.5 109.501s54.5 43.5 100.5 43.5
s80 -14 102 -42s33 -65 33 -111c0 -20 -2.83301 -39 -8.5 -57s-14.167 -33.833 -25.5 -47.5s-25.5 -24.5 -42.5 -32.5s-36.5 -12 -58.5 -12s-41.333 4 -58 12s-30.5 18.667 -41.5 32s-19.167 29.166 -24.5 47.499s-8 37.5 -8 57.5zM749.01 187.001
c0 44 10.5 80.501 31.5 109.501s54.5 43.5 100.5 43.5s80 -14 102 -42s33 -65 33 -111c0 -20 -2.83301 -39 -8.5 -57s-14.167 -33.833 -25.5 -47.5s-25.5 -24.5 -42.5 -32.5s-36.5 -12 -58.5 -12s-41.333 4 -58 12s-30.5 18.667 -41.5 32s-19.167 29.166 -24.5 47.499
s-8 37.5 -8 57.5zM751.01 700.002h28l-446 -700h-155zM825.01 168.002c0 -15.333 2.83301 -26.166 8.5 -32.499s13.167 -9.5 22.5 -9.5c8 0 15.333 3.66699 22 11s12.167 16.666 16.5 27.999s7.66602 24.166 9.99902 38.499s3.5 28.5 3.5 42.5
c0 15.333 -2.83301 26.166 -8.5 32.499s-13.167 9.5 -22.5 9.5c-8 0 -15.333 -3.66699 -22 -11s-12.167 -16.666 -16.5 -27.999s-7.66602 -24.166 -9.99902 -38.499s-3.5 -28.5 -3.5 -42.5zM234.01 454.002c0 -15.333 2.83301 -26.166 8.5 -32.499s13.167 -9.5 22.5 -9.5
c8 0 15.333 3.66699 22 11s12.167 16.666 16.5 27.999s7.66602 24.166 9.99902 38.499s3.5 28.5 3.5 42.5c0 15.333 -2.83301 26.166 -8.5 32.499s-13.167 9.5 -22.5 9.5c-8 0 -15.333 -3.66699 -22 -11s-12.167 -16.666 -16.5 -27.999s-7.66602 -24.166 -9.99902 -38.499
s-3.5 -28.5 -3.5 -42.5z" />
    <glyph glyph-name="ampersand" unicode="&#x26;" horiz-adv-x="738" 
d="M517 144c-18.667 -38 -44 -69 -76 -93s-72 -36 -120 -36c-23.333 0 -46 3.33301 -68 10s-41.5 16.667 -58.5 30s-30.833 29.833 -41.5 49.5s-16 42.167 -16 67.5c0 28 5.83301 52.667 17.5 74s26.5 40.5 44.5 57.5s37.833 32.5 59.5 46.5l62.5 40zM540 145
c10 22.667 17.5 44.668 22.5 66.001s7.5 47.333 7.5 78h-20v-15c0 -23.333 -2.5 -44.333 -7.5 -63s-10.5 -34.667 -16.5 -48l-188 238l35 25.5c12 8.33301 24 17.166 36 26.499l88 -127c13.333 16 26 32.167 38 48.5l34 47.5l170 -109c-19.333 -25.333 -40 -50.5 -62 -75.5
s-45.667 -49.167 -71 -72.5l113 -165h-281l-13 18c23.333 12 43.5 27.167 60.5 45.5s31.833 38.833 44.5 61.5l89 -113h26zM227 -9.99902c-32.667 0 -63.332 3.49805 -91.999 10.498s-53.5 17.833 -74.5 32.5s-37.5 32.834 -49.5 54.501s-18 47.5 -18 77.5
c0 46.667 14.667 89.334 44 128.001s72.333 72.334 129 101.001c-11.333 18.667 -20.5 36.667 -27.5 54s-10.5 35.666 -10.5 54.999c0 35.333 8.5 67.5 25.5 96.5s40.833 52.167 71.5 69.5c-14.667 -20.667 -22 -46 -22 -76c0 -16.667 3.66699 -33.167 11 -49.5
s16.5 -32.333 27.5 -48s22.5 -31 34.5 -46s23 -29.5 33 -43.5l-66 -42.5c-22.667 -15 -43.334 -31.833 -62.001 -50.5s-34 -39.5 -46 -62.5s-18 -49.167 -18 -78.5c0 -25.333 5 -48.333 15 -69s23.5 -38.5 40.5 -53.5s36.167 -27.167 57.5 -36.5s43.666 -15 66.999 -17
c-23.333 -4 -46.666 -6 -69.999 -6zM223.002 594.999c0 17.333 3.33203 32.832 9.99902 46.499s15.834 25.334 27.501 35.001s25.167 17 40.5 22s31.666 7.5 48.999 7.5c16.667 0 32.5 -2.66699 47.5 -8s28.167 -12.833 39.5 -22.5s20.5 -21.5 27.5 -35.5
s10.5 -29.667 10.5 -47c0 -16 -3.16699 -30.833 -9.5 -44.5s-14.166 -26.5 -23.499 -38.5c-3.33301 0.666992 -8.33301 1 -15 1c-10.667 0 -18 -2.83301 -22 -8.5s-6 -12.167 -6 -19.5c0 -3.33301 0.666992 -7.66602 2 -12.999c-13.333 -10.667 -26.333 -20.5 -39 -29.5
l-36 -24.5l-46.5 61c-13 17.333 -23.667 32.833 -32 46.5s-14.5 26.167 -18.5 37.5s-6 22.666 -6 33.999zM552.001 691.998c46 -12 91 -30.998 135 -56.998l-119 -173l-34.5 18c-11.667 6 -24.167 11.333 -37.5 16l-31 10c9.33301 12 16.666 25.167 21.999 39.5
s8 30.166 8 47.499c0 28 -6.66699 51.667 -20 71s-30.666 34.333 -51.999 45c45.333 -0.666992 88.333 -6.33398 129 -17.001zM260.001 256c-8.66699 -5.33301 -17.168 -13.499 -25.501 -24.499s-12.5 -23.167 -12.5 -36.5c0 -10.667 4.33301 -20.334 13 -29.001
s23.334 -13 44.001 -13c12 0 27 3.66699 45 11z" />
    <glyph glyph-name="quotesingle" unicode="'" horiz-adv-x="350" 
d="M300 373h-212v327h314zM148 436h20v225h-20v-225z" />
    <glyph glyph-name="parenleft" unicode="(" horiz-adv-x="430" 
d="M181 -111c-45.333 50.667 -82.498 105.17 -111.498 163.503s-43.5 121.5 -43.5 189.5c0 52 7.16699 100.167 21.5 144.5s34.166 85.666 59.499 123.999s55.166 74.166 89.499 107.499s71.833 65 112.5 95c-34.667 -66.667 -61 -136.334 -79 -209.001
s-27 -146.667 -27 -222c0 -67.333 5.83301 -129.5 17.5 -186.5s29.167 -113.833 52.5 -170.5zM494.002 626.003c-62.667 -64.667 -108.5 -131.832 -137.5 -201.499s-43.5 -142.834 -43.5 -219.501c0 -78 21.667 -157.667 65 -239l-89 -34
c-22 55.333 -38.5 112.333 -49.5 171s-16.5 118.334 -16.5 179.001c0 77.333 9.5 153.166 28.5 227.499s46.833 145.5 83.5 213.5z" />
    <glyph glyph-name="parenright" unicode=")" horiz-adv-x="430" 
d="M268 720c22.667 -25.333 43.502 -51.6719 62.502 -79.0049s35.333 -55.666 49 -84.999s24.334 -59.666 32.001 -90.999s11.5 -64 11.5 -98c0 -51.333 -6.83301 -98.666 -20.5 -141.999s-32.834 -83.833 -57.501 -121.5s-54 -73 -88 -106s-71 -64.833 -111 -95.5
c25.333 58.667 44.666 118.834 57.999 180.501s20 124.834 20 189.501c0 74.667 -7.33301 143.5 -22 206.5s-36.334 126.167 -65.001 189.5zM92.002 183.994c29.333 70.667 44 143.999 44 219.999c0 78 -21.667 157.667 -65 239l50 19
c28 -61.333 48.833 -124.666 62.5 -189.999s20.5 -132 20.5 -200s-7.33301 -134.667 -22 -200s-36 -128.333 -64 -189l-163 100c62 64 107.667 131 137 201z" />
    <glyph glyph-name="asterisk" unicode="*" horiz-adv-x="550" 
d="M485 233l-115 94l24 -149h-180l24 149l-115 -94l-91 154l153 52l-153 52l91 154l115 -94l-24 149h180l-24 -149l115 94l91 -154l-153 -52l153 -52zM284 633v-140l-126 43l-6 -19l130 -43l-88 -104l16 -13l84 104l83 -108l16 12l-83 109l130 43l-4 19l-132 -43v140h-20z
" />
    <glyph glyph-name="plus" unicode="+" horiz-adv-x="646" 
d="M458 230v-185h-238v185h-177v228h177v185h238v-185h177v-228h-177zM327 357h-242v-20h242v-243h20v243h242v20h-242v243h-20v-243z" />
    <glyph glyph-name="comma" unicode="," horiz-adv-x="360" 
d="M132 -122h-180l89 399h306zM29 98l0.000976562 -97.999c0 -28 -1.83301 -49.333 -5.5 -64s-9.83398 -26.334 -18.501 -35.001v-20c16.667 11.333 28.167 26.5 34.5 45.5s9.5 43.5 9.5 73.5v98h-20z" />
    <glyph glyph-name="hyphen" unicode="-" horiz-adv-x="488" 
d="M23 228l44 248h428l-44 -248h-428zM178 347h175v20h-175v-20z" />
    <glyph glyph-name="period" unicode="." horiz-adv-x="360" 
d="M146 -11c-44 0 -79.168 12.001 -105.501 36.001s-39.5 55.333 -39.5 94c0 22.667 3.83301 44.667 11.5 66s18.834 40.166 33.501 56.499s32.667 29.333 54 39s46 14.5 74 14.5c42 0 76.333 -11.667 103 -35s40 -54 40 -92c0 -26 -4.33301 -49.833 -13 -71.5
s-20.5 -40.5 -35.5 -56.5s-33 -28.5 -54 -37.5s-43.833 -13.5 -68.5 -13.5zM138.999 98.001h-20v-98h20v98z" />
    <glyph glyph-name="slash" unicode="/" horiz-adv-x="570" 
d="M164 -90h-267l539 880h267zM150 -17l327 748h-20l-327 -748h20z" />
    <glyph glyph-name="zero" unicode="0" horiz-adv-x="734" 
d="M656 340c0 -38 -3.66699 -76.667 -11 -116s-20 -75 -38 -107s-42.167 -58.167 -72.5 -78.5s-68.833 -30.5 -115.5 -30.5s-85.167 10.167 -115.5 30.5s-54.5 46.5 -72.5 78.5s-30.667 67.667 -38 107s-11 78 -11 116s3.66699 76.667 11 116s20 75 38 107
s42.167 58.167 72.5 78.5s68.833 30.5 115.5 30.5s85.167 -10.167 115.5 -30.5s54.5 -46.5 72.5 -78.5s30.667 -67.667 38 -107s11 -78 11 -116zM676 340c0 42.667 -4.16504 85.002 -12.498 127.002s-22.5 79.667 -42.5 113s-46.5 60.333 -79.5 81s-73.833 31 -122.5 31
c-49.333 0 -90.333 -10.333 -123 -31s-59 -47.667 -79 -81s-34.167 -71 -42.5 -113s-12.5 -84.333 -12.5 -127c0 -40 3.66699 -79.833 11 -119.5s19.5 -75.834 36.5 -108.501s39.833 -60 68.5 -82s64 -35.333 106 -40c-5.33301 -0.666992 -10.5 -1 -15.5 -1h-15.5
c-42 0 -82.5 5.5 -121.5 16.5s-73.167 28.5 -102.5 52.5s-52.833 54.667 -70.5 92s-26.5 82.666 -26.5 135.999c0 58.667 8.5 113.667 25.5 165s42 96.333 75 135s73.167 69.167 120.5 91.5s101.666 33.5 162.999 33.5c42 0 82.167 -5.83301 120.5 -17.5
s72.166 -29.667 101.499 -54s52.666 -55.333 69.999 -93s26 -82.167 26 -133.5c0 -64.667 -9.83301 -122.667 -29.5 -174s-46.167 -95.333 -79.5 -132c18.667 33.333 31.834 70 39.501 110s11.5 81 11.5 123zM458.002 345.002c3.33301 15.333 5.5 29.333 6.5 42
s1.5 24.334 1.5 35.001c0 17.333 -1.66699 31.666 -5 42.999s-7.66602 20.166 -12.999 26.499s-11.666 10.833 -18.999 13.5s-15 4 -23 4c-9.33301 0 -18.666 -2.16699 -27.999 -6.5s-18.333 -12.166 -27 -23.499s-16.667 -27 -24 -47s-13.666 -45.667 -18.999 -77
c-3.33301 -16 -5.5 -30.5 -6.5 -43.5s-1.5 -24.833 -1.5 -35.5c0 -34 6.16699 -56.667 18.5 -68s26.5 -17 42.5 -17c9.33301 0 18.666 2.33301 27.999 7s18.166 12.667 26.499 24s16.166 27 23.499 47s13.666 45.333 18.999 76z" />
    <glyph glyph-name="one" unicode="1" horiz-adv-x="454" 
d="M94 0l77 438h-126l29 162c42 2.66699 78 12.5 108 29.5s53 40.5 69 70.5h242l-123 -700h-276zM298 0h20v680h-22c-14 -16 -27.5 -30.333 -40.5 -43s-26.5 -24 -40.5 -34s-29 -19 -45 -27s-34.333 -15.333 -55 -22v-20c34 9.33301 67.5 24.5 100.5 45.5
s59.833 45.833 80.5 74.5h2v-654z" />
    <glyph glyph-name="two" unicode="2" horiz-adv-x="696" 
d="M119 20c2.66699 29.333 15.001 56.4971 37.001 81.4971s48.5 49.333 79.5 73s64.333 47.334 100 71.001s68.5 48.834 98.5 75.501s55 55.167 75 85.5s30 64.5 30 102.5c0 30.667 -5.5 57.334 -16.5 80.001s-25.833 41.667 -44.5 57s-40.834 26.833 -66.501 34.5
s-52.834 11.5 -81.501 11.5c-58.667 0 -105.667 -13.667 -141 -41s-58.666 -66 -69.999 -116l-37 101c46.667 22.667 95.834 40.834 147.501 54.501s111.5 20.5 179.5 20.5c100 0 175.333 -14.333 226 -43s76 -73.334 76 -134.001c0 -32 -3.83301 -59.667 -11.5 -83
s-21.334 -44.666 -41.001 -63.999s-46.5 -37.833 -80.5 -55.5s-77.333 -37.167 -130 -58.5c-18 -7.33301 -33.167 -14 -45.5 -20s-23 -11.667 -32 -17s-17 -10.833 -24 -16.5s-14.167 -11.834 -21.5 -18.501h334l-35 -201h-67v20h-438zM-23.999 -0.00292969
c13.333 66.667 31.833 124.335 55.5 173.002s52.667 90.667 87 126s74.5 65.5 120.5 90.5s98 47.167 156 66.5c22.667 7.33301 37 13 43 17s9 9.66699 9 17c0 5.33301 -4.66699 9.16602 -14 11.499s-22 3.5 -38 3.5c-36 0 -74.333 -4.33301 -115 -13
s-83 -24.334 -127 -47.001l-20 53c2.66699 26 8.66699 49.667 18 71s22 39.666 38 54.999s35.667 27.166 59 35.499s50.666 12.5 81.999 12.5c26.667 0 51.667 -3.5 75 -10.5s43.333 -17.333 60 -31s29.834 -30.667 39.501 -51s14.5 -43.833 14.5 -70.5
c0 -37.333 -10.333 -70.666 -31 -99.999s-46.667 -56.666 -78 -81.999s-65 -49.833 -101 -73.5s-69.667 -48.167 -101 -73.5s-57.333 -52.5 -78 -81.5s-31 -61.833 -31 -98.5h-123z" />
    <glyph glyph-name="three" unicode="3" horiz-adv-x="681" 
d="M149 16c-66.667 19.333 -124.669 49.6689 -174.002 91.002l140 164c34.667 -25.333 71.334 -44.333 110.001 -57s78 -19 118 -19c25.333 0 43.166 3.33301 53.499 10s15.5 15.667 15.5 27c0 9.33301 -4.5 16.666 -13.5 21.999s-25.167 8 -48.5 8h-134l32 184h117
c21.333 0 36.666 1.83301 45.999 5.5s14 11.5 14 23.5c0 11.333 -7.83301 20 -23.5 26s-36.167 9 -61.5 9c-28 0 -56 -3.66699 -84 -11s-59 -18 -93 -32l-13 27c4 60 25 104.667 63 134s87.667 44 149 44c24 0 47.333 -2.5 70 -7.5s43 -13.333 61 -25
s32.667 -26.834 44 -45.501s17.333 -41.667 18 -69c0 -28 -5.33301 -51.5 -16 -70.5s-24.667 -34.333 -42 -46s-36.833 -20 -58.5 -25s-43.5 -7.5 -65.5 -7.5h-49v-20h49c28 -1.33301 53.833 -5.33301 77.5 -12s44.334 -16.667 62.001 -30s31.334 -30.333 41.001 -51
s14.5 -45.667 14.5 -75s-5.83301 -55.166 -17.5 -77.499s-27.167 -41.166 -46.5 -56.499s-41.666 -26.833 -66.999 -34.5s-51.666 -11.5 -78.999 -11.5c-34 0 -65 4.33301 -93 13s-52 21.5 -72 38.5s-35.5 37.833 -46.5 62.5s-16.5 53.334 -16.5 86.001v10.5
c0 3.66699 0.333008 7.5 1 11.5h-20c-0.666992 -4 -1 -7.83301 -1 -11.5v-10.5c0 -32.667 5.16699 -61.834 15.5 -87.501s24.666 -47.667 42.999 -66s40.5 -33 66.5 -44s55 -17.833 87 -20.5c-30 1.33301 -59.333 4.16602 -88 8.49902s-57 10.166 -85 17.499z
M149.998 671.003c34.667 13.333 70.668 23.3389 108.001 30.0059s79.666 10 126.999 10c102 0 179.5 -15.333 232.5 -46s79.5 -75.334 79.5 -134.001c0 -44 -10.833 -80.167 -32.5 -108.5s-52.834 -49.166 -93.501 -62.499c30 -12 53.167 -28.333 69.5 -49
s24.5 -47 24.5 -79c0 -31.333 -5.5 -60.833 -16.5 -88.5s-27.667 -52.334 -50 -74.001s-50.5 -39.334 -84.5 -53.001s-74 -22.5 -120 -26.5c26.667 3.33301 51.834 10.166 75.501 20.499s44.334 23.833 62.001 40.5s31.5 36.5 41.5 59.5s15 48.833 15 77.5
c0 29.333 -4.5 54.666 -13.5 75.999s-21 39.166 -36 53.499s-32 25.333 -51 33s-38.5 12.5 -58.5 14.5v2c42 4 76.833 19.333 104.5 46s41.5 64 41.5 112c0 30 -6 55.667 -18 77s-28 38.666 -48 51.999s-42.833 23 -68.5 29s-51.834 9 -78.501 9
c-61.333 0 -112 -13.667 -152 -41s-65.333 -68.333 -76 -123l-51 113l33.5 15.5c11 5 22.167 9.83301 33.5 14.5z" />
    <glyph glyph-name="four" unicode="4" horiz-adv-x="737" 
d="M496 177v-177h-146l22 125h-385l28 160l463 415h236l-68 -383h90l-35 -196h-90l-21 -121h-74v177h123v20h-123v483h-25l-340 -479v-24h345zM496 197h-325l323 455h2v-455zM446 451l-26.001 -29.002l-31 -32l-24 -24c-13.333 -13.333 -25.166 -24.666 -35.499 -33.999
s-22.5 -19.666 -36.5 -30.999c5.33301 0.666992 11 1.16699 17 1.5s12.333 0.5 19 0.5h90l12 72l6 39.5c2 13 5 25.167 9 36.5z" />
    <glyph glyph-name="five" unicode="5" horiz-adv-x="707" 
d="M557 660l0.00585938 20.0068h-349l-73 -343h25c18.667 34 45 59.833 79 77.5s71 26.5 111 26.5c32 0 61.333 -5.33301 88 -16s49.334 -25.5 68.001 -44.5s33.167 -41.667 43.5 -68s15.5 -55.166 15.5 -86.499c0 -33.333 -5 -63.333 -15 -90s-24.333 -49.5 -43 -68.5
s-41.334 -33.667 -68.001 -44s-56.334 -15.5 -89.001 -15.5c-32 0 -61.333 4.5 -88 13.5s-49.5 22 -68.5 39s-33.667 37.833 -44 62.5s-15.5 52.667 -15.5 84v11h-20v-11c0 -32.667 5.16699 -61.834 15.5 -87.501s24.666 -47.834 42.999 -66.501s40.333 -33.334 66 -44.001
s54.167 -17.334 85.5 -20.001c-39.333 0.666992 -75.833 4.16699 -109.5 10.5s-64.834 14.5 -93.501 24.5s-55.334 21.5 -80.001 34.5s-47.667 26.5 -69 40.5l130 175c18.667 -10.667 38.5 -20.834 59.5 -30.501s42.5 -18.334 64.5 -26.001s44.167 -13.834 66.5 -18.501
s43.833 -7 64.5 -7c31.333 0 52.166 5.33301 62.499 16s15.5 23.667 15.5 39c0 14 -6.66699 24.5 -20 31.5s-35.333 10.5 -66 10.5c-24.667 0 -46.5 -2.83301 -65.5 -8.5s-36.167 -11.834 -51.5 -18.501l-172 58l96 380h564l-34 -191h-372l-10 -44
c13.333 3.33301 29.166 6.5 47.499 9.5s41.5 4.5 69.5 4.5c88.667 0 156 -17.333 202 -52s69 -83.334 69 -146.001c0 -38.667 -6.66699 -74.834 -20 -108.501s-33 -63.167 -59 -88.5s-57.833 -46.166 -95.5 -62.499s-80.5 -26.5 -128.5 -30.5
c29.333 4 56.166 12.333 80.499 25s45 29.167 62 49.5s30.167 44 39.5 71s14 56.833 14 89.5c0 34 -5.66699 65.5 -17 94.5s-27.333 53.833 -48 74.5s-45.5 36.834 -74.5 48.501s-60.833 17.5 -95.5 17.5c-40 0 -76.167 -7.33301 -108.5 -22s-58.166 -38 -77.499 -70h-2
l62 291h333z" />
    <glyph glyph-name="six" unicode="6" horiz-adv-x="692" 
d="M621 223c0 -30 -5.66699 -58 -17 -84s-26.666 -48.667 -45.999 -68s-42 -34.666 -68 -45.999s-54 -17 -84 -17s-58 5.66699 -84 17s-48.667 26.666 -68 45.999s-34.666 42 -45.999 68s-17 54 -17 84s5.66699 58 17 84s26.666 48.667 45.999 68s42 34.666 68 45.999
s54 17 84 17s58 -5.66699 84 -17s48.667 -26.666 68 -45.999s34.666 -42 45.999 -68s17 -54 17 -84zM629 520c-6 44 -24.667 81.667 -56 113s-72 50.333 -122 57h2c21.333 3.33301 43.833 6 67.5 8s48.167 3 73.5 3c11.333 0 23 -0.166992 35 -0.5s24.333 -0.833008 37 -1.5
l-34 -190c-8.66699 0.666992 -17 1 -25 1h-24c-66.667 0 -122.167 -7.66699 -166.5 -23s-79.5 -32 -105.5 -50c-32.667 -14 -60.334 -34.167 -83.001 -60.5s-37.334 -56.166 -44.001 -89.499h-2v22c0 25.333 1.33301 52 4 80s7.33398 55.5 14.001 82.5s15.667 52.667 27 77
s25.833 45.666 43.5 63.999s38.667 32.833 63 43.5s52.5 16 84.5 16c16.667 0 34.834 -2.16699 54.501 -6.5s38.5 -12.166 56.5 -23.499s34.167 -26.833 48.5 -46.5s24.833 -44.834 31.5 -75.501h20zM337 -12c-100 0 -177.832 21.0029 -233.499 63.0029s-83.5 104 -83.5 186
c0 33.333 4.33301 67.833 13 103.5s22.5 70.667 41.5 105s43.333 66.833 73 97.5s65.5 57.667 107.5 81c-17.333 -18.667 -31.833 -39.834 -43.5 -63.501s-21.167 -48.834 -28.5 -75.501s-12.5 -54 -15.5 -82s-4.5 -55.333 -4.5 -82c0 -44.667 2.66699 -86 8 -124
s17.666 -72 36.999 -102c15.333 -24 37.5 -46.333 66.5 -67s63.833 -33.334 104.5 -38.001c-6.66699 -0.666992 -13.5 -1.16699 -20.5 -1.5s-14.167 -0.5 -21.5 -0.5zM447.001 233.003c0 19.333 -9.33203 33.833 -27.999 43.5s-43 14.5 -73 14.5
c-30.667 0 -53.834 -6.33301 -69.501 -19s-23.5 -29.667 -23.5 -51c0 -19.333 8.5 -33.833 25.5 -43.5s41.5 -14.5 73.5 -14.5c18 0 33 2 45 6s21.833 9.33301 29.5 16s13 14.167 16 22.5s4.5 16.833 4.5 25.5zM523.002 439.003
c48.667 -10 87.3359 -28.6689 116.003 -56.002s43 -64.666 43 -111.999c0 -54.667 -11.667 -101.5 -35 -140.5s-57.666 -71.833 -102.999 -98.5c29.333 21.333 52.833 48.333 70.5 81s26.5 69.334 26.5 110.001c0 27.333 -4.33301 53 -13 77s-20.334 45.5 -35.001 64.5
s-31.834 35.5 -51.501 49.5s-40.5 24.667 -62.5 32c7.33301 -1.33301 14.666 -2.5 21.999 -3.5s14.666 -2.16699 21.999 -3.5z" />
    <glyph glyph-name="seven" unicode="7" horiz-adv-x="688" 
d="M715 507c-58 -40.667 -106.001 -79.166 -144.001 -115.499s-69.167 -73.833 -93.5 -112.5s-43.666 -80.334 -57.999 -125.001s-26.833 -96 -37.5 -154h-270c15.333 110 45.5 205.167 90.5 285.5s99.833 148.833 164.5 205.5h-310l37 209h655zM622.999 660.001
c-46.667 -46.667 -88.835 -94.667 -126.502 -144s-69.667 -101 -96 -155s-46.666 -111 -60.999 -171s-21.5 -123.333 -21.5 -190h20c0 68 7.33301 131.5 22 190.5s35.334 115 62.001 168s59 103.833 97 152.5s80 96 126 142v27h-434v-20h412z" />
    <glyph glyph-name="eight" unicode="8" horiz-adv-x="730" 
d="M450 375c19.333 2.66699 37.5029 8.16992 54.5029 16.5029s31.833 18.666 44.5 30.999s22.667 26.833 30 43.5s11 34.667 11 54c0 30.667 -5.5 56.834 -16.5 78.501s-26.167 39.5 -45.5 53.5s-42 24.167 -68 30.5s-53.667 9.5 -83 9.5s-57 -3.16699 -83 -9.5
s-48.667 -16.5 -68 -30.5s-34.5 -31.833 -45.5 -53.5s-16.5 -47.834 -16.5 -78.501c0 -19.333 3.66699 -37.333 11 -54s17.333 -31.167 30 -43.5s27.5 -22.666 44.5 -30.999s35.167 -13.833 54.5 -16.5v-2c-54 -5.33301 -96.5 -24.166 -127.5 -56.499
s-46.5 -74.5 -46.5 -126.5c0 -32.667 5.66699 -61 17 -85s26.666 -44.167 45.999 -60.5s42 -29 68 -38s53.667 -14.5 83 -16.5c-52 0.666992 -99 6.66699 -141 18s-77.667 26.333 -107 45s-51.833 40.667 -67.5 66s-23.5 53 -23.5 83c0 28.667 4.5 53.667 13.5 75
s20.667 39.666 35 54.999s30 28.166 47 38.499s33.5 18.5 49.5 24.5c-18 12 -32.833 27.667 -44.5 47s-17.5 41.333 -17.5 66c0 32 7.16699 60.667 21.5 86s34.666 46.666 60.999 63.999s58.333 30.666 96 39.999s80.167 14 127.5 14
c51.333 0 97.666 -4.16699 138.999 -12.5s76.5 -20.5 105.5 -36.5s51.167 -36 66.5 -60s23 -51.667 23 -83c0 -20 -3 -38.167 -9 -54.5s-14 -31 -24 -44s-21.833 -24.333 -35.5 -34s-28.167 -18.167 -43.5 -25.5c26.667 -16 48.167 -34.667 64.5 -56
s24.5 -49.666 24.5 -84.999c0 -26.667 -5.66699 -52.5 -17 -77.5s-27.833 -47.833 -49.5 -68.5s-48.667 -38.167 -81 -52.5s-69.5 -23.833 -111.5 -28.5c25.333 4.66699 48.833 12 70.5 22s40.5 23 56.5 39s28.5 35.167 37.5 57.5s13.5 48.166 13.5 77.499
c0 52 -15.5 94.167 -46.5 126.5s-73.5 51.833 -127.5 58.5zM604.003 190.003c0 -32.667 -6.16504 -60.5 -18.498 -83.5s-29 -41.833 -50 -56.5s-45.167 -25.334 -72.5 -32.001s-56 -10 -86 -10s-58.667 3.33301 -86 10s-51.5 17.334 -72.5 32.001s-37.667 33.5 -50 56.5
s-18.5 50.833 -18.5 83.5s6.33301 60 19 82s29.5 39.667 50.5 53s45.167 22.833 72.5 28.5s55.666 8.5 84.999 8.5s57.666 -2.83301 84.999 -8.5s51.5 -15.167 72.5 -28.5s37.833 -31 50.5 -53s19 -49.333 19 -82zM570.005 520.003c0 -24 -5.83008 -44.833 -17.4971 -62.5
s-26.834 -32 -45.501 -43s-39.334 -19.167 -62.001 -24.5s-45.334 -8 -68.001 -8s-45.5 2.66699 -68.5 8s-43.667 13.5 -62 24.5s-33.333 25.333 -45 43s-17.5 38.5 -17.5 62.5c0 28.667 5.5 52.834 16.5 72.501s25.5 35.334 43.5 47.001s38.5 20 61.5 25
s46.833 7.5 71.5 7.5s48.5 -2.5 71.5 -7.5s43.5 -13.333 61.5 -25s32.5 -27.334 43.5 -47.001s16.5 -43.834 16.5 -72.501zM459.008 228.003c0 20 -10.001 35.332 -30.001 45.999s-45 16 -75 16c-36 0 -61.5 -6.66699 -76.5 -20s-22.5 -28.666 -22.5 -45.999s9 -32 27 -44
s45 -18 81 -18c32.667 0 56.834 6.5 72.501 19.5s23.5 28.5 23.5 46.5zM481.007 499.002c0 15.333 -6.33398 27.501 -19.001 36.501s-32 13.5 -58 13.5c-26.667 0 -46.167 -5.83301 -58.5 -17.5s-18.5 -24.834 -18.5 -39.501c0 -14 6.66699 -25.667 20 -35s34 -14 62 -14
c24.667 0 42.834 5.66699 54.501 17s17.5 24.333 17.5 39zM446.006 -5.99707l-1 -1z" />
    <glyph glyph-name="nine" unicode="9" horiz-adv-x="692" 
d="M564 457c0 -29.333 -5.49707 -57.001 -16.4971 -83.001s-26.167 -48.667 -45.5 -68s-41.833 -34.666 -67.5 -45.999s-53.167 -17 -82.5 -17c-30 0 -58.333 5.33301 -85 16s-49.834 25.5 -69.501 44.5s-35.167 41.667 -46.5 68s-17 54.833 -17 85.5c0 30 5.66699 58 17 84
s26.666 48.667 45.999 68s42 34.666 68 45.999s54 17 84 17s58 -5.66699 84 -17s48.667 -26.666 68 -45.999s34.666 -42 45.999 -68s17 -54 17 -84zM126.003 159.999c4.66699 -34.667 17.498 -65.8369 38.498 -93.5039s48.5 -48.5 82.5 -62.5
c-18 -2 -36.333 -3.66699 -55 -5s-38 -2 -58 -2c-24 0 -49 1 -75 3l34 190c9.33301 -1.33301 18.333 -2 27 -2h26c40.667 0 77 3.33301 109 10s60 14.667 84 24h10c27.333 0 53.333 4.33301 78 13s46.834 20.834 66.501 36.501s36.167 33.834 49.5 54.501
s22.666 43 27.999 67h2v-19c0 -22.667 -1 -46.334 -3 -71.001s-5.5 -49 -10.5 -73s-11.5 -47.167 -19.5 -69.5s-18.333 -42.833 -31 -61.5c-29.333 -20 -61.666 -37.167 -96.999 -51.5s-75.333 -26.166 -120 -35.499c-15.333 2.66699 -30.5 7.33398 -45.5 14.001
s-29 15.834 -42 27.501s-24.667 26.167 -35 43.5s-18.166 38.333 -23.499 63h-20zM388.001 710.996c100 0 177.833 -20.999 233.5 -62.999s83.5 -104 83.5 -186c0 -26.667 -2.83301 -54 -8.5 -82s-14.334 -55.833 -26.001 -83.5s-26.667 -54.834 -45 -81.501
s-40.166 -52 -65.499 -76l-11 -10c16 34.667 27.333 72 34 112s10 79.333 10 118c0 44 -2.66699 85 -8 123s-18 72.333 -38 103c-8.66699 13.333 -19.5 26.333 -32.5 39s-27.833 24 -44.5 34s-35.167 18.167 -55.5 24.5s-42.166 9.5 -65.499 9.5
c-31.333 0 -61.166 -5.83301 -89.499 -17.5s-53.333 -28 -75 -49s-38.834 -45.833 -51.501 -74.5s-19 -60 -19 -94c0 -46 11 -86.5 33 -121.5s50 -62.167 84 -81.5l-30 6c-48 9.33301 -86.333 27.833 -115 55.5s-43 65.167 -43 112.5c0 42.667 7.66699 81.5 23 116.5
s37.666 64.833 66.999 89.5s65.333 43.667 108 57s91.667 20 147 20zM278.001 465.997c0 -19.333 9.33301 -33.832 28 -43.499s43 -14.5 73 -14.5s53 6.16699 69 18.5s24 28.833 24 49.5c0 19.333 -8.5 34.166 -25.5 44.499s-41.5 15.5 -73.5 15.5c-18 0 -33 -2 -45 -6
s-21.833 -9.33301 -29.5 -16s-13 -14.167 -16 -22.5s-4.5 -16.833 -4.5 -25.5z" />
    <glyph glyph-name="colon" unicode=":" horiz-adv-x="360" 
d="M197 272c-20.667 0 -39.998 2.66895 -57.998 8.00195s-33.833 13 -47.5 23s-24.334 22.333 -32.001 37s-11.5 31.667 -11.5 51c0 23.333 4.33301 44 13 62s20.5 33.167 35.5 45.5s32.5 21.666 52.5 27.999s41.333 9.5 64 9.5c20.667 0 40.167 -2.66699 58.5 -8
s34.166 -13 47.499 -23s23.833 -22.167 31.5 -36.5s11.5 -30.5 11.5 -48.5c0 -19.333 -3.66699 -37.833 -11 -55.5s-18 -33.334 -32 -47.001s-31.333 -24.667 -52 -33s-44 -12.5 -70 -12.5zM146.002 -10.998c-20.667 0 -39.998 2.66895 -57.998 8.00195s-33.833 13 -47.5 23
s-24.334 22.333 -32.001 37s-11.5 31.667 -11.5 51c0 23.333 4.33301 44 13 62s20.5 33.167 35.5 45.5s32.5 21.666 52.5 27.999s41.333 9.5 64 9.5c20.667 0 40.167 -2.66699 58.5 -8s34.166 -13 47.499 -23s23.833 -22.167 31.5 -36.5s11.5 -30.5 11.5 -48.5
c0 -19.333 -3.66699 -37.833 -11 -55.5s-18 -33.334 -32 -47.001s-31.333 -24.667 -52 -33s-44 -12.5 -70 -12.5zM169.004 416.004v98h-20v-98h20zM169.004 0.00390625v98h-20v-98h20z" />
    <glyph glyph-name="semicolon" unicode=";" horiz-adv-x="360" 
d="M197 272c-20.667 0 -39.998 2.66895 -57.998 8.00195s-33.833 13 -47.5 23s-24.334 22.333 -32.001 37s-11.5 31.667 -11.5 51c0 23.333 4.33301 44 13 62s20.5 33.167 35.5 45.5s32.5 21.666 52.5 27.999s41.333 9.5 64 9.5c20.667 0 40.167 -2.66699 58.5 -8
s34.166 -13 47.499 -23s23.833 -22.167 31.5 -36.5s11.5 -30.5 11.5 -48.5c0 -19.333 -3.66699 -37.833 -11 -55.5s-18 -33.334 -32 -47.001s-31.333 -24.667 -52 -33s-44 -12.5 -70 -12.5zM131.002 -121.998h-180l80 369h298zM149.002 416.002v98h-20v-98h20z
M149.002 98.002l-19.999 0.000976562v-98c0 -28 -1.83301 -49.333 -5.5 -64s-9.83398 -26.334 -18.501 -35.001v-20c16.667 11.333 28.167 26.5 34.5 45.5s9.5 43.5 9.5 73.5v98z" />
    <glyph glyph-name="less" unicode="&#x3c;" horiz-adv-x="515" 
d="M49 264v172l450 275v-153l-413 -202v-24l413 -203v-140zM284 352l215 -115v-87l-395 194l395 193v-70z" />
    <glyph glyph-name="equal" unicode="=" horiz-adv-x="646" 
d="M55 380v202h566v-202h-566zM55 106v202h566v-202h-566zM591 197v20h-504v-20h504zM591 471v20h-504v-20h504z" />
    <glyph glyph-name="greater" unicode="&#x3e;" horiz-adv-x="515" 
d="M46 -11v150l409 201v24l-409 200v147l450 -275v-172zM46 237l215 115l-215 115v76l391 -191l-391 -192v77z" />
    <glyph glyph-name="question" unicode="?" horiz-adv-x="608" 
d="M155 490l0.00195312 12.999c0 30.667 4.33301 58.5 13 83.5s21.167 46.5 37.5 64.5s36.833 32 61.5 42s53 15 85 15c25.333 0 48.833 -3.16699 70.5 -9.5s40.334 -15.666 56.001 -27.999s28 -27.666 37 -45.999s13.5 -39.166 13.5 -62.499
c0 -25.333 -4.33301 -47.833 -13 -67.5s-18.834 -36.5 -30.501 -50.5s-22.834 -25.333 -33.501 -34s-18 -15 -22 -19c-22.667 -21.333 -40.667 -41.5 -54 -60.5s-23.666 -38.5 -30.999 -58.5h-185c5.33301 52 21.666 93.333 48.999 124s69 54.667 125 72
c10.667 3.33301 19 6.16602 25 8.49902s10.5 4.5 13.5 6.5s4.83301 3.83301 5.5 5.5s1 3.83398 1 6.50098c0 5.33301 -3 9.16602 -9 11.499s-18.667 3.5 -38 3.5c-18 0 -36.833 -1.5 -56.5 -4.5s-38.667 -6.83301 -57 -11.5s-35.333 -10 -51 -16
s-28.834 -11.667 -39.501 -17l-71 180c29.333 14 59.5 26.333 90.5 37s60.5 17.667 88.5 21c-32.667 -18.667 -57.667 -44.834 -75 -78.501s-26 -72.5 -26 -116.5v-14h20zM240.002 -11.001c-20.667 0 -39.9951 2.49902 -57.9951 7.49902s-33.833 12.333 -47.5 22
s-24.334 21.667 -32.001 36s-11.5 31.166 -11.5 50.499c0 23.333 4.33301 43.833 13 61.5s20.5 32.5 35.5 44.5s32.5 21 52.5 27s41.333 9 64 9c29.333 0 55.666 -5 78.999 -15c-2 -16 -3 -33.667 -3 -53h20c0 8 0.166992 15.5 0.5 22.5s0.833008 14.167 1.5 21.5
c15.333 -10.667 27.666 -23 36.999 -37s14 -31.333 14 -52c-0.666992 -19.333 -4.33398 -37.666 -11.001 -54.999s-17.334 -32.666 -32.001 -45.999l-10 -9v71h-20v-84c-25.333 -14.667 -56 -22 -92 -22zM471.007 699.998c53.333 -9.33301 96.501 -26.499 129.501 -51.499
s49.5 -58.833 49.5 -101.5c0 -30.667 -4.33301 -56.667 -13 -78s-19.667 -39.5 -33 -54.5s-28.333 -27.333 -45 -37s-33.334 -18.167 -50.001 -25.5l-47 -20.5c-12.667 -5.66699 -23.334 -11.167 -32.001 -16.5s-15.667 -11.333 -21 -18s-9.66602 -15 -12.999 -25h-31
c7.33301 19.333 18 37.5 32 54.5s32 35.833 54 56.5l29 26c11.333 10 22 22.167 32 36.5s18.667 31 26 50s11 41.167 11 66.5c0 32.667 -7.33301 60.667 -22 84s-34.667 41.666 -60 54.999c0.666992 -0.666992 1.66699 -1 3 -1h1z" />
    <glyph glyph-name="at" unicode="@" horiz-adv-x="836" 
d="M516 278c-9.33301 -24 -20.167 -43.8311 -32.5 -59.498s-25.333 -28 -39 -37s-27.5 -15.167 -41.5 -18.5s-27.667 -5 -41 -5c-17.333 0 -33.333 3.16699 -48 9.5s-27.334 15.166 -38.001 26.499s-19 24.5 -25 39.5s-9 31.5 -9 49.5c0 7.33301 0.166992 15.166 0.5 23.499
s1.5 16.5 3.5 24.5s5.16699 15.5 9.5 22.5s10.166 13.5 17.499 19.5c26 20.667 58 31 96 31c18.667 0 35 -1.16699 49 -3.5s27.667 -6.16602 41 -11.499v6c0 17.333 -3.5 29.166 -10.5 35.499s-18.833 9.5 -35.5 9.5c-21.333 0 -41.166 -1.5 -59.499 -4.5
s-39.166 -9.16699 -62.499 -18.5l-5 18c18.667 32.667 42.5 60.334 71.5 83.001s61.5 34 97.5 34c12.667 0 25.834 -1.5 39.501 -4.5s26.667 -8 39 -15s23.166 -16.333 32.499 -28s16.333 -25.834 21 -42.501zM742.999 361.002c0 42.667 -7.66895 81.1699 -23.002 115.503
s-36.666 63.666 -63.999 87.999s-59.5 43 -96.5 56s-77.5 19.5 -121.5 19.5s-84.5 -6.33301 -121.5 -19s-69 -31.167 -96 -55.5s-48 -54.5 -63 -90.5s-22.5 -77.333 -22.5 -124c0 -47.333 7.66699 -89 23 -125s36.666 -66.333 63.999 -91s59.5 -43.334 96.5 -56.001
s77.5 -19 121.5 -19c25.333 0 48 2.16699 68 6.5s39.333 11.166 58 20.499l18 -43c-21.333 -9.33301 -43.333 -16.666 -66 -21.999s-46.334 -8 -71.001 -8c-46 0 -89.667 7.33301 -131 22s-77.666 36.5 -108.999 65.5s-56.166 65 -74.499 108s-27.5 92.833 -27.5 149.5
c0 46.667 8.66699 90.667 26 132s41.333 77.333 72 108s66.834 54.834 108.501 72.501s86.834 26.5 135.501 26.5c43.333 0 83.666 -6.83301 120.999 -20.5s69.5 -32.834 96.5 -57.501s48.167 -54.334 63.5 -89.001s23 -72.667 23 -114c0 -12 -0.666992 -23.5 -2 -34.5
s-3.33301 -22.167 -6 -33.5v12zM551.997 161.005c-9.33301 2.66699 -17.998 5.66699 -25.998 9s-12 12.333 -12 27c0 9.33301 1.66699 19.666 5 30.999s7.66602 23.666 12.999 36.999l85 221c5.33301 -7.33301 9.33301 -18.833 12 -34.5s4 -32.167 4 -49.5v-143
c0 -10.667 1.66699 -19.667 5 -27s10 -11 20 -11c3.33301 0 6.5 0.166992 9.5 0.5s6.16699 0.833008 9.5 1.5c-17.333 -19.333 -35.833 -34.666 -55.5 -45.999s-38.834 -17.666 -57.501 -18.999zM819.999 360.005c0 -36 -4.83203 -67.002 -14.499 -93.002
s-22.834 -47.5 -39.501 -64.5s-36.5 -29.5 -59.5 -37.5s-47.5 -12 -73.5 -12h-17c20 9.33301 39.333 22.666 58 39.999s35.167 37.5 49.5 60.5s25.833 48.333 34.5 76s13 56.834 13 87.501c0 50.667 -10.167 95.834 -30.5 135.501s-47.833 72.5 -82.5 98.5
c50 -29.333 89.5 -69.666 118.5 -120.999s43.5 -108 43.5 -170zM594 22.0029c-25.333 -11.333 -50.6631 -19.668 -75.9961 -25.001s-52 -8 -80 -8c-54 0 -104.167 8.66699 -150.5 26s-86.5 41.833 -120.5 73.5s-60.667 69.5 -80 113.5s-29 93 -29 147
c0 40.667 5.66699 78.5 17 113.5s27.166 66.833 47.499 95.5s44.666 53.667 72.999 75s59.5 38.333 93.5 51l16 6c-32 -13.333 -61.5 -30.833 -88.5 -52.5s-50.333 -46.667 -70 -75s-34.834 -59.666 -45.501 -93.999s-16 -70.833 -16 -109.5c0 -63.333 10.5 -118 31.5 -164
s48.5 -83.833 82.5 -113.5s72.667 -51.667 116 -66s87.333 -21.5 132 -21.5c24.667 0 49.167 2.83301 73.5 8.5s48.166 13.5 71.499 23.5zM459.003 312.001c-5.33301 2 -10.5 3.66699 -15.5 5s-10.167 2 -15.5 2c-18.667 0 -28 -11 -28 -33c0 -21.333 9.33301 -32 28 -32
c12 0 22.333 2.33301 31 7v51zM348.003 546.001l22.001 2.99805c-36.667 -20 -67.334 -49.333 -92.001 -88l-17 63c12.667 4.66699 26.167 8.83398 40.5 12.501s29.833 6.83398 46.5 9.50098zM598.004 486.999h-2c-7.33301 20 -19.333 37 -36 51
c9.33301 -4 17.5 -8.5 24.5 -13.5s13.833 -11.167 20.5 -18.5zM471.004 174.999c8 7.33301 15.667 16 23 26h2c-0.666992 -3.33301 -1 -8.33301 -1 -15z" />
    <glyph glyph-name="A" unicode="A" 
d="M570 235l94 -235h-227l-7 81h-166l-35 -81h-118l95 235h364zM610 700l98 -700h-22l-277 700h201zM214 255l176 439l172 -439h-348zM306 700h66l-284 -700h-128zM416 264c-1.33301 26.667 -2 50.001 -2 70.001v54v44.5c0 13 0.666992 25.833 2 38.5
c-7.33301 -24.667 -17.5 -55.334 -30.5 -92.001l-42.5 -115h73z" />
    <glyph glyph-name="B" unicode="B" horiz-adv-x="714" 
d="M127 356l287 0.000976562c25.333 0 50.166 -3 74.499 -9s46 -15.667 65 -29s34.333 -30.833 46 -52.5s17.5 -47.834 17.5 -78.501c0 -29.333 -5.33301 -54.833 -16 -76.5s-25.167 -39.667 -43.5 -54s-40.166 -25 -65.499 -32s-52.333 -10.5 -81 -10.5h-284v342z
M127 688.001l287.002 -0.000976562c25.333 0 49 -3.16699 71 -9.5s41.167 -16 57.5 -29s29.166 -29.5 38.499 -49.5s14 -43.333 14 -70c0 -25.333 -5 -47.666 -15 -66.999s-23.333 -35.5 -40 -48.5s-35.834 -22.667 -57.501 -29s-44.5 -9.5 -68.5 -9.5h-287v312z
M594.002 687c52.667 -13.333 90.4961 -32.833 113.496 -58.5s34.5 -55.5 34.5 -89.5c0 -26.667 -4.16699 -49.667 -12.5 -69s-19.166 -35.833 -32.499 -49.5s-28.166 -25 -44.499 -34s-32.166 -16.167 -47.499 -21.5c11.333 -4 22.5 -9.66699 33.5 -17s21 -16.5 30 -27.5
s16.167 -24.167 21.5 -39.5s8 -33 8 -53c0 -54 -14.833 -99.833 -44.5 -137.5s-75.167 -63.5 -136.5 -77.5c36.667 14 65.834 35.667 87.501 65s32.5 66 32.5 110c0 27.333 -4.66699 51.833 -14 73.5s-21.833 40 -37.5 55s-34 26.667 -55 35s-43.167 12.833 -66.5 13.5v2
c22 1.33301 42.167 6.5 60.5 15.5s34.166 20.833 47.499 35.5s23.833 31.667 31.5 51s11.5 39.666 11.5 60.999c0 47.333 -12.333 85 -37 113s-57 47 -97 57c44.667 -1.33301 82.334 -5.66602 113.001 -12.999zM-8.00195 0l115 654v-654h-115zM420.998 231
c0 12.667 -4.66797 23 -14.001 31s-22.666 12 -39.999 12h-51l-17 -98h60c19.333 0 34.5 4.66699 45.5 14s16.5 23 16.5 41zM464.997 482c0 28 -18.999 42 -56.999 42h-48l-17 -98h62c17.333 0 31.666 4.83301 42.999 14.5s17 23.5 17 41.5z" />
    <glyph glyph-name="C" unicode="C" horiz-adv-x="701" 
d="M249 675c48 22.667 103.67 34.335 167.003 35.002c35.333 -2.66699 67.5 -10.5 96.5 -23.5s54 -29.167 75 -48.5s37.5 -41 49.5 -65s19 -48.333 21 -73h20c-0.666992 15.333 -4 32.166 -10 50.499s-15 36.5 -27 54.5s-26.833 35 -44.5 51s-38.167 30 -61.5 42
c34.667 -7.33301 63.667 -19 87 -35s42.166 -36 56.499 -60s24.666 -51.333 30.999 -82s9.5 -64.334 9.5 -101.001l-256 -47c0.666992 9.33301 1.16699 17.833 1.5 25.5s0.5 15.167 0.5 22.5c0 34 -4.16699 57 -12.5 69s-21.5 18 -39.5 18c-16 0 -30.333 -7.5 -43 -22.5
s-23.334 -33.833 -32.001 -56.5s-15.167 -47.5 -19.5 -74.5s-6.5 -52.167 -6.5 -75.5c0 -26 4.33301 -47 13 -63s22.334 -24 41.001 -24c20 0 37.167 8.66699 51.5 26s28.166 43 41.499 77l200 -83c-9.33301 -30.667 -22.333 -58.834 -39 -84.501
s-36.834 -47.667 -60.501 -66s-50.5 -32.666 -80.5 -42.999s-63 -15.5 -99 -15.5c-48 0 -90.833 9.66699 -128.5 29s-69.5 45 -95.5 77s-45.667 69 -59 111s-20 85.667 -20 131c0 26.667 3 56 9 88s15.833 63 29.5 93s31.334 57.667 53.001 83s48.5 45.333 80.5 60z
M238.003 5.00098c-30 8 -57.6699 19.8301 -83.0029 35.4971s-47.166 35 -65.499 58s-32.666 49.833 -42.999 80.5s-15.5 65.334 -15.5 104.001c0 46 5.16699 90.833 15.5 134.5s25.833 82.834 46.5 117.501c-12.667 -30 -21.834 -60.667 -27.501 -92s-8.5 -62 -8.5 -92
c0 -45.333 5.66699 -87.5 17 -126.5s27.333 -74 48 -105s45.5 -57.167 74.5 -78.5s61.5 -37 97.5 -47c-9.33301 1.33301 -18.666 2.83301 -27.999 4.5s-18.666 3.83398 -27.999 6.50098zM687 200.998c-10 -20.667 -20.833 -40.667 -32.5 -60s-25.167 -37.333 -40.5 -54
c28 32.667 49 72 63 118z" />
    <glyph glyph-name="D" unicode="D" horiz-adv-x="729" 
d="M130 690h225c36 0 71.167 -5 105.5 -15s65.166 -27.833 92.499 -53.5s49.333 -60.167 66 -103.5s25 -98.333 25 -165c0 -57.333 -8.16699 -107.166 -24.5 -149.499s-38.666 -77.333 -66.999 -105s-61.333 -48.334 -99 -62.001s-77.5 -20.5 -119.5 -20.5h-204v674zM-8 0
l138 666v-666h-138zM536 684c60.667 -16 108.162 -45 142.495 -87s51.5 -97.667 51.5 -167c0 -60 -6.83301 -112.833 -20.5 -158.5s-32.167 -85.334 -55.5 -119.001s-50.666 -61.167 -81.999 -82.5s-65 -37.333 -101 -48c27.333 10.667 52.833 25.5 76.5 44.5
s44.167 42 61.5 69s30.833 58.5 40.5 94.5s14.5 77 14.5 123c0 54.667 -5.66699 102 -17 142s-26.666 73.667 -45.999 101s-41.666 49.166 -66.999 65.499s-52 28.5 -80 36.5c14.667 -1.33301 28.834 -3.16602 42.501 -5.49902s26.834 -5.16602 39.501 -8.49902z
M445.995 340c4 24 6.00098 44.666 6.00098 61.999c0 34.667 -7 59.334 -21 74.001s-35 22 -63 22h-14l-52 -296h22c16 0 30.333 1.66699 43 5s24 10 34 20s18.667 24 26 42s13.666 41.667 18.999 71z" />
    <glyph glyph-name="E" unicode="E" horiz-adv-x="665" 
d="M714 700l-34 -194h-323l-11 -60h230l-12 -64h-399v312h454v6h95zM165 362h396l-19 -107h-230l-11 -61h325l-31 -174h-430v342zM-8 0l124 700h29v-700h-153z" />
    <glyph glyph-name="F" unicode="F" horiz-adv-x="654" 
d="M194 664h420v20h-440v-684h-182l123 700h598l-37 -214h-314l-12 -65h222l-12 -69h-366v312zM314 214l-38 -214h-82v332h362l-20 -118h-222z" />
    <glyph glyph-name="G" unicode="G" horiz-adv-x="754" 
d="M685 314v-37.001c0 -39.333 -7.33301 -75.833 -22 -109.5s-34.834 -62.667 -60.501 -87s-55.834 -43.333 -90.501 -57s-71.667 -20.5 -111 -20.5c-52.667 0 -98.834 9.33301 -138.501 28s-72.834 44 -99.501 76s-46.667 69.5 -60 112.5s-20 88.833 -20 137.5
c0 50.667 7 97.334 21 140.001s34.667 79.5 62 110.5s61.333 55.5 102 73.5s87.667 28 141 30c35.333 -1.33301 68 -7.33301 98 -18s56.333 -25.667 79 -45s41.5 -42.333 56.5 -69s25.5 -56 31.5 -88h20c-8 48.667 -25.167 91 -51.5 127s-60.166 63.667 -101.499 83l12 -3
c58.667 -12 104.834 -36.333 138.501 -73s55.5 -88.667 65.5 -156l-252 -54c-3.33301 34 -12.5 58.833 -27.5 74.5s-33.5 23.5 -55.5 23.5s-40.167 -7.33301 -54.5 -22s-25.666 -33.5 -33.999 -56.5s-14.166 -48.5 -17.499 -76.5s-5 -55.333 -5 -82
c0 -36 6.5 -60.667 19.5 -74s30.167 -20 51.5 -20c20 0 35.5 5.83301 46.5 17.5s20.167 27.5 27.5 47.5h-87l27 152h357l-6 -40c-9.33301 -57.333 -22.333 -109 -39 -155l-3 -8v138h-297v-20h277zM234 7.99902c-62.667 19.333 -112.168 52.332 -148.501 98.999
s-54.5 107.667 -54.5 183c0 50 6.66699 99 20 147s34 91 62 129c-33.333 -60.667 -50 -130.334 -50 -209.001c0 -44 5.33301 -86 16 -126s26.5 -76.167 47.5 -108.5s47 -59.666 78 -81.999s67.167 -38.166 108.5 -47.499c-27.333 2.66699 -53.666 7.66699 -78.999 15z" />
    <glyph glyph-name="H" unicode="H" horiz-adv-x="763" 
d="M644 362v-362h-253l43 241h-111l-43 -241h-136v362h500zM404 700l-41 -231h111l41 231h129v-318h-500v318h260zM803 700l-124 -700h-15v700h139zM116 700h8v-700h-132z" />
    <glyph glyph-name="I" unicode="I" horiz-adv-x="364" 
d="M-8 0l124 700h118v-700h-242zM404 700l-124 -700h-26v700h150z" />
    <glyph glyph-name="J" unicode="J" horiz-adv-x="720" 
d="M524 201c0 -37.333 -3.83008 -68.668 -11.4971 -94.001s-19 -45.666 -34 -60.999s-33.333 -26.333 -55 -33s-46.834 -10 -75.501 -10c-56 0 -98.333 14.5 -127 43.5s-43 72.833 -43 131.5v43h-20v-43c0 -44.667 9 -83.5 27 -116.5s48 -55.833 90 -68.5
c-83.333 9.33301 -146 37.5 -188 84.5s-63 118.833 -63 215.5l276 47c0.666992 -28.667 2.16699 -51.5 4.5 -68.5s5.66602 -30.167 9.99902 -39.5s9.66602 -15.5 15.999 -18.5s13.833 -4.5 22.5 -4.5c15.333 0 26.333 6 33 18s12.667 31.333 18 58l74 415h46v-499z
M693.003 281.998c-7.33301 -43.333 -17.833 -81.334 -31.5 -114.001s-31 -60.667 -52 -84s-46 -42.166 -75 -56.499s-62.833 -24.833 -101.5 -31.5c40 14 68.5 37.667 85.5 71s25.5 73 25.5 119v514h222z" />
    <glyph glyph-name="K" unicode="K" horiz-adv-x="769" 
d="M358 398l354 -398h-318l-58 217l-22 -27l-33 -190h-87v253zM404 700l-14.999 -85l-4.5 -24c-1.66699 -8.66699 -3.5 -17.5 -5.5 -26.5s-4 -17.5 -6 -25.5s-4 -15 -6 -21c10 18 24.667 40 44 66s40.666 52 63.999 78l34 38h164l-479 -420v420h210zM846.001 700l-270 -278
l146 -403l-348 391l329 290h143zM116.001 700h58v-700h-181z" />
    <glyph glyph-name="L" unicode="L" horiz-adv-x="611" 
d="M164 20v680h239l-84 -476h261l-36 -204h-380zM-8 0l123 700h29v-700h-152z" />
    <glyph glyph-name="M" unicode="M" horiz-adv-x="862" 
d="M534 220l-88 -185l-291 665h271l16 -123c4 -32 8 -61.333 12 -88s5.66699 -51.667 5 -75v-13.5c0 -4.33301 -0.333008 -8.5 -1 -12.5c6.66699 25.333 16.5 53.5 29.5 84.5s28.5 65.833 46.5 104.5l58 123h157zM522 0l39 222l205 467h2v-689h-246zM300 308l-5 -39
l-47 -269h-112v689h2l163 -372c-0.666992 -2 -1 -5 -1 -9zM115 700v-700h-123zM901 700l-113 -643v643h113zM340 0l-22 178l-12 127l129 -293l-5 -12h-90zM788 0v57l-10 -57h10z" />
    <glyph glyph-name="N" unicode="N" horiz-adv-x="752" 
d="M415 0l-52 134c-11.333 28 -22.5 58 -33.5 90s-18.5 60.333 -22.5 85c-1.33301 -10 -2.5 -20.833 -3.5 -32.5s-2.5 -23.167 -4.5 -34.5l-41 -242h-122v689h2l488 -689h-211zM378 700l39 -92c4.66699 -11.333 10 -25.833 16 -43.5l18 -55l17 -55.5
c5.33301 -18 9.33301 -32.333 12 -43l9 84l36 205h111v-675h-2l-478 675h222zM791 700l-123 -700h-12v700h135zM116 0h-124l124 700v-700z" />
    <glyph glyph-name="O" unicode="O" 
d="M89 350c0.666992 51.333 8.16699 98.666 22.5 141.999s34.666 80.666 60.999 111.999s58.5 55.833 96.5 73.5s81 26.5 129 26.5s91 -8.83301 129 -26.5s70.167 -42.167 96.5 -73.5s46.666 -68.666 60.999 -111.999s21.833 -90.666 22.5 -141.999
c-0.666992 -51.333 -8.16699 -98.666 -22.5 -141.999s-34.666 -80.666 -60.999 -111.999s-58.5 -55.833 -96.5 -73.5s-81 -26.5 -129 -26.5s-91 8.83301 -129 26.5s-70.167 42.167 -96.5 73.5s-46.666 68.666 -60.999 111.999s-21.833 90.666 -22.5 141.999zM480 419
c0 28 -5.16699 49.5029 -15.5 64.5029s-26.166 22.5 -47.499 22.5c-18 0 -33.667 -7.5 -47 -22.5s-24.166 -33.667 -32.499 -56s-14.5 -46.833 -18.5 -73.5s-6 -51.334 -6 -74.001c0 -28 5.16699 -49.5 15.5 -64.5s26.166 -22.5 47.499 -22.5c18 0 33.667 7.5 47 22.5
s24.166 33.667 32.499 56s14.5 46.666 18.5 72.999s6 51.166 6 74.499zM69 350.003c0 -40 4.49902 -78.5 13.499 -115.5s22.333 -71 40 -102s39.5 -58.167 65.5 -81.5s56 -41.333 90 -54c-36 4.66699 -69.167 14.5 -99.5 29.5s-56.333 34.5 -78 58.5s-38.667 52.667 -51 86
s-18.5 71 -18.5 113c0.666992 58 8.66699 112.833 24 164.5s40 96.5 74 134.5l15 17c-25.333 -34 -44.166 -72.167 -56.499 -114.5s-18.5 -87.5 -18.5 -135.5zM554.999 692.003c30 -8 57.499 -19.998 82.499 -35.998s46.667 -35.5 65 -58.5s32.5 -50 42.5 -81
s15 -65.5 15 -103.5c0 -58 -8 -112 -24 -162s-39.333 -94 -70 -132c20 32 35.167 67.667 45.5 107s15.5 80.666 15.5 123.999c0 39.333 -4.33301 77 -13 113s-21.5 69.333 -38.5 100s-37.833 57.667 -62.5 81s-53.334 41.666 -86.001 54.999
c4.66699 -1.33301 9.33398 -2.5 14.001 -3.5s9.33398 -2.16699 14.001 -3.5z" />
    <glyph glyph-name="P" unicode="P" horiz-adv-x="688" 
d="M136 694h269c66.667 0 116.167 -15 148.5 -45s48.5 -73.333 48.5 -130c0 -28 -5 -52.667 -15 -74s-23.833 -39.5 -41.5 -54.5s-38.5 -26.333 -62.5 -34s-50 -11.5 -78 -11.5h-269v349zM136 325l259 0.000976562c32.667 0 63 4.16699 91 12.5s52 20.666 72 36.999
s35.667 36.666 47 60.999s17 52.166 17 83.499c0 42.667 -8.33301 78.334 -25 107.001s-41 50.334 -73 65.001c60.667 -12 107 -35.5 139 -70.5s48 -81.5 48 -139.5c0 -57.333 -9.33301 -105 -28 -143s-43.5 -68.667 -74.5 -92s-66.667 -39.833 -107 -49.5
s-82.5 -14.5 -126.5 -14.5h-71l-32 -182h-136v325zM116 700.001v-700h-124zM445 454.001c0 16.667 -5.5 29.333 -16.5 38s-26.5 13 -46.5 13h-26l-22 -128h37c18 0 34.833 6.33301 50.5 19s23.5 32 23.5 58z" />
    <glyph glyph-name="Q" unicode="Q" 
d="M601 67c-25.333 -21.333 -53.9971 -37.8311 -85.9971 -49.498s-67.333 -17.5 -106 -17.5c-48 0 -91 8.83301 -129 26.5s-70.167 42.167 -96.5 73.5s-46.666 68.666 -60.999 111.999s-21.833 90.666 -22.5 141.999c0.666992 51.333 8.16699 98.666 22.5 141.999
s34.666 80.666 60.999 111.999s58.5 55.833 96.5 73.5s81 26.5 129 26.5s91 -8.83301 129 -26.5s70.167 -42.167 96.5 -73.5s46.666 -68.666 60.999 -111.999s21.833 -90.666 22.5 -141.999c-0.666992 -58.667 -9.83398 -111 -27.501 -157s-42.834 -85 -75.501 -117l-129 89
l-11 -16zM480.003 419.002c0 28 -5.16699 49.5029 -15.5 64.5029s-26.166 22.5 -47.499 22.5c-18 0 -33.667 -7.5 -47 -22.5s-24.166 -33.667 -32.499 -56s-14.5 -46.833 -18.5 -73.5s-6 -51.334 -6 -74.001c0 -28 5.16699 -49.5 15.5 -64.5s26.166 -22.5 47.499 -22.5
c18 0 33.667 7.5 47 22.5s24.166 33.667 32.499 56s14.5 46.666 18.5 72.999s6 51.166 6 74.499zM237.003 6.00488c-30.667 8 -58.667 19.8311 -84 35.498s-47 35 -65 58s-32 49.833 -42 80.5s-15 65.334 -15 104.001c0 34.667 3 68.667 9 102s15 65 27 95s27 57.5 45 82.5
s38.667 46.5 62 64.5c-31.333 -34.667 -54.833 -75.5 -70.5 -122.5s-23.5 -97.5 -23.5 -151.5c0 -43.333 5.16699 -84.666 15.5 -123.999s25.666 -75 45.999 -107s45.333 -59.5 75 -82.5s63.834 -39.5 102.501 -49.5c-28.667 2.66699 -56 7.66699 -82 15zM433.003 -18.9971
c38 2.66699 72.5 10.333 103.5 23s58.5 29.667 82.5 51l51 -35l-192 -110zM662.003 638.002c30.667 -24 54.667 -54.501 72 -91.501s26 -81.5 26 -133.5c0 -36.667 -3.5 -70.667 -10.5 -102s-17.167 -62 -30.5 -92c12.667 40.667 19 85.667 19 135
c0 72 -14.167 137.5 -42.5 196.5s-69.833 104.5 -124.5 136.5c17.333 -5.33301 33.5 -12.166 48.5 -20.499s29.167 -17.833 42.5 -28.5zM708.003 42.001l-21 -12l-55 38c6 6 11.833 12.333 17.5 19s11.167 13.667 16.5 21z" />
    <glyph glyph-name="R" unicode="R" horiz-adv-x="712" 
d="M351 694c68 0 117.167 -14.167 147.5 -42.5s45.5 -67.833 45.5 -118.5c0 -31.333 -5.66699 -58.166 -17 -80.499s-26.333 -40.833 -45 -55.5s-40.167 -25.334 -64.5 -32.001s-49.833 -10 -76.5 -10h-267v108l41 231h236zM74 335l269.001 -0.00195312
c40.667 0 73.5 -4.16699 98.5 -12.5s44.167 -20.333 57.5 -36s22.166 -35 26.499 -58s6.5 -49.167 6.5 -78.5c0 -11.333 0.166992 -24.166 0.5 -38.499s1 -28.5 2 -42.5s2.5 -27.167 4.5 -39.5s4.66699 -22.166 8 -29.499h-182l-58 217h-2l-38 -217h-193v335z
M468.001 699.998c36 0 69.499 -3.66797 100.499 -11.001s58 -19 81 -35s41 -36.833 54 -62.5s19.5 -56.5 19.5 -92.5c0 -33.333 -4.33301 -62.5 -13 -87.5s-20.167 -47 -34.5 -66s-30.666 -35.333 -48.999 -49s-37.166 -25.5 -56.499 -35.5l97 -261h-98
c-3.33301 4.66699 -6 13 -8 25s-3.66699 25.333 -5 40s-2.33301 29.5 -3 44.5s-1 27.5 -1 37.5c0 28.667 -1.66699 54.334 -5 77.001s-10 42.334 -20 59.001s-24.333 30.167 -43 40.5s-43 17.5 -73 21.5v2c51.333 11.333 89.666 32.833 114.999 64.5s38 71.5 38 119.5
c-2 89.333 -39.667 145.666 -113 168.999h17zM449 462.997c0 15.333 -5 28.001 -15 38.001s-27.667 15 -53 15h-23l-21 -122h36c24.667 0 43.5 6.16699 56.5 18.5s19.5 29.166 19.5 50.499zM54 349.998v-350h-62z" />
    <glyph glyph-name="S" unicode="S" horiz-adv-x="677" 
d="M144 12c-63.333 14.667 -121.334 36.665 -174.001 65.998l108 189c56.667 -26.667 107.334 -45.834 152.001 -57.501s79.334 -17.5 104.001 -17.5c14 0 22.5 1.83301 25.5 5.5s4.5 8.16699 4.5 13.5c0 2 -0.666992 3.83301 -2 5.5s-4.33301 3.83398 -9 6.50098
s-11.834 5.83398 -21.501 9.50098l-39.5 14.5c-81.333 26.667 -140.166 57 -176.499 91s-54.5 74.333 -54.5 121c0 76 26.667 136.667 80 182c-9.33301 -13.333 -16.5 -28 -21.5 -44s-7.5 -34.333 -7.5 -55c0 -35.333 7 -63.833 21 -85.5s32.5 -39.167 55.5 -52.5
s49.167 -23.666 78.5 -30.999s59.333 -13.833 90 -19.5s60.667 -12 90 -19s55.5 -17 78.5 -30s41.5 -30 55.5 -51s21 -48.5 21 -82.5c0 -31.333 -6.83301 -57.833 -20.5 -79.5s-31.5 -39.5 -53.5 -53.5s-46.833 -24.167 -74.5 -30.5s-55.5 -9.5 -83.5 -9.5
c-38 0 -72.833 4.16699 -104.5 12.5s-59 21.833 -82 40.5s-40.833 42.834 -53.5 72.501s-19 65.834 -19 108.501h-20c0 -66.667 14.167 -119.334 42.5 -158.001s68.166 -65.334 119.499 -80.001c-38 3.33301 -74.333 9.33301 -109 18zM607.999 508.998
c-2.66699 51.333 -14.3301 92.3389 -34.9971 123.006s-48 53.667 -82 69c44 -6.66699 85.667 -17.5 125 -32.5s73.666 -31.167 102.999 -48.5l-113 -187c-36 21.333 -73.333 39 -112 53s-76 21 -112 21c-13.333 0 -22 -2 -26 -6s-6 -8.33301 -6 -13
c0 -2 0.666992 -4.16699 2 -6.5s4.5 -4.83301 9.5 -7.5s12 -5.83398 21 -9.50098s21.167 -7.83398 36.5 -12.501c78.667 -25.333 138 -54.833 178 -88.5s60 -74.5 60 -122.5c0 -34.667 -5.66699 -66.834 -17 -96.501s-27.666 -54.834 -48.999 -75.501
c9.33301 13.333 16.833 28.333 22.5 45s8.5 35.334 8.5 56.001c0 35.333 -7 64.333 -21 87s-32.5 41.167 -55.5 55.5s-49.167 25.5 -78.5 33.5s-59.333 15.333 -90 22s-60.667 13.667 -90 21s-55.5 17.166 -78.5 29.499s-41.5 28.166 -55.5 47.499s-21 44.666 -21 75.999
c0 32 7 58.5 21 79.5s31.833 37.833 53.5 50.5s45.667 21.5 72 26.5s52.166 7.5 77.499 7.5c32 0 62 -3.5 90 -10.5s52.167 -18.167 72.5 -33.5s36.666 -35.5 48.999 -60.5s19.166 -55.833 20.499 -92.5h20z" />
    <glyph glyph-name="T" unicode="T" horiz-adv-x="676" 
d="M355 694v-694h-205l84 476h-174l39 218h256zM522 476l-84 -476h-63v694h257v6h104l-40 -224h-174z" />
    <glyph glyph-name="U" unicode="U" horiz-adv-x="752" 
d="M594 266c0 -86 -19.668 -151.335 -59.001 -196.002s-100.333 -67 -183 -67s-143.667 22.333 -183 67s-59 110 -59 196v434h288l-70 -400c-2.66699 -13.333 -4 -26.666 -4 -39.999c0 -15.333 3.33301 -27.333 10 -36s19 -13 37 -13c21.333 0 36.333 6.33301 45 19
s15.334 32.334 20.001 59.001l72 411h86v-434zM724.999 298.998c-8 -46 -19 -86.834 -33 -122.501s-32 -66.167 -54 -91.5s-49 -45.666 -81 -60.999s-70.333 -25.333 -115 -30c56 14 98.667 43.5 128 88.5s44 106.167 44 183.5v434h182zM115.999 43.9971
c-54.667 36.667 -82 97.668 -82 183.001c0 28 3 58.667 9 92l47 267v-320c0 -74.667 13.667 -134.334 41 -179.001s67.333 -74.667 120 -90c-55.333 8 -100.333 23.667 -135 47z" />
    <glyph glyph-name="V" unicode="V" horiz-adv-x="740" 
d="M414 26l-2 0.000976562l-265 674h217l9 -156c0.666992 -8.66699 1.16699 -23.5 1.5 -44.5s0.5 -44.833 0.5 -71.5c0 -27.333 -0.166992 -55 -0.5 -83s-1.16602 -53.333 -2.49902 -76c10 35.333 22.167 74.666 36.5 117.999s32.166 91 53.499 143l70 170h138zM83 700.001
h44l275 -700h-222zM468 0.000976562h-44l266 700h121z" />
    <glyph glyph-name="W" unicode="W" horiz-adv-x="984" 
d="M491 122c0.666992 44 2.49902 85.667 5.49902 125s6.5 75 10.5 107l-27.5 -105.5c-10.333 -38.333 -23.166 -80.5 -38.499 -126.5l-40 -122h-83l206 689h2l210 -689h-247zM364.999 700l-7 -145c-2 -44 -4.33301 -85.833 -7 -125.5s-6.66699 -75.5 -12 -107.5
c6.66699 30.667 15.667 65.667 27 105l79 273h62l-202 -675h-2l-198 675h260zM750.999 25h-2l-205 675h151l-7 -145c-2 -44 -4.66699 -85.833 -8 -125.5s-7.66602 -75.5 -12.999 -107.5c7.33301 32 16.666 67.833 27.999 107.5l37 125.5l43 145h171zM83.999 700l207 -700
h-165zM763.999 0l202 700h88z" />
    <glyph glyph-name="X" unicode="X" horiz-adv-x="742" 
d="M820 700l-266 -347l146 -353h-41l-272 367l249 333h184zM398 0l-21.002 71c-6.66699 21.333 -12 41.833 -16 61.5s-6.66699 35.167 -8 46.5c-3.33301 -11.333 -10.166 -27 -20.499 -47s-22.166 -40.333 -35.499 -61l-45 -71h-142l263 351l261 -351h-236zM221.998 353
l-142 347h30l250 -333l-275 -367h-133zM372.998 383l-237.001 316.999h245l18 -62c6.66699 -22 11.834 -42.667 15.501 -62s5.83398 -34.666 6.50098 -45.999c2 5.33301 5.16699 12.5 9.5 21.5s9.16602 18.5 14.499 28.5l17 30.5c6 10.333 11.667 19.5 17 27.5l40 62h92z
" />
    <glyph glyph-name="Y" unicode="Y" horiz-adv-x="758" 
d="M519 239l-42 -239h-74v301l279 399h156zM231 239l-157 461h30l279 -399v-301h-194zM393 322l-263.998 377.999h251l18 -87c1.33301 -7.33301 3 -17.833 5 -31.5s3.83301 -28.167 5.5 -43.5s3.16699 -30.333 4.5 -45s2 -26.667 2 -36
c7.33301 22.667 16.666 46.334 27.999 71.001s25.666 53 42.999 85l48 87h124z" />
    <glyph glyph-name="Z" unicode="Z" horiz-adv-x="706" 
d="M101 20l499 667v13h157l-33 -192l-256 -216l-62.5 -52.5c-18.333 -15 -34.5 -27.167 -48.5 -36.5c9.33301 2 23.5 3.5 42.5 4.5s38.167 1.5 57.5 1.5h214l-37 -209h-26v20h-507zM-29 0l34 192l255 216l62.5 51.5c18.333 15 34.833 27.5 49.5 37.5
c-9.33301 -2 -23.5 -3.5 -42.5 -4.5s-38.167 -1.5 -57.5 -1.5h-194l35 203h467l-499 -667v-27h-110z" />
    <glyph glyph-name="bracketleft" unicode="[" horiz-adv-x="463" 
d="M-27 -110l142 810h401l-30 -175h-151l-82 -460h151l-30 -175h-401zM186 651v-718h113v20h-93v678h93v20h-113z" />
    <glyph glyph-name="backslash" unicode="\" horiz-adv-x="570" 
d="M281 -90l-227 880h267l227 -880h-267zM478 -17l-327 748h-20l327 -748h20z" />
    <glyph glyph-name="bracketright" unicode="]" horiz-adv-x="463" 
d="M-41 -110l30 175h151l82 460h-151l30 175h401l-142 -810h-401zM186 651v-20h93v-678h-93v-20h113v718h-113z" />
    <glyph glyph-name="asciicircum" unicode="^" horiz-adv-x="620" 
d="M345 680h-20l-162 -318h-140l246 338h236l126 -338h-124zM394 362l-42 138l-90 -138h-79l152 298l152 -298h-93z" />
    <glyph glyph-name="underscore" unicode="_" horiz-adv-x="500" 
d="M0 -200v168h500v-168h-500zM440 -125v50h-390v-50h390z" />
    <glyph glyph-name="grave" unicode="`" horiz-adv-x="500" 
d="M277 559l-176 216h312l60 -216h-196zM361 588h15l-125 144h-29z" />
    <glyph glyph-name="a" unicode="a" horiz-adv-x="581" 
d="M135 -11c-48 0 -84.3359 12.6641 -109.003 37.9971s-37 59 -37 101c0 36.667 6 67.834 18 93.501s27.667 46.5 47 62.5s41 27.667 65 35s48.333 11 73 11c24 0 47.5 -2.33301 70.5 -7s43.167 -11 60.5 -19l2 14c0.666992 3.33301 1 8.33301 1 15
c0 20.667 -7.33301 33.5 -22 38.5s-34 7.5 -58 7.5c-23.333 0 -44.333 -1.33301 -63 -4s-38.334 -6.66699 -59.001 -12c5.33301 46 22.833 81.333 52.5 106s70.834 37 123.501 37c34 0 61 -4.5 81 -13.5s35.167 -20.5 45.5 -34.5s16.833 -29.333 19.5 -46s4 -32.667 4 -48
c0 -19.333 -3.83301 -34.166 -11.5 -44.499s-19.667 -18 -36 -23s-37.166 -8.33301 -62.499 -10s-55.666 -3.5 -90.999 -5.5c-21.333 -1.33301 -42.666 -4.16602 -63.999 -8.49902s-40.333 -12 -57 -23s-30.167 -26.167 -40.5 -45.5s-15.5 -45 -15.5 -77
c0 -36 9.5 -65 28.5 -87s45.5 -37 79.5 -45c-17.333 -4 -32.333 -6 -45 -6zM449.997 206.997c0 -23.333 -3.99805 -46.1631 -11.998 -68.4961s-19.5 -42.5 -34.5 -60.5s-33.833 -33.167 -56.5 -45.5s-48.334 -20.166 -77.001 -23.499l5 26c-15.333 -10 -32.333 -19 -51 -27
c-24.667 1.33301 -45.334 5.66602 -62.001 12.999s-30.167 16.5 -40.5 27.5s-17.833 23.333 -22.5 37s-7 27.5 -7 41.5c0 35.333 7.5 62.166 22.5 80.499s34 31.666 57 39.999s48.5 13.166 76.5 14.499l81.5 4c26.333 1.33301 50.333 4.16602 72 8.49902
s37.167 13.5 46.5 27.5h2v-95zM177.999 528c18.667 2.66699 37.9951 4.66309 57.9951 5.99609s40.667 2 62 2c46.667 0 87 -2.66699 121 -8s62 -14 84 -26s38.167 -27.833 48.5 -47.5s15.5 -43.5 15.5 -71.5c0 -14.667 -0.666992 -29.167 -2 -43.5s-3 -27.833 -5 -40.5
l-50 -281c-10.667 0 -20 2.16699 -28 6.5s-12 13.5 -12 27.5v327c-0.666992 28 -5.66699 51.333 -15 70s-21.666 33.834 -36.999 45.501s-33.166 19.834 -53.499 24.501s-41.833 7 -64.5 7c-31.333 0 -58.666 -4.16699 -81.999 -12.5s-43.166 -19.666 -59.499 -33.999
s-29 -31.5 -38 -51.5s-14.5 -41.667 -16.5 -65l-15 148c11.333 3.33301 24.333 6.33301 39 9s31.334 5.33398 50.001 8.00098zM304.994 201.996c-13.333 7.33301 -27.666 11 -42.999 11c-13.333 0 -23.5 -5.5 -30.5 -16.5s-10.5 -23.833 -10.5 -38.5
c0 -11.333 3.16699 -19.5 9.5 -24.5s14.833 -7.5 25.5 -7.5c11.333 0 23.666 2 36.999 6zM447.994 116.996h2v-67c0 -16 3.83301 -27.833 11.5 -35.5s17.167 -12.5 28.5 -14.5h-169c33.333 10.667 60.833 26.667 82.5 48s36.5 44.333 44.5 69z" />
    <glyph glyph-name="b" unicode="b" horiz-adv-x="621" 
d="M148 256c0 38.667 4.83301 73.501 14.5 104.501s23.5 57.333 41.5 79s39.5 38.167 64.5 49.5s52.833 17 83.5 17h4c34.667 0 64.667 -7.5 90 -22.5s46 -34.333 62 -58s27.833 -50.334 35.5 -80.001s11.5 -59.5 11.5 -89.5c0 -33.333 -4.16699 -64.833 -12.5 -94.5
s-20.666 -56 -36.999 -79s-37 -41.167 -62 -54.5s-54.167 -20 -87.5 -20s-62.833 6.66699 -88.5 20s-47.334 31.333 -65.001 54s-31.167 49 -40.5 79s-14 61.667 -14 95zM99 649.001l29 9v-658h-143zM374 735.001l-37 -210c-50 -3.33301 -90.833 -19 -122.5 -47
s-53.167 -64 -64.5 -108l-2 294zM448 536.001c21.333 0 41.833 -4.16406 61.5 -12.4971s37 -21 52 -38s27 -38.333 36 -64s13.5 -55.834 13.5 -90.501c0 -70.667 -12 -132.834 -36 -186.501s-55.333 -93.5 -94 -119.5c30 23.333 53.167 55.166 69.5 95.499
s24.5 85.5 24.5 135.5c0 33.333 -4.16699 65.333 -12.5 96s-20.666 58 -36.999 82s-36.333 44 -60 60s-50.834 26 -81.501 30c18 8 39.333 12 64 12zM367 317.004c0 18 -3.5 30.666 -10.5 37.999s-17.167 11 -30.5 11c-7.33301 0 -13.333 -1.33301 -18 -4l-35 -196
c8.66699 -4.66699 18.334 -7 29.001 -7s20.167 5.33301 28.5 16s15.166 23.834 20.499 39.501s9.33301 32.667 12 51s4 35.5 4 51.5zM148 0.00292969v144c9.33301 -28 22.333 -53.167 39 -75.5s36.667 -40.833 60 -55.5l-2 -13h-97z" />
    <glyph glyph-name="c" unicode="c" horiz-adv-x="567" 
d="M347 284l0.00292969 20c0 22.667 -2.5 38.334 -7.5 47.001s-13.5 13 -25.5 13s-21.833 -6.33301 -29.5 -19s-14 -27.5 -19 -44.5s-8.5 -34.167 -10.5 -51.5s-3 -30.333 -3 -39c0 -18 3 -30.667 9 -38s14.667 -11 26 -11c9.33301 0 19 4.5 29 13.5s19.333 25.5 28 49.5
l175 -64c-7.33301 -47.333 -28.5 -84.5 -63.5 -111.5s-76.5 -40.5 -124.5 -40.5c-34 0 -64 6.5 -90 19.5s-47.667 30.5 -65 52.5s-30.5 47.333 -39.5 76s-13.5 58.667 -13.5 90c0 30 3.83301 60.5 11.5 91.5s20 59 37 84s39.5 45.333 67.5 61s62.667 23.5 104 23.5
c21.333 0 41.666 -3 60.999 -9s36.666 -15.167 51.999 -27.5s28.333 -27.833 39 -46.5s18 -40.334 22 -65.001h20c-3.33301 27.333 -10.833 51.5 -22.5 72.5s-26.167 38.5 -43.5 52.5s-37 24.667 -59 32s-45 11 -69 11c-41.333 0 -77 -7.66699 -107 -23
s-54.833 -35.833 -74.5 -61.5s-34.334 -55.5 -44.001 -89.5s-14.5 -69.333 -14.5 -106c0 -33.333 4.33301 -64.666 13 -93.999s21.5 -55.5 38.5 -78.5s38 -41.833 63 -56.5s53.833 -23.667 86.5 -27c-3.33301 -0.666992 -6.83301 -1 -10.5 -1h-10.5
c-39.333 0 -75.666 4.66699 -108.999 14s-62 23.333 -86 42s-42.833 42.167 -56.5 70.5s-20.5 61.166 -20.5 98.499c0 49.333 7.33301 93.833 22 133.5s35.334 73.5 62.001 101.5s58.667 49.5 96 64.5s78.666 22.5 123.999 22.5c83.333 0 145.166 -18.5 185.499 -55.5
s63.5 -90.833 69.5 -161.5z" />
    <glyph glyph-name="d" unicode="d" horiz-adv-x="621" 
d="M505 256c0 -33.333 -4.66797 -65.001 -14.001 -95.001s-22.833 -56.333 -40.5 -79s-39.5 -40.667 -65.5 -54s-55.333 -20 -88 -20c-33.333 0 -62.5 6.66699 -87.5 20s-45.667 31.333 -62 54s-28.666 49 -36.999 79s-12.5 61.667 -12.5 95c0 30 3.83301 59.833 11.5 89.5
s19.5 56.334 35.5 80.001s36.5 43 61.5 58s55.167 22.5 90.5 22.5c22.667 0 44 -3 64 -9l9 -3c42 -15.333 75 -43 99 -83s36 -91.667 36 -155zM673.999 734.999l-130 -735h-19v688zM251.999 535.999c23.333 0 43.999 -3.66602 61.999 -10.999
c-3.33301 0.666992 -6.16602 1 -8.49902 1h-8.5c-35.333 0 -66.666 -7.33301 -93.999 -22s-50.333 -34.334 -69 -59.001s-32.667 -53.334 -42 -86.001s-14 -67 -14 -103c0 -32 3.33301 -62 10 -90s16.5 -53.167 29.5 -75.5s29 -41.333 48 -57s40.5 -27.5 64.5 -35.5
c-17.333 -6 -36.333 -9 -57 -9c-21.333 0 -41.833 4.16699 -61.5 12.5s-37 21 -52 38s-27 38.333 -36 64s-13.5 55.834 -13.5 90.501c0 50.667 6.33301 97 19 139s30 78 52 108s47.667 53.333 77 70s60.666 25 93.999 25zM504.998 370h-2
c-9.33301 34.667 -24.833 64.5 -46.5 89.5s-49.167 43.167 -82.5 54.5l24 135l107 33v-312zM253.998 208c0 -18 3.50098 -30.666 10.501 -37.999s17.167 -11 30.5 -11c7.33301 0 13.333 1.33301 18 4l35 196c-8.66699 4.66699 -18.334 7 -29.001 7
c-11.333 0 -21 -5.33301 -29 -16s-14.667 -23.834 -20 -39.501s-9.33301 -32.667 -12 -51s-4 -35.5 -4 -51.5zM502.999 144.001l1.99902 0.000976562v-144h-134c32.667 11.333 60.334 29.666 83.001 54.999s39 55 49 89z" />
    <glyph glyph-name="e" unicode="e" horiz-adv-x="578" 
d="M518 253v14.0049c0 34 -4.5 66.5 -13.5 97.5s-22.667 58.5 -41 82.5s-41.666 43.167 -69.999 57.5s-61.833 21.5 -100.5 21.5c-29.333 0 -57.5 -6 -84.5 -18s-50.833 -29.5 -71.5 -52.5s-37.334 -51.167 -50.001 -84.5s-19 -71.333 -19 -114
c0 -34 3.33301 -65.833 10 -95.5s17 -56.334 31 -80.001s32 -43.334 54 -59.001s48.333 -25.834 79 -30.501c-81.333 9.33301 -140.333 34.166 -177 74.499s-55 93.833 -55 160.5c0 48.667 7.66699 92 23 130s37 70.333 65 97s61.333 47 100 61s81.667 21 129 21
c32.667 0 63.5 -4 92.5 -12s54.333 -21 76 -39s38.834 -41.333 51.501 -70s19 -63.334 19 -104.001c0 -15.333 -1 -32.833 -3 -52.5s-5 -38.167 -9 -55.5h-321c3.33301 -12.667 7.83301 -23 13.5 -31s13.167 -14.333 22.5 -19s21 -7.83398 35 -9.50098s30.667 -2.5 50 -2.5
c46.667 0 91.667 7.33301 135 22c-10.667 -51.333 -33.5 -90 -68.5 -116s-78.167 -39 -129.5 -39c-36.667 0 -67.667 6.33301 -93 19s-46 30 -62 52s-27.833 47.833 -35.5 77.5s-11.834 61.834 -12.501 96.501h430zM88 273.005c2 36 8.66992 68.3301 20.0029 96.9971
s26.166 53.167 44.499 73.5s39.666 35.833 63.999 46.5s50.5 16 78.5 16c33.333 0 62.666 -6.16699 87.999 -18.5s46.5 -29.166 63.5 -50.499s29.833 -46.166 38.5 -74.499s13 -58.166 13 -89.499h-410zM361.003 324.002c0 21.333 -3.66797 37.168 -11.001 47.501
s-20 15.5 -38 15.5c-19.333 0 -34.166 -5.83301 -44.499 -17.5s-17.833 -26.834 -22.5 -45.501h116z" />
    <glyph glyph-name="f" unicode="f" horiz-adv-x="384" 
d="M435 562c-16.667 8.66699 -31.6689 13 -45.002 13c-11.333 0 -19.666 -2.16699 -24.999 -6.5s-9.33301 -12.833 -12 -25.5l-4 -18h72l-29 -164h-66l-64 -361h-250l64 361h-52l29 164h52l11 59c10.667 55.333 31.334 94.5 62.001 117.5s71 34.5 121 34.5
c34 0 63.5 -2.83301 88.5 -8.5s49.167 -13.5 72.5 -23.5zM196.998 494l0.00195312 -494h20v494h111v20h-111v107c0 25.333 4.83301 43.833 14.5 55.5s30.5 17.5 62.5 17.5c7.33301 0 14.666 -0.333008 21.999 -1s15.666 -1.66699 24.999 -3v20
c-5.33301 0.666992 -11.5 1.5 -18.5 2.5s-15.167 1.5 -24.5 1.5c-11.333 0 -22.833 -0.666992 -34.5 -2s-22.5 -4.83301 -32.5 -10.5s-18.167 -14.167 -24.5 -25.5s-9.5 -27.333 -9.5 -48v-114h-88v-20h88z" />
    <glyph glyph-name="g" unicode="g" horiz-adv-x="621" 
d="M463 274c0 -31.333 -4.49902 -60.666 -13.499 -87.999s-22 -51.166 -39 -71.499s-38.333 -36.5 -64 -48.5s-54.834 -18 -87.501 -18c-31.333 0 -59 5.83301 -83 17.5s-44.167 27.667 -60.5 48s-28.666 44.166 -36.999 71.499s-12.5 57 -12.5 89
c0 31.333 4.16699 61 12.5 89s21 52.667 38 74s38 38.166 63 50.499s54.167 18.5 87.5 18.5c32 0 60.333 -6.5 85 -19.5s45.167 -30.333 61.5 -52s28.666 -46.5 36.999 -74.5s12.5 -56.667 12.5 -86zM564.001 109c-9.33301 -52 -22.8301 -95.5 -40.4971 -130.5
s-41.834 -64.833 -72.501 -89.5c22 32 33 74.667 33 128v497h-20v-137h-2c-6.66699 25.333 -17.834 48.5 -33.501 69.5s-34.834 38.167 -57.501 51.5l5 27h260zM464.004 17c0 -64.667 -16.8301 -111.835 -50.4971 -141.502s-81.834 -44.5 -144.501 -44.5
c-20 0 -39.333 2 -58 6s-35.5 10.333 -50.5 19s-28 19.834 -39 33.501s-18.833 29.834 -23.5 48.501c38 2 69 5.5 93 10.5s43.167 11.333 57.5 19s24.666 16.667 30.999 27s11.166 22.166 14.499 35.499c18.667 2.66699 37.167 7.83398 55.5 15.501s35 17.5 50 29.5
s28 26.167 39 42.5s18.833 34.5 23.5 54.5h2v-155zM247.007 6.99902c-21.333 -12 -45.998 -18.002 -73.998 -18.002c-21.333 0 -41.833 4.16699 -61.5 12.5s-37 21 -52 38s-27 38.333 -36 64s-13.5 55.834 -13.5 90.501c0 50.667 6.33301 97 19 139s30 78 52 108
s47.667 53.333 77 70s60.666 25 93.999 25c27.333 0 49.666 -4.33301 66.999 -13l16 -8c-22 7.33301 -44.667 11 -68 11c-36 0 -67.833 -6.66699 -95.5 -20s-50.834 -31.5 -69.501 -54.5s-32.667 -49.667 -42 -80s-14 -62.833 -14 -97.5c0 -33.333 4.5 -64.833 13.5 -94.5
s22.333 -55.667 40 -78s39.834 -40.166 66.501 -53.499s58 -20 94 -20h10.5c3.66699 0 7.5 0.333008 11.5 1l-15.5 -11c-5.66699 -4 -12.167 -7.66699 -19.5 -11zM254.009 207.997c0 -18 3.50098 -30.666 10.501 -37.999s17.167 -11 30.5 -11c7.33301 0 13.333 1.33301 18 4
l35 196c-8.66699 4.66699 -18.334 7 -29.001 7c-11.333 0 -21 -5.33301 -29 -16s-14.667 -23.834 -20 -39.501s-9.33301 -32.667 -12 -51s-4 -35.5 -4 -51.5z" />
    <glyph glyph-name="h" unicode="h" horiz-adv-x="649" 
d="M314 0l51 285.999c0.666992 4 1.16699 7.83301 1.5 11.5s0.5 7.16699 0.5 10.5c0 19.333 -10 29 -30 29c-13.333 0 -22.666 -3.33301 -27.999 -10s-9.66602 -18.667 -12.999 -36l-52 -291h-89v291c0 28 3.83301 54.667 11.5 80s19 47.833 34 67.5s33.667 35.5 56 47.5
s48.166 18.667 77.499 20c22.667 0 44.5 -3 65.5 -9s39.167 -15.667 54.5 -29s27.666 -30.666 36.999 -51.999s14 -47.333 14 -78v-338h-191zM135 -0.000976562h-151l115 649l36 11v-660zM393 521.999c26 9.33301 52.335 13.999 79.002 13.999c52 0 92.5 -11 121.5 -33
s43.5 -59.333 43.5 -112c-0.666992 -9.33301 -1.33398 -19.166 -2.00098 -29.499s-1.66699 -20.5 -3 -30.5l-58 -331h-49v341c0 50.667 -12.333 91.167 -37 121.5s-57.334 49.833 -98.001 58.5zM374.002 734.998l-37 -209c-49.333 -1.33301 -89.5 -15 -120.5 -41
s-50.833 -58.667 -59.5 -98h-2v279z" />
    <glyph glyph-name="i" unicode="i" horiz-adv-x="322" 
d="M234 557c-20.667 0 -39.834 2.00098 -57.501 6.00098s-33 9.66699 -46 17s-23.333 16.666 -31 27.999s-11.5 24.333 -11.5 39c0 32 12 58 36 78s59 30 105 30c20.667 0 39.834 -2.16699 57.501 -6.5s33 -10.5 46 -18.5s23.167 -17.5 30.5 -28.5s11 -23.5 11 -37.5
c0 -34 -13.167 -60.333 -39.5 -79s-59.833 -28 -100.5 -28zM-15 0.000976562l93 525h260l-93 -525h-260zM165 714.001h-20v-101h20v101zM165 514.001h-20v-514h20v514z" />
    <glyph glyph-name="j" unicode="j" horiz-adv-x="322" 
d="M161 514h-19.998v-582c0 -21.333 -1.83301 -38 -5.5 -50s-9.5 -20.833 -17.5 -26.5s-18.667 -9.16699 -32 -10.5s-29.666 -2 -48.999 -2v-20h4c-34 -6 -71 -9 -111 -9h-17l-45 159c20 2.66699 37.167 5.5 51.5 8.5s26.666 7.5 36.999 13.5s18.666 14.5 24.999 25.5
s11.166 25.5 14.499 43.5l81 461h260l-82 -468c-8 -48 -20.833 -87.167 -38.5 -117.5s-39.5 -54.833 -65.5 -73.5c6.66699 14 10 33.667 10 59v589zM234.002 557c-20.667 0 -39.834 2.00098 -57.501 6.00098s-33 9.66699 -46 17s-23.333 16.666 -31 27.999
s-11.5 24.333 -11.5 39c0 32 12 58 36 78s59 30 105 30c20.667 0 39.834 -2.16699 57.501 -6.5s33 -10.5 46 -18.5s23.167 -17.5 30.5 -28.5s11 -23.5 11 -37.5c0 -34 -13.167 -60.333 -39.5 -79s-59.833 -28 -100.5 -28zM161.002 714.001h-20v-101h20v101z" />
    <glyph glyph-name="k" unicode="k" horiz-adv-x="622" 
d="M583 0l-36 0.000976562l-253 318l236 196h-29l-355 -295v445l227 71l-54 -308l-11 -49c2.66699 6.66699 7.16699 15.167 13.5 25.5l20 31.5l19.5 28.5c6 8.33301 10.333 14.166 13 17.499l36 44h255l-166 -173zM279 304.001l239 -304h-201l-27 167l-22 -25l-24 -142h-98
v194zM78 649.001l48 9v-658h-162z" />
    <glyph glyph-name="l" unicode="l" horiz-adv-x="322" 
d="M376 735l-130 -735h-81v669zM-14 0l114 649l45 14v-663h-159z" />
    <glyph glyph-name="m" unicode="m" horiz-adv-x="943" 
d="M667 286c0.666992 4 1.16504 7.83398 1.49805 11.501s0.5 7.16699 0.5 10.5c0 19.333 -10 29 -30 29c-13.333 0 -22.666 -3.33301 -27.999 -10s-9.66602 -18.667 -12.999 -36l-52 -291h-47v326c0 24 3.66699 46.833 11 68.5s17.833 40.667 31.5 57s30.5 29.5 50.5 39.5
s42.667 15 68 15c28 0 51.167 -4 69.5 -12s33 -19.333 44 -34s18.667 -32.334 23 -53.001s6.5 -43.667 6.5 -69v-338h-187zM354.998 286.001c0.666992 4 1.16211 7.83301 1.49512 11.5s0.5 7.16699 0.5 10.5c0 19.333 -10 29 -30 29c-13.333 0 -22.666 -3.33301 -27.999 -10
s-9.66602 -18.667 -12.999 -36l-52 -291h-59v291c0 30.667 4.16699 59.167 12.5 85.5s20 49 35 68s33.333 34 55 45s45.834 16.5 72.501 16.5c26.667 -1.33301 48.334 -6.83301 65.001 -16.5s29.834 -22.5 39.501 -38.5s16.167 -34.333 19.5 -55s5 -42.667 5 -66v-330h-175z
M154.993 0.000976562h-171l93 525h246c-18 -2 -34.833 -6.83301 -50.5 -14.5s-30 -17.667 -43 -30s-24 -26.5 -33 -42.5s-15.5 -33 -19.5 -51h-2v127h-20v-514zM777.993 536.001c22 0 42.499 -2.83105 61.499 -8.49805s35.333 -14.5 49 -26.5s24.334 -27.333 32.001 -46
s11.5 -41 11.5 -67c0 -7.33301 -0.333008 -16 -1 -26s-1.66699 -18.667 -3 -26l-59 -336h-46v338c0 25.333 -2.16699 48.666 -6.5 69.999s-11.833 40.166 -22.5 56.499s-24.5 29.5 -41.5 39.5s-37.833 16.667 -62.5 20c24.667 8 54 12 88 12zM387.992 523.003
c22 8.66699 48.335 13.001 79.002 13.001c22 0 42.667 -2.5 62 -7.5s36.333 -12.167 51 -21.5c-42.667 -20.667 -70.334 -54.334 -83.001 -101.001h-2c-7.33301 30.667 -20.333 56 -39 76s-42.334 33.333 -71.001 40c0.666992 0 1 0.166992 1 0.5s0.333008 0.5 1 0.5h1z" />
    <glyph glyph-name="n" unicode="n" horiz-adv-x="649" 
d="M314 0l50.9961 286c0.666992 4 1.16699 7.83301 1.5 11.5s0.5 7.16699 0.5 10.5c0 19.333 -10 29 -30 29c-13.333 0 -22.666 -3.33301 -27.999 -10s-9.66602 -18.667 -12.999 -36l-52 -291h-119v291c0 28 3.66699 54.833 11 80.5s18.333 48.5 33 68.5
s32.834 36 54.501 48s46.834 18 75.501 18c24 0 46.667 -2.83301 68 -8.5s40 -15 56 -28s28.667 -30.333 38 -52s14 -48.167 14 -79.5v-338h-161zM392.996 522c12 5.33301 24.834 9 38.501 11s27.167 3 40.5 3c52 0 92.5 -11 121.5 -33s43.5 -59.333 43.5 -112
c-0.666992 -9.33301 -1.33398 -19.166 -2.00098 -29.499s-1.66699 -20.5 -3 -30.5l-58 -331h-79v341c0 46.667 -10.5 84.667 -31.5 114s-49.167 49.666 -84.5 60.999zM104.997 0l-121 0.000976562l93 525h213c-44.667 -4 -81 -18.833 -109 -44.5s-46 -56.834 -54 -93.501h-2
v127h-20v-514z" />
    <glyph glyph-name="o" unicode="o" horiz-adv-x="606" 
d="M288 -11c-40 0 -76.998 4.5 -110.998 13.5s-63.333 22.667 -88 41s-43.834 41.333 -57.501 69s-20.5 60.5 -20.5 98.5c0 43.333 6 84.666 18 123.999s30.5 73.833 55.5 103.5s57 53.334 96 71.001s85.167 26.5 138.5 26.5c36.667 0 71.667 -4 105 -12
s62.666 -21 87.999 -39s45.5 -41 60.5 -69s22.5 -62 22.5 -102c0 -52 -7.5 -98.167 -22.5 -138.5s-36 -74.333 -63 -102s-59.333 -48.667 -97 -63s-79.167 -21.5 -124.5 -21.5zM354.002 318c0 20 -3.16699 33.333 -9.5 40s-15.833 10 -28.5 10c-12 0 -22 -6.33301 -30 -19
s-14.5 -27.834 -19.5 -45.501s-8.5 -35.667 -10.5 -54s-3 -32.833 -3 -43.5c0 -20 3.16699 -33.333 9.5 -40s15.833 -10 28.5 -10c12 0 22 6.33301 30 19s14.5 27.834 19.5 45.501s8.5 35.5 10.5 53.5s3 32.667 3 44zM95.002 262c0 32 4.5 63 13.5 93s22.5 56.5 40.5 79.5
s40.167 41.5 66.5 55.5s56.833 21 91.5 21c34 0 64.167 -7 90.5 -21s48.5 -32.5 66.5 -55.5s31.5 -49.5 40.5 -79.5s13.5 -61 13.5 -93c0 -32.667 -4.5 -64 -13.5 -94s-22.5 -56.5 -40.5 -79.5s-40.167 -41.333 -66.5 -55s-56.5 -20.5 -90.5 -20.5
c-34.667 0 -65.167 6.83301 -91.5 20.5s-48.5 32 -66.5 55s-31.5 49.5 -40.5 79.5s-13.5 61.333 -13.5 94zM75.002 262c0 -35.333 5.00098 -69.166 15.001 -101.499s24.667 -61 44 -86s43.5 -44.833 72.5 -59.5s62.167 -22 99.5 -22c38 0 71.333 7.33301 100 22
s52.834 34.5 72.501 59.5s34.5 53.667 44.5 86s15 66.166 15 101.499c0 34.667 -5 68.334 -15 101.001s-24.833 61.334 -44.5 86.001s-43.834 44.5 -72.501 59.5s-61.667 22.5 -99 22.5c-38 0 -71.333 -7.5 -100 -22.5s-52.834 -34.833 -72.501 -59.5
s-34.5 -53.334 -44.5 -86.001s-15 -66.334 -15 -101.001z" />
    <glyph glyph-name="p" unicode="p" horiz-adv-x="621" 
d="M343 8c-13.333 0.666992 -26.1689 1.50098 -38.502 2.50098s-24.166 4.16699 -35.499 9.5l-19 8c-36 17.333 -64.167 45.333 -84.5 84s-30.5 87.334 -30.5 146.001c0 32.667 4.33301 63.667 13 93s21.5 55.166 38.5 77.499s37.833 40.5 62.5 54.5s52.667 21.667 84 23h19
c32 -1.33301 59.833 -9 83.5 -23s43.334 -32.167 59.001 -54.5s27.5 -48.333 35.5 -78s12 -60.5 12 -92.5c0 -30 -3.83301 -59.833 -11.5 -89.5s-19.5 -56.334 -35.5 -80.001s-36.667 -43 -62 -58s-55.333 -22.5 -90 -22.5zM76.9971 525.001h243
c-46.667 -4.66699 -85.667 -21.167 -117 -49.5s-53.333 -63.5 -66 -105.5h-2v144h-20v-655l-165 -52zM368.997 -10.999l-6.00195 0.000976562c32 2.66699 60.333 11.834 85 27.501s45.5 35.667 62.5 60s29.833 52.166 38.5 83.499s13 64 13 98
c0 34.667 -4.16699 67.167 -12.5 97.5s-20.166 57 -35.499 80s-34.333 42 -57 57s-48 24.833 -76 29.5c20 9.33301 42.333 14 67 14c21.333 0 41.833 -4.16699 61.5 -12.5s37 -21 52 -38s27 -38.333 36 -64s13.5 -55.834 13.5 -90.501c0 -50.667 -6.33301 -97 -19 -139
s-30 -78 -52 -108s-47.667 -53.333 -77 -70s-60.666 -25 -93.999 -25zM134.995 144.002l2 -0.000976562c8 -31.333 21.167 -58.666 39.5 -81.999s41.5 -41.333 69.5 -54l-20 -115l-91 -28v279zM366.995 317.001c0 18 -3.5 30.666 -10.5 37.999s-17.167 11 -30.5 11
c-7.33301 0 -13.333 -1.33301 -18 -4l-35 -196c8.66699 -4.66699 18.334 -7 29.001 -7s20.167 5.33301 28.5 16s15.166 23.834 20.499 39.501s9.33301 32.667 12 51s4 35.5 4 51.5z" />
    <glyph glyph-name="q" unicode="q" horiz-adv-x="621" 
d="M487 258c0 -79.333 -18.499 -140.499 -55.499 -183.499s-85.833 -65.167 -146.5 -66.5c-36 0 -67 7.16699 -93 21.5s-47.167 33.166 -63.5 56.499s-28.5 50 -36.5 80s-12 60.667 -12 92c0 32.667 4.16699 64 12.5 94s20.666 56.5 36.999 79.5s37 41.167 62 54.5
s54.167 20 87.5 20c32.667 0 62 -6.66699 88 -20s47.833 -31.333 65.5 -54s31.167 -49 40.5 -79s14 -61.667 14 -95zM487.001 370.001l-2 0.000976562c-9.33301 30 -23.5 56.667 -42.5 80s-42.5 41.666 -70.5 54.999l4 20h260l-112 -632l-17 -5v626h-20v-144z
M485.001 144.002h2v-262l-238 -75l32 181c54 0.666992 98.5 15.167 133.5 43.5s58.5 65.833 70.5 112.5zM252.001 536.002c27.333 0 49.668 -4.33398 67.001 -13.001c0.666992 -0.666992 1.66699 -1 3 -1c-7.33301 1.33301 -14.5 2.33301 -21.5 3s-14.167 1 -21.5 1
c-34 0 -64.5 -6.66699 -91.5 -20s-50 -32 -69 -56s-33.5 -52.333 -43.5 -85s-15 -68.334 -15 -107.001c0 -31.333 3.5 -61.166 10.5 -89.499s17.333 -54.166 31 -77.499s30.5 -43.333 50.5 -60s43.333 -28.334 70 -35.001c-14 -4.66699 -30.333 -7 -49 -7
c-21.333 0 -41.833 4.16699 -61.5 12.5s-37 21 -52 38s-27 38.333 -36 64s-13.5 55.834 -13.5 90.501c0 50.667 6.33301 97 19 139s30 78 52 108s47.667 53.333 77 70s60.666 25 93.999 25zM254.003 208.001c0 -18 3.50098 -30.666 10.501 -37.999s17.167 -11 30.5 -11
c7.33301 0 13.333 1.33301 18 4l35 196c-8.66699 4.66699 -18.334 7 -29.001 7c-11.333 0 -21 -5.33301 -29 -16s-14.667 -23.834 -20 -39.501s-9.33301 -32.667 -12 -51s-4 -35.5 -4 -51.5z" />
    <glyph glyph-name="r" unicode="r" horiz-adv-x="468" 
d="M134 291c0 26.667 3.83594 53 11.5029 79s19.167 49 34.5 69s35 36.167 59 48.5s52.667 18.5 86 18.5h9l-3 -16c13.333 10 30.166 20.167 50.499 30.5s45.833 15.5 76.5 15.5c10 0 20.5 -0.666992 31.5 -2s22.833 -3.33301 35.5 -6l-88 -228
c-10.667 8 -22.5 14.5 -35.5 19.5s-26.167 7.5 -39.5 7.5c-16.667 0 -31.834 -5.66699 -45.501 -17s-22.834 -30.333 -27.501 -57l-44 -253h-111v291zM77.0029 525l226.002 0.00195312c-25.333 -2 -47.333 -7.16699 -66 -15.5s-34.834 -18.833 -48.501 -31.5
s-24.834 -26.834 -33.501 -42.501s-15 -31.834 -19 -48.501h-2v127h-20v-514h-129z" />
    <glyph glyph-name="s" unicode="s" horiz-adv-x="518" 
d="M449 362c0 57.333 -16.665 98.9971 -49.998 124.997s-78.666 39 -135.999 39c-32 0 -59 -4 -81 -12s-40 -18.333 -54 -31s-24 -26.667 -30 -42s-9 -30 -9 -44c0 -24 3.5 -43.5 10.5 -58.5s17.667 -27.333 32 -37s32.666 -17.834 54.999 -24.501s48.833 -13.667 79.5 -21
l65 -16c21.333 -5.33301 40.166 -12.5 56.499 -21.5s29.666 -20.5 39.999 -34.5s15.5 -32.333 15.5 -55c0 -22 -5.16699 -40.667 -15.5 -56s-23.5 -27.833 -39.5 -37.5s-33.833 -16.667 -53.5 -21s-38.834 -6.5 -57.501 -6.5c-60 0 -106.167 13.333 -138.5 40
s-48.833 68.334 -49.5 125.001l37 -11c17.333 -5.33301 35.5 -9.66602 54.5 -12.999s36.167 -5 51.5 -5c13.333 0 20 5 20 15c0 3.33301 -1 6 -3 8s-6.66699 4.33301 -14 7c-36 12 -66.667 23.667 -92 35s-46 23.5 -62 36.5s-27.5 27.833 -34.5 44.5
s-10.5 36.334 -10.5 59.001c0 23.333 4.5 46.166 13.5 68.499s23.5 42.333 43.5 60s46.167 31.834 78.5 42.501s71.5 16 117.5 16s90.5 -4.5 133.5 -13.5s80.833 -20.833 113.5 -35.5l-87 -155c-11.333 6.66699 -24.166 13 -38.499 19s-28.666 11.167 -42.999 15.5
s-28.166 7.83301 -41.499 10.5s-25 4 -35 4c-13.333 0 -20 -5 -20 -15c0 -7.33301 5.33301 -12.333 16 -15c37.333 -12 68.833 -23.667 94.5 -35s46.334 -23.666 62.001 -36.999s27 -28.5 34 -45.5s10.5 -37.167 10.5 -60.5c0 -30.667 -5.83301 -58.334 -17.5 -83.001
s-31.167 -45.667 -58.5 -63c15.333 11.333 27.666 25.666 36.999 42.999s14 37.666 14 60.999c0 24.667 -4.83301 44.667 -14.5 60s-22.334 28 -38.001 38s-33.334 17.833 -53.001 23.5l-59.5 16.5l-74.5 18c-23 5.33301 -43 12 -60 20s-30.333 19 -40 33s-14.5 33 -14.5 57
c0 4.66699 1.33301 12.834 4 24.501s9 23.834 19 36.501s25.333 23.834 46 33.501s49 14.5 85 14.5c24.667 0 47.167 -2.66699 67.5 -8s37.833 -13.833 52.5 -25.5s26 -26.5 34 -44.5s12 -40 12 -66h20zM244.002 -11.0029c-58 0 -109.167 4.83301 -153.5 14.5
s-85.5 21.5 -123.5 35.5l76 153l11.5 -7l14.5 -9c0 -60.667 14.833 -106 44.5 -136s73.167 -47 130.5 -51z" />
    <glyph glyph-name="t" unicode="t" horiz-adv-x="446" 
d="M306 494v20h-116v156l208 65l-37 -210h108l-29 -164h-114l-26 -150c-0.666992 -2 -1 -5 -1 -9v-8c0 -20.667 13.667 -31 41 -31c12.667 0 24.5 0.833008 35.5 2.5s23.833 5.83398 38.5 12.501l-57 -175c-13.333 -4 -29.666 -7.33301 -48.999 -10s-40.666 -4 -63.999 -4
c-29.333 0 -56.333 2 -81 6s-46.334 11 -65.001 21s-33.167 23.667 -43.5 41s-15.5 39.666 -15.5 66.999c0 8 0.333008 16.833 1 26.5s1.66699 18.167 3 25.5l33 185h-52l29 164h52l22 125l43 13v-149h-95v-20h95v-398c0 -36.667 8.16699 -61.834 24.5 -75.501
s36.166 -20.5 59.499 -20.5c15.333 0 25.833 0.333008 31.5 1l17.5 2v20c-3.33301 -1.33301 -9 -2.16602 -17 -2.49902s-17 -0.5 -27 -0.5c-8 0 -16 0.5 -24 1.5s-15.333 4.16699 -22 9.5s-12.167 13.333 -16.5 24s-6.5 25.667 -6.5 45v394h116z" />
    <glyph glyph-name="u" unicode="u" horiz-adv-x="649" 
d="M505 514h-20v-291c0 -28 -3.66699 -54.5 -11 -79.5s-18.333 -47.167 -33 -66.5s-32.667 -35.166 -54 -47.499s-46.333 -19.5 -75 -21.5h-41c-19.333 2.66699 -37.166 8 -53.499 16s-30.666 18.667 -42.999 32s-22 30 -29 50s-10.5 43.333 -10.5 70v338h-20v-341
c0 -48 10.833 -86.667 32.5 -116s50.5 -49.333 86.5 -60c-20 -5.33301 -39.333 -8 -58 -8c-52 0 -92.5 11 -121.5 33s-43.5 59.333 -43.5 112c0 9.33301 0.333008 19.166 1 29.499s2 20.5 4 30.5l58 331h260l-51 -286c-0.666992 -4 -1.16699 -7.83301 -1.5 -11.5
s-0.5 -7.16699 -0.5 -10.5c0 -19.333 10 -29 30 -29c13.333 0 22.666 3.33301 27.999 10s9.66602 18.667 12.999 36l52 291h260l-93 -525h-66v514zM483 127l2 0.000976562v-127h-114c30 10.667 54.5 27.167 73.5 49.5s31.833 48.166 38.5 77.499z" />
    <glyph glyph-name="v" unicode="v" horiz-adv-x="598" 
d="M309 20h-2l-199 494h-24l212 -514h-173l-79 525h249l3 -183c0.666992 -24.667 0 -49.667 -2 -75l-5 -64c4 16.667 9 35.167 15 55.5s12.667 41.833 20 64.5l23.5 70l25.5 72l22 60h251l-263 -525h-62l194 514h-22z" />
    <glyph glyph-name="w" unicode="w" horiz-adv-x="792" 
d="M587 20l-2.00195 -0.00195312l-158 494h-31l-159 -494h-2l-153 494h-20l160 -514h-128l-47 525h231l-4 -185c-0.666992 -17.333 -1.66699 -33.666 -3 -48.999s-2.66602 -29.666 -3.99902 -42.999l59 205l24 72h188l-2 -72c-0.666992 -14 -1.5 -30.167 -2.5 -48.5l-3 -56
c-1 -19 -2.16699 -37.5 -3.5 -55.5s-2.66602 -33.333 -3.99902 -46c2.66699 12.667 6.5 27.667 11.5 45l16 53.5l17.5 55.5l17 51l25 73h229l-203 -525h-37l164 514h-20zM391.998 97.998c0 30.667 0.333008 59.332 1 85.999s2 55 4 85l-17.5 -56.5
c-6.33301 -20.333 -13 -40.666 -20 -60.999l-20.5 -59.5l-18 -51l-15 -41h-56l161 494h2l160 -494h-181v98z" />
    <glyph glyph-name="x" unicode="x" horiz-adv-x="614" 
d="M283 281l-173.002 233h-26l187 -248l-206 -266h-116l213 272l-110 253h256l14 -74l2.5 -15.5l3 -19.5c1 -6.66699 1.83301 -13.167 2.5 -19.5s1 -11.5 1 -15.5c4.66699 13.333 11.834 30.833 21.501 52.5s21.834 47.5 36.501 77.5l7 14h254l-198 -253l117 -272h-67
l-206 266l188 248h-24zM312.998 0l-19 89c-2 9.33301 -4 21.333 -6 36s-3.33301 27.667 -4 39c-2 -6 -5.5 -14.5 -10.5 -25.5l-16 -35l-17 -35.5c-5.66699 -11.333 -10.5 -20.333 -14.5 -27l-23 -41h-113l193 251l194 -251h-164z" />
    <glyph glyph-name="y" unicode="y" horiz-adv-x="598" 
d="M283 -185h-235l95 168l-93 542h251l2 -60c0.666992 -12.667 1 -25.167 1 -37.5v-37.5c0 -36 -0.666992 -70 -2 -102s-3.33301 -60.333 -6 -85c8 33.333 19.833 73.333 35.5 120l49.5 142l22 60h249zM304 27l-204.001 497.999l-22 -11l215 -509l-37 -96
c-6 -15.333 -12.5 -27.5 -19.5 -36.5s-15 -15.667 -24 -20s-19.833 -7 -32.5 -8s-27.334 -1.5 -44.001 -1.5v-20c14.667 0 28.834 0.5 42.501 1.5s26.334 3.83301 38.001 8.5s22.167 11.834 31.5 21.501s17.333 23.167 24 40.5l237 619h-21z" />
    <glyph glyph-name="z" unicode="z" horiz-adv-x="561" 
d="M121 20l360 469v25h-354v-20h333l-360 -469v-25h-121l25 145l257 215h-209l29 165h503l-25 -145l-253 -215h215l-26 -145h-374z" />
    <glyph glyph-name="braceleft" unicode="{" horiz-adv-x="510" 
d="M420 -111c-34.667 3.33301 -66.1709 6.66992 -94.5039 10.0029s-54.166 8 -77.499 14l-19 5c-1.33301 6.66699 -2 13.834 -2 21.501v25.5v162c0 38 -6.5 72.167 -19.5 102.5s-30.5 50.833 -52.5 61.5c12.667 5.33301 23.5 14 32.5 26s16.5 25.667 22.5 41
s10.333 31.333 13 48s4 32.334 4 47.001v192c26 21.333 58.833 36.666 98.5 45.999s87.834 14 144.501 14c28.667 0 60 -1 94 -3l-28 -159c-25.333 -1.33301 -45.5 -3.33301 -60.5 -6s-27.167 -7.33398 -36.5 -14.001s-16.666 -15.834 -21.999 -27.501
s-10.666 -26.834 -15.999 -45.501l-2 -7c-7.33301 -26.667 -14.5 -48.5 -21.5 -65.5s-14.833 -30.833 -23.5 -41.5s-19 -18.834 -31 -24.501s-26.667 -10.5 -44 -14.5c24 -9.33301 42.5 -21.166 55.5 -35.499s19.5 -36.5 19.5 -66.5c0 -12.667 -1 -26.334 -3 -41.001l-1 -7
c-2 -14 -3 -25.667 -3 -35c0 -10.667 1.66699 -19.5 5 -26.5s8.83301 -12.667 16.5 -17s18 -8 31 -11s29.5 -6.16699 49.5 -9.5zM138.996 -39.9961c-38.667 30 -57.998 72 -57.998 126c0 18 2 37.667 6 59l2 12c0.666992 2.66699 1 5.16699 1 7.5v6.5
c0 10.667 -3 18.167 -9 22.5s-16.667 6.5 -32 6.5h-43l34 196h43c8.66699 0 16 0.833008 22 2.5s11.333 5.16699 16 10.5s8.66699 13.5 12 24.5s6.66602 25.5 9.99902 43.5l2 11c5.33301 30 13 56 23 78s23 42 39 60v-156c0 -20 -1.66699 -39.667 -5 -59
s-8.16602 -36.666 -14.499 -51.999s-14 -28 -23 -38s-18.833 -16 -29.5 -18v-20c29.333 -19.333 48.666 -42.833 57.999 -70.5s14 -61.834 14 -102.501v-185c-26.667 10 -49.334 21.667 -68.001 35z" />
    <glyph glyph-name="bar" unicode="|" horiz-adv-x="344" 
d="M-41 -185l174 985h268l-174 -985h-36v971h-20v-971h-212z" />
    <glyph glyph-name="braceright" unicode="}" horiz-adv-x="510" 
d="M104 707c33.333 -2.66699 63.835 -5.83398 91.502 -9.50098s52.834 -8.16699 75.501 -13.5c3.33301 -16.667 5 -36.667 5 -60v-162c0 -38 6.5 -72.167 19.5 -102.5s30.5 -50.833 52.5 -61.5c-12.667 -5.33301 -23.5 -14 -32.5 -26s-16.5 -25.667 -22.5 -41
s-10.333 -31.333 -13 -48s-4 -32.334 -4 -47.001v-164c0 -7.33301 -0.166992 -14 -0.5 -20s-0.833008 -11.667 -1.5 -17l-14 -8c-25.333 -12.667 -55 -21.834 -89 -27.501s-73.667 -8.5 -119 -8.5c-28.667 0 -59.334 1 -92.001 3l28 159
c24.667 0.666992 44.5 2.33398 59.5 5.00098s27.333 7.33398 37 14.001s17.167 15.834 22.5 27.501s10.666 27.167 15.999 46.5l2 7c8 27.333 15.5 49.5 22.5 66.5s14.667 30.833 23 41.5s18.333 18.667 30 24s26.5 10 44.5 14c-24.667 8 -43.334 19.5 -56.001 34.5
s-19 37.5 -19 67.5c0 12 1 25.667 3 41l1 7c2 12.667 3 24 3 34c0 10.667 -1.66699 19.5 -5 26.5s-9 12.833 -17 17.5s-18.5 8.5 -31.5 11.5s-29.167 6.16699 -48.5 9.5zM384.002 637c38.667 -29.333 57.999 -71.999 57.999 -127.999
c0 -9.33301 -0.333008 -18.666 -1 -27.999s-2 -19.333 -4 -30l-2 -12c-0.666992 -2.66699 -1 -5.16699 -1 -7.5v-6.5c0 -10.667 3 -18.167 9 -22.5s16.667 -6.5 32 -6.5h43l-34 -196h-43c-8.66699 0 -16 -0.833008 -22 -2.5s-11.333 -5.16699 -16 -10.5
s-8.66699 -13.333 -12 -24s-6.66602 -25.334 -9.99902 -44.001l-2 -11c-13.333 -73.333 -41 -126 -83 -158v169c0 20 1.66699 39.667 5 59s8.16602 36.666 14.499 51.999s13.833 28 22.5 38s18.667 16 30 18v20c-29.333 18.667 -48.666 42 -57.999 70s-14 62.333 -14 103
v163c0 6.66699 -0.166992 13 -0.5 19s-0.833008 11.667 -1.5 17c36 -10 66 -23.667 90 -41z" />
    <glyph glyph-name="asciitilde" unicode="~" horiz-adv-x="582" 
d="M609 432c-24.667 -40 -46.8359 -73.166 -66.5029 -99.499s-38.167 -47.333 -55.5 -63s-34 -26.667 -50 -33s-33 -9.5 -51 -9.5c-20 0 -38 3.66699 -54 11s-30.333 15.333 -43 24l-35.5 24c-11 7.33301 -21.5 11 -31.5 11c-9.33301 0 -18.666 -3.83301 -27.999 -11.5
s-23 -24.167 -41 -49.5l-142 75c24 39.333 45.833 72.166 65.5 98.499s38.167 47.5 55.5 63.5s34 27.333 50 34s32.333 10 49 10c20.667 0 38.834 -3.66699 54.501 -11s29.834 -15.5 42.501 -24.5l36 -24.5c11.333 -7.33301 23 -11 35 -11
c4.66699 0 9.16699 0.833008 13.5 2.5s9 4.66699 14 9s10.667 10.5 17 18.5l23.5 31zM505.998 415.001l-18.0039 -26c-6 -8.66699 -12.5 -16.334 -19.5 -23.001s-14.667 -12.167 -23 -16.5s-17.5 -6.5 -27.5 -6.5c-13.333 0 -28.666 3.66699 -45.999 11l-54 23.5
c-18.667 8.33301 -37.667 16.166 -57 23.499s-37.666 11 -54.999 11c-31.333 0 -56.833 -8.16699 -76.5 -24.5s-36.167 -37.166 -49.5 -62.499l20 -6c12 21.333 25.667 38.833 41 52.5s34.333 20.5 57 20.5c24 0 45.833 -3.66699 65.5 -11s38 -15.166 55 -23.499l49 -23.5
c15.667 -7.33301 32.167 -11 49.5 -11c12.667 0 24.334 2.5 35.001 7.5s20.334 11.5 29.001 19.5s16.667 17.167 24 27.5s14.333 20.833 21 31.5z" />
    <glyph glyph-name="nonbreakingspace" unicode="&#xa0;" horiz-adv-x="175" 
 />
    <glyph glyph-name="exclamdown" unicode="&#xa1;" horiz-adv-x="360" 
d="M163 410v-410h-173l43 244l88 184h178l22 -184l-43 -244h-95v410h-20zM245 711c20.667 0 40 -2.49805 58 -7.49805s33.667 -12.333 47 -22s24 -21.834 32 -36.501s12 -31.334 12 -50.001c0 -23.333 -4.33301 -43.833 -13 -61.5s-20.5 -32.5 -35.5 -44.5
s-32.5 -21 -52.5 -27s-41.333 -9 -64 -9c-21.333 0 -41 2.5 -59 7.5s-33.667 12.167 -47 21.5s-23.833 21.166 -31.5 35.499s-11.5 30.5 -11.5 48.5c0 18.667 3.66699 36.834 11 54.501s18 33.167 32 46.5s31.333 24 52 32s44 12 70 12zM163 592.002v-98h20v98h-20z" />
    <glyph glyph-name="cent" unicode="&#xa2;" horiz-adv-x="552" 
d="M349 585c23.333 -0.666992 45.165 -4.16602 65.498 -10.499s38.333 -15.5 54 -27.5s28.667 -27.167 39 -45.5s17.5 -39.5 21.5 -63.5h20c-3.33301 26.667 -10.666 50.334 -21.999 71.001s-25.833 38 -43.5 52s-38 24.667 -61 32s-47.5 11.333 -73.5 12v88h-20v-88
c-35.333 -1.33301 -66.333 -9.83301 -93 -25.5s-48.834 -35.834 -66.501 -60.501s-31 -52.834 -40 -84.501s-13.5 -63.834 -13.5 -96.501c0 -34 4.33301 -67 13 -99s21.834 -60.5 39.501 -85.5s39.834 -45.167 66.501 -60.5s58 -23.666 94 -24.999v-68h-214l19 106
c-32.667 15.333 -58.667 38.833 -78 70.5s-29 72.5 -29 122.5c0 38 4.66699 73.5 14 106.5s22.5 62.5 39.5 88.5s37.333 48.333 61 67s50.167 33 79.5 43l17 96h254l-19 -109c32 -15.333 55.833 -38 71.5 -68s25.5 -67 29.5 -111l-215 -34v14c0 22 -2 37.667 -6 47l-4 8v138
zM328.999 88.001c-33.333 1.33301 -61.999 9.33496 -85.999 24.002s-44 33.667 -60 57s-27.833 49.666 -35.5 78.999s-11.5 59.333 -11.5 90c0 30 3.83301 59.5 11.5 88.5s19.5 55 35.5 78s36 41.833 60 56.5s52.667 22.667 86 24v-129h-2
c-11.333 0 -20.833 -5.33301 -28.5 -16s-14 -23.834 -19 -39.501s-8.66699 -32 -11 -49s-3.5 -31.5 -3.5 -43.5c0 -18 2.5 -31.333 7.5 -40s14.167 -13 27.5 -13c9.33301 0 18.666 4.66699 27.999 14l1 1v-182zM356 322.003l177 -70c-12 -42 -27.5 -74.167 -46.5 -96.5
s-38 -38.5 -57 -48.5s-36.167 -15.667 -51.5 -17s-25 -2 -29 -2v216zM349 0.00292969l0.00195312 68c5.33301 0 10.666 0.166992 15.999 0.5s10.666 0.833008 15.999 1.5l-12 -70h-20z" />
    <glyph glyph-name="sterling" unicode="&#xa3;" horiz-adv-x="690" 
d="M218 365c-6.66699 13.333 -14.1689 27.333 -22.502 42s-16.333 29.667 -24 45s-14 30.833 -19 46.5s-7.5 31.167 -7.5 46.5c0 40.667 10.667 73.167 32 97.5s48.333 42.166 81 53.499c0.666992 0 1.33398 0.333008 2.00098 1c15.333 3.33301 31.833 6.16602 49.5 8.49902
s36.5 3.83301 56.5 4.5c59.333 -3.33301 106.833 -22.166 142.5 -56.499s53.5 -83.166 53.5 -146.499v-13.5c0 -4.33301 -0.333008 -8.83301 -1 -13.5h20c0.666992 5.33301 1.16699 10.833 1.5 16.5s0.5 11.167 0.5 16.5c0 46 -10.167 85.5 -30.5 118.5
s-48.5 58.167 -84.5 75.5l33 -4c52 -8 99.833 -20.333 143.5 -37s80.167 -35.667 109.5 -57l-122 -180c-34 22 -71.667 41 -113 57s-84 24 -128 24c-14.667 0 -24.834 -2.33301 -30.501 -7s-8.5 -10.667 -8.5 -18c0 -8 3 -17 9 -27s12 -21.333 18 -34h153l-31 -175h-137
c-12 -18.667 -29 -37.667 -51 -57h335l-34 -192h-78c14 6.66699 28 15.834 42 27.501s29 26.5 45 44.5l-13 14l-36 -33c-11.333 -10 -23 -18.833 -35 -26.5s-24.667 -13.5 -38 -17.5s-28 -6 -44 -6c-15.333 0 -30.833 2.66699 -46.5 8l-48 17c-16.333 6 -33 11.667 -50 17
s-33.833 8 -50.5 8c-20.667 0 -39.667 -3.83301 -57 -11.5s-32.333 -16.167 -45 -25.5l-2 2c30.667 26 54.834 54.833 72.501 86.5s26.5 66.5 26.5 104.5c0 23.333 -2.16699 46.666 -6.5 69.999s-12.166 45.333 -23.499 66h149v20h-158zM34.998 249l31.001 175.001h59
c-6.66699 17.333 -13.834 33.666 -21.501 48.999s-11.5 32.666 -11.5 51.999c0 25.333 5.5 49 16.5 71s28.5 41.333 52.5 58c-24 -29.333 -36 -65.666 -36 -108.999c0 -15.333 2.5 -31 7.5 -47s11 -31.667 18 -47s14.5 -30.333 22.5 -45l22 -41h-66v-20h76
c10 -17.333 17.833 -38 23.5 -62s8.5 -48.667 8.5 -74c0 -40 -11.5 -77.333 -34.5 -112s-50.833 -66 -83.5 -94l2 -3h-146l27 149c26.667 13.333 48.667 28.333 66 45s31 35 41 55h-74zM261.999 33.001c19.333 0 38.001 -4 56.001 -12s37.667 -15 59 -21h-217
c16 10 32.167 18 48.5 24s34.166 9 53.499 9z" />
    <glyph glyph-name="currency" unicode="&#xa4;" horiz-adv-x="668" 
d="M336 455c-12.667 0 -25.334 -2.16699 -38.001 -6.5s-24.167 -11 -34.5 -20s-18.666 -20.167 -24.999 -33.5s-9.5 -29 -9.5 -47s3.16699 -33.667 9.5 -47s14.666 -24.5 24.999 -33.5s21.833 -15.667 34.5 -20s25.334 -6.5 38.001 -6.5s25.334 2.16699 38.001 6.5
s24.167 11 34.5 20s18.666 20.167 24.999 33.5s9.5 29 9.5 47s-3.16699 33.667 -9.5 47s-14.666 24.5 -24.999 33.5s-21.833 15.667 -34.5 20s-25.334 6.5 -38.001 6.5zM469 139c-31.333 -28 -75.6689 -42.001 -133.002 -42.001c-28 0 -53.833 3.33301 -77.5 10
s-43.167 16.667 -58.5 30l-60 -58l-75 75l60 58c-10 14 -19.167 33.667 -27.5 59s-12.5 52.333 -12.5 81c0 27.333 4.33301 52.833 13 76.5s17.667 41.834 27 54.501l-60 57l78 76l57 -56c12 10 30.667 19 56 27s52 12 80 12s54 -4 78 -12s42.333 -17 55 -27l58 56l76 -75
l-58 -58c10.667 -12.667 20.334 -31.334 29.001 -56.001s13 -51 13 -79c0 -26.667 -4.16699 -52.667 -12.5 -78s-18.166 -44.666 -29.499 -57.999l58 -58l-75 -75zM532.997 349.999c0 -27.333 -5.33301 -53 -16 -77s-25 -45 -43 -63s-39.167 -32.333 -63.5 -43
s-50.166 -16 -77.499 -16s-53 5.33301 -77 16s-45 25 -63 43s-32.333 39 -43 63s-16 49.667 -16 77s5.33301 53.166 16 77.499s25 45.5 43 63.5s39 32.333 63 43s49.667 16 77 16s53.166 -5.33301 77.499 -16s45.5 -25 63.5 -43s32.333 -39.167 43 -63.5
s16 -50.166 16 -77.499zM479.997 508.999c-20.667 19.333 -43.333 33.832 -68 43.499s-51 14.5 -79 14.5c-26 0 -51.5 -4.83301 -76.5 -14.5s-48.167 -24.167 -69.5 -43.5l-50 50l-12 -12l50 -50c-19.333 -20.667 -33.833 -43.5 -43.5 -68.5s-14.5 -51.167 -14.5 -78.5
c0 -26 4.83301 -51.5 14.5 -76.5s24.167 -48.167 43.5 -69.5l-50 -50l12 -12l50 50c21.333 -19.333 44.5 -33.833 69.5 -43.5s50.5 -14.5 76.5 -14.5c56 0 105 19.333 147 58l50 -50l12 12l-50 50c19.333 21.333 33.833 44.5 43.5 69.5s14.5 50.5 14.5 76.5
c0 28 -4.83301 54.333 -14.5 79s-24.167 47.334 -43.5 68.001l50 50l-12 12z" />
    <glyph glyph-name="yen" unicode="&#xa5;" horiz-adv-x="758" 
d="M397 305h127v20h-116l228 375h203l-290 -409h145l-35 -197h-175l-16 -94h-71v183h147v20h-147v102zM216 94h-175l35 197h149l-150 409h64l229 -375h-118v-20h127v-102h-147v-20h147v-183h-177zM381 700l18 -86.999c5.33301 -28 9.83301 -53.333 13.5 -76
s5.5 -43.667 5.5 -63v-17c6.66699 21.333 15.5 44.666 26.5 69.999s25.167 54 42.5 86l48 87h79l-225 -369h-2l-226 369h220z" />
    <glyph glyph-name="brokenbar" unicode="&#xa6;" horiz-adv-x="222" 
d="M35 660h66v-310h-66v310zM121 660h67v-310h-67v310zM35 220h66v-310h-66v310zM121 220h67v-310h-67v310z" />
    <glyph glyph-name="section" unicode="&#xa7;" horiz-adv-x="718" 
d="M168 447c-6 16 -8.99805 33.6689 -8.99805 53.002c0 12.667 1.16699 26.167 3.5 40.5s6.16602 28.5 11.499 42.5s12.166 27 20.499 39s18.166 22 29.499 30c-4 -8.66699 -7.16699 -17.834 -9.5 -27.501s-3.5 -20.5 -3.5 -32.5c0 -28 5.5 -50.333 16.5 -67
s23.167 -30.667 36.5 -42c-14 -5.33301 -27.5 -12.5 -40.5 -21.5s-24.5 -19.5 -34.5 -31.5s-18.167 -25.333 -24.5 -40s-9.5 -30 -9.5 -46c0 -14 1.16699 -27.333 3.5 -40s7.33301 -25.5 15 -38.5s18.5 -26.333 32.5 -40s33 -28.5 57 -44.5l93.5 -59.5
c32.333 -19.667 59.833 -37.5 82.5 -53.5c18 -12.667 32.167 -24 42.5 -34s18.333 -19.833 24 -29.5s9.33398 -19.667 11.001 -30s2.5 -22.166 2.5 -35.499c0 -17.333 -5.5 -32.333 -16.5 -45s-25.667 -23.334 -44 -32.001s-39.333 -15 -63 -19s-47.834 -6 -72.501 -6h-16
c-32 12.667 -54.333 32.834 -67 60.501s-19 61.5 -19 101.5h-20v-10c0 -68.667 20 -118.334 60 -149.001c-90.667 10 -168.667 39.667 -234 89l105 153c34 -22.667 67.5 -40.334 100.5 -53.001s62.5 -19 88.5 -19c9.33301 0 15.333 1.83301 18 5.5s4 8.16699 4 13.5
c0 2 -1.16699 4.33301 -3.5 7s-6.83301 6 -13.5 10s-16.167 8.66699 -28.5 14l-48.5 20c-37.333 14 -69.666 27.833 -96.999 41.5s-50 28 -68 43s-31.333 31 -40 48s-13 36.167 -13 57.5c0 45.333 12.333 81.833 37 109.5s58 50.167 100 67.5zM540.002 540.002
c0 42 -8.50195 77.5 -25.502 106.5s-40.833 50.167 -71.5 63.5c54 -3.33301 102 -12.333 144 -27s81.333 -36 118 -64l-105 -153c-34 22.667 -67.5 40.334 -100.5 53.001s-62.5 19 -88.5 19c-9.33301 0 -15.333 -1.83301 -18 -5.5s-4 -8.16699 -4 -13.5
c0 -2 1.16699 -4.33301 3.5 -7s6.83301 -6 13.5 -10s16.167 -8.66699 28.5 -14l48.5 -20c36.667 -14 68.667 -27.833 96 -41.5s50 -28 68 -43s31.5 -31 40.5 -48s13.5 -36.167 13.5 -57.5c0 -45.333 -12.333 -81.833 -37 -109.5s-58 -50.167 -100 -67.5
c6 -16 9 -33.667 9 -53c0 -44.667 -11.667 -84 -35 -118c0 3.33301 0.166992 6.83301 0.5 10.5s0.5 7.16699 0.5 10.5c0 18 -4 36.167 -12 54.5s-23.667 37.166 -47 56.499c10 2.66699 21.833 8 35.5 16s26.5 17.833 38.5 29.5s22.167 25.167 30.5 40.5s12.5 32 12.5 50
c0 19.333 -2.33301 37 -7 53s-13.5 32 -26.5 48s-30.667 32.833 -53 50.5s-51.5 37.834 -87.5 60.501c-19.333 12 -40.166 23.5 -62.499 34.5s-43.166 23.333 -62.499 37s-35.333 29.667 -48 48s-19 40.833 -19 67.5c0 20.667 4.66699 38 14 52s21 25.167 35 33.5
s28.833 14.166 44.5 17.499s29.834 5 42.501 5c50 0 87.667 -14.5 113 -43.5s38.666 -69.5 39.999 -121.5h20zM577 199.002c0 -17.333 -4.16602 -33.168 -12.499 -47.501s-18.5 -26.833 -30.5 -37.5s-24.667 -19.167 -38 -25.5s-25 -10.5 -35 -12.5l-40 27l-48 31.5
l-50.5 32.5l-47.5 30c-23.333 14.667 -41.666 28.834 -54.999 42.501s-23.333 26.334 -30 38.001s-10.834 22.5 -12.501 32.5s-2.5 18.667 -2.5 26c0 20.667 4.16699 39 12.5 55s18.333 29.333 30 40s23.5 19.167 35.5 25.5s21.667 10.5 29 12.5
c62 -36.667 112.167 -67.334 150.5 -92.001s68.166 -46.667 89.499 -66s35.833 -37.5 43.5 -54.5s11.5 -36.167 11.5 -57.5zM459.001 205c10 8.66699 15 18.333 15 29c0 4 -1.16699 8.16699 -3.5 12.5s-7.5 9.16602 -15.5 14.499s-19.5 11.5 -34.5 18.5
s-34.833 15.167 -59.5 24.5l-47.5 19c-14.333 6 -27.833 12.667 -40.5 20c-10 -9.33301 -15 -19 -15 -29c0 -4 1.16699 -8.16699 3.5 -12.5s7.5 -9.16602 15.5 -14.499s19.333 -11.5 34 -18.5s34.667 -15.167 60 -24.5l47.5 -19c14.333 -6 27.833 -12.667 40.5 -20z" />
    <glyph glyph-name="dieresis" unicode="&#xa8;" horiz-adv-x="500" 
d="M457 551c-16.667 0 -32.1621 3.00195 -46.4951 9.00195s-27 14.333 -38 25s-19.667 23 -26 37s-9.5 29 -9.5 45c0 18.667 4 36.167 12 52.5s18.667 30.666 32 42.999s28.666 22.166 45.999 29.499s35.666 11 54.999 11c16 0 31.167 -2.83301 45.5 -8.5
s26.666 -13.667 36.999 -24s18.666 -22.333 24.999 -36s9.5 -28.5 9.5 -44.5s-3.5 -32.167 -10.5 -48.5s-16.667 -31.333 -29 -45s-27.333 -24.667 -45 -33s-36.834 -12.5 -57.501 -12.5zM168.005 551.002c-16.667 0 -32.1621 3.00195 -46.4951 9.00195s-27 14.333 -38 25
s-19.667 23 -26 37s-9.5 29 -9.5 45c0 18.667 4 36.167 12 52.5s18.667 30.666 32 42.999s28.666 22.166 45.999 29.499s35.666 11 54.999 11c16 0 31.167 -2.83301 45.5 -8.5s26.666 -13.667 36.999 -24s18.666 -22.333 24.999 -36s9.5 -28.5 9.5 -44.5
s-3.5 -32.167 -10.5 -48.5s-16.667 -31.333 -29 -45s-27.333 -24.667 -45 -33s-36.834 -12.5 -57.501 -12.5zM413.01 614.004v81h-20v-81h20zM117.01 614.004v81h-20v-81h20z" />
    <glyph glyph-name="copyright" unicode="&#xa9;" horiz-adv-x="836" 
d="M820 351c0 -54 -9.83301 -103.167 -29.5 -147.5s-46.667 -82.333 -81 -114s-74.666 -56.334 -120.999 -74.001s-96.5 -26.5 -150.5 -26.5s-104.167 8.66699 -150.5 26s-86.5 41.833 -120.5 73.5s-60.667 69.5 -80 113.5s-29 93 -29 147s9.83301 103.167 29.5 147.5
s46.667 82.333 81 114s74.666 56.334 120.999 74.001s96.5 26.5 150.5 26.5s104.167 -8.66699 150.5 -26s86.5 -41.833 120.5 -73.5s60.667 -69.5 80 -113.5s29 -93 29 -147zM743 349c0 46.667 -7.66699 88.167 -23 124.5s-36.666 66.833 -63.999 91.5
s-59.5 43.334 -96.5 56.001s-77.5 19 -121.5 19s-84.5 -6.33301 -121.5 -19s-69 -31.167 -96 -55.5s-48 -54.5 -63 -90.5s-22.5 -77.333 -22.5 -124c0 -47.333 7.66699 -89 23 -125s36.666 -66.333 63.999 -91s59.5 -43.334 96.5 -56.001s77.5 -19 121.5 -19
s84.5 6.33301 121.5 19s69 31.167 96 55.5s48 54.5 63 90.5s22.5 77.333 22.5 124zM622 283c-4 -13.333 -9.83398 -27.5 -17.501 -42.5s-18.334 -28.833 -32.001 -41.5s-30.667 -23 -51 -31s-45.166 -12 -74.499 -12c-26 0 -50.833 3.66699 -74.5 11s-44.5 19 -62.5 35
s-32.333 36.5 -43 61.5s-16 55.167 -16 90.5c0 34.667 5.33301 64.667 16 90s25 46 43 62s39 27.833 63 35.5s49.333 11.5 76 11.5c52 0 91 -12.167 117 -36.5s43.333 -61.5 52 -111.5l-135 -35c-2.66699 28 -7 46.667 -13 56s-14.667 14 -26 14
c-14 0 -24 -8.16699 -30 -24.5s-9 -36.833 -9 -61.5c0 -23.333 2.83301 -43.333 8.5 -60s15.834 -25 30.501 -25c20.667 0 35.667 19 45 57zM106.999 350c0 44.667 8.5 86.667 25.5 126s40.167 73.833 69.5 103.5s63.666 53 102.999 70s81.333 25.5 126 25.5
s86.667 -8.5 126 -25.5s73.833 -40.333 103.5 -70s53 -64.167 70 -103.5s25.5 -81.333 25.5 -126s-8.5 -86.667 -25.5 -126s-40.333 -73.666 -70 -102.999s-64.167 -52.5 -103.5 -69.5s-81.333 -25.5 -126 -25.5s-86.667 8.5 -126 25.5s-73.666 40.167 -102.999 69.5
s-52.5 63.666 -69.5 102.999s-25.5 81.333 -25.5 126zM88.999 350c0 -47.333 9 -91.666 27 -132.999s42.5 -77.5 73.5 -108.5s67.167 -55.5 108.5 -73.5s85.666 -27 132.999 -27s91.833 9 133.5 27s78 42.5 109 73.5s55.5 67.167 73.5 108.5s27 85.666 27 132.999
s-9 91.833 -27 133.5s-42.5 78 -73.5 109s-67.333 55.5 -109 73.5s-86.167 27 -133.5 27s-91.666 -9 -132.999 -27s-77.5 -42.5 -108.5 -73.5s-55.5 -67.333 -73.5 -109s-27 -86.167 -27 -133.5zM578.999 404c-5.33301 38 -21.168 66.665 -47.501 85.998s-57.5 29 -93.5 29
c-26 0 -49.167 -4.33301 -69.5 -13s-37.5 -20.667 -51.5 -36s-24.833 -33.5 -32.5 -54.5s-11.5 -44.167 -11.5 -69.5c0 -24.667 3.83301 -47.667 11.5 -69s18.834 -40 33.501 -56s32.334 -28.5 53.001 -37.5s43.667 -13.5 69 -13.5c35.333 0 65.166 11 89.499 33
s40.833 50.667 49.5 86h-16c-8 -34 -23.5 -59.833 -46.5 -77.5s-48.5 -26.5 -76.5 -26.5c-24 0 -45.333 4.16699 -64 12.5s-34.5 19.833 -47.5 34.5s-23 31.834 -30 51.501s-10.5 40.834 -10.5 63.501c0 22 3.33301 42.667 10 62s16.5 36 29.5 50s28.667 25 47 33
s39.5 12 63.5 12c30 0 57 -8.16699 81 -24.5s38.667 -41.5 44 -75.5h16z" />
    <glyph glyph-name="ordfeminine" unicode="&#xaa;" horiz-adv-x="496" 
d="M448 344c-6.66699 -1.33301 -11.3271 -2.00195 -13.9941 -2.00195c-5.33301 0 -10 1.5 -14 4.5s-6 8.5 -6 16.5v190c-1.33301 33.333 -13 56.5 -35 69.5s-49.333 19.5 -82 19.5c-32 0 -57.833 -6 -77.5 -18s-33.834 -28.667 -42.501 -50c-14.667 -2 -28 -5 -40 -9
l-12 124c25.333 7.33301 52 12.833 80 16.5s62 5.5 102 5.5c30.667 0 58.667 -2 84 -6s47.166 -11.167 65.499 -21.5s32.666 -24.166 42.999 -41.499s15.5 -39 15.5 -65c0 -6.66699 -0.333008 -13.667 -1 -21s-1.66699 -15 -3 -23l-45 -257h-196l4 25
c-18.667 -10 -37.334 -18.167 -56.001 -24.5s-37.667 -9.5 -57 -9.5c-38 0 -66.5 11 -85.5 33s-28.5 51 -28.5 87c0 42 10.667 76.5 32 103.5s51.333 44.167 90 51.5v-4h20c0 5.33301 2.66699 8 8 8h14c19.333 0 38.166 -1.33301 56.499 -4s34.166 -6.33398 47.499 -11.001
l1 3c1.33301 6.66699 2 11.667 2 15c0 12 -5.16699 20.167 -15.5 24.5s-28.5 6.5 -54.5 6.5c-8 0 -15.833 -0.166992 -23.5 -0.5s-15.167 -0.833008 -22.5 -1.5c16.667 29.333 48.334 44 95.001 44c34 0 58.667 -6 74 -18s23 -33 23 -63c0 -16 -6 -26.833 -18 -32.5
s-27.167 -9.16699 -45.5 -10.5s-38.166 -2.16602 -59.499 -2.49902s-41.166 -3 -59.499 -8s-33.5 -14 -45.5 -27s-18 -32.833 -18 -59.5c0 -15.333 3.16699 -28.166 9.5 -38.499s14.666 -19 24.999 -26s22.166 -12 35.499 -15s27.333 -4.5 42 -4.5
c36 0 65.167 6.5 87.5 19.5s37.166 30.5 44.499 52.5v7h2v-41c0 -11.333 3.5 -19.333 10.5 -24s15.167 -7 24.5 -7h19v20zM394.007 453.998c0 -32.667 -11.335 -60.333 -34.002 -83s-56 -34 -100 -34c-11.333 0 -22.5 1.16699 -33.5 3.5s-20.833 6 -29.5 11
s-15.667 11.5 -21 19.5s-8 18 -8 30c0 19.333 4.83301 34.166 14.5 44.499s22.167 17.833 37.5 22.5s32 7.5 50 8.5l52 3c16.667 1 31.334 2.83301 44.001 5.5s21.334 8.33398 26.001 17.001h2v-48zM299.005 439.999c-5.33301 2 -10.168 3.66699 -14.501 5
s-9.16602 2 -14.499 2c-12 0 -20.333 -4.16699 -25 -12.5s-7 -17.5 -7 -27.5c0 -16.667 9 -25 27 -25c5.33301 0 9.33301 0.5 12 1.5s7 2.16699 13 3.5z" />
    <glyph glyph-name="guillemotleft" unicode="&#xab;" horiz-adv-x="722" 
d="M386 0l-40 263l132 262h270l-132 -262l40 -263h-270zM58 0l-40 263l132 262h270l-132 -262l40 -263h-270zM500 146l-83 112l83 112v35l-103 -139v-16l103 -139v35zM169 146l-83 112l83 112v35l-103 -139v-16l103 -139v35z" />
    <glyph glyph-name="logicalnot" unicode="&#xac;" horiz-adv-x="600" 
d="M477 129h20v267h-449v54h505v-342h-153v189h-352v79h429v-247z" />
    <glyph glyph-name="registered" unicode="&#xae;" horiz-adv-x="836" 
d="M820 351c0 -54 -9.83301 -103.167 -29.5 -147.5s-46.667 -82.333 -81 -114s-74.666 -56.334 -120.999 -74.001s-96.5 -26.5 -150.5 -26.5s-104.167 8.66699 -150.5 26s-86.5 41.833 -120.5 73.5s-60.667 69.5 -80 113.5s-29 93 -29 147s9.83301 103.167 29.5 147.5
s46.667 82.333 81 114s74.666 56.334 120.999 74.001s96.5 26.5 150.5 26.5s104.167 -8.66699 150.5 -26s86.5 -41.833 120.5 -73.5s60.667 -69.5 80 -113.5s29 -93 29 -147zM91 352c0 -48 9 -93 27 -135s42.833 -78.833 74.5 -110.5s68.5 -56.5 110.5 -74.5s87 -27 135 -27
s93 9 135 27s78.833 42.833 110.5 74.5s56.5 68.5 74.5 110.5s27 87 27 135s-9 93 -27 135s-42.833 78.833 -74.5 110.5s-68.5 56.5 -110.5 74.5s-87 27 -135 27s-93 -9 -135 -27s-78.833 -42.833 -110.5 -74.5s-56.5 -68.5 -74.5 -110.5s-27 -87 -27 -135zM110 352
c0 45.333 8.5 87.833 25.5 127.5s40.333 74.334 70 104.001s64.334 53.167 104.001 70.5s82.5 26 128.5 26c45.333 0 87.833 -8.66699 127.5 -26s74.334 -40.833 104.001 -70.5s53.167 -64.334 70.5 -104.001s26 -82.167 26 -127.5c0 -46 -8.66699 -88.833 -26 -128.5
s-40.833 -74.334 -70.5 -104.001s-64.334 -53 -104.001 -70s-82.167 -25.5 -127.5 -25.5c-46 0 -88.833 8.5 -128.5 25.5s-74.334 40.333 -104.001 70s-53 64.334 -70 104.001s-25.5 82.5 -25.5 128.5zM743 349c0 46.667 -7.66699 88.167 -23 124.5
s-36.666 66.833 -63.999 91.5s-59.5 43.334 -96.5 56.001s-77.5 19 -121.5 19s-84.5 -6.33301 -121.5 -19s-69 -31.167 -96 -55.5s-48 -54.5 -63 -90.5s-22.5 -77.333 -22.5 -124c0 -47.333 7.66699 -89 23 -125s36.666 -66.333 63.999 -91s59.5 -43.334 96.5 -56.001
s77.5 -19 121.5 -19s84.5 6.33301 121.5 19s69 31.167 96 55.5s48 54.5 63 90.5s22.5 77.333 22.5 124zM314 324v191.002h119c16 0 31.5 -1.33301 46.5 -4s28.167 -7.5 39.5 -14.5s20.5 -16.667 27.5 -29s10.5 -28.5 10.5 -48.5c0 -21.333 -4.5 -38.333 -13.5 -51
s-20.333 -22.334 -34 -29.001s-28.667 -10.834 -45 -12.501s-31.833 -2.5 -46.5 -2.5h-104zM268 552.002l194.999 0.00195312c22 0 42.833 -2 62.5 -6s36.667 -10.833 51 -20.5s25.833 -22.834 34.5 -39.501s13 -37.667 13 -63c0 -31.333 -6.33301 -55.333 -19 -72
s-27.667 -30.334 -45 -41.001l81 -143h-85l-91 140c14.667 1.33301 28.834 4.5 42.501 9.5s25.667 12 36 21s18.5 20.333 24.5 34s9 29.5 9 47.5c0 36.667 -11.5 65.167 -34.5 85.5s-58.833 30.5 -107.5 30.5h-141v-368h-26v385zM474.999 167.004l-56.001 119v-119h-105v137
h113h8c2.66699 0 5.33398 0.333008 8.00098 1l89 -138h-57zM475.998 417.004c0 22.667 -14 34 -42 34h-15v-67h15c28 0 42 11 42 33z" />
    <glyph glyph-name="macron" unicode="&#xaf;" horiz-adv-x="567" 
d="M150 562l30 173h426l-30 -173h-426zM495 660h-232v-20h232v20z" />
    <glyph glyph-name="degree" unicode="&#xb0;" horiz-adv-x="526" 
d="M539 471c0 -36 -6.33301 -68.833 -19 -98.5s-29.834 -55.167 -51.501 -76.5s-47.334 -37.833 -77.001 -49.5s-61.5 -17.5 -95.5 -17.5s-65.833 5.83301 -95.5 17.5s-55.334 28.167 -77.001 49.5s-38.834 46.833 -51.501 76.5s-19 62.5 -19 98.5
c0 34.667 6.33301 66.667 19 96s29.834 54.666 51.501 75.999s47.334 38 77.001 50s61.5 18 95.5 18s65.833 -6 95.5 -18s55.334 -28.667 77.001 -50s38.834 -46.666 51.501 -75.999s19 -61.333 19 -96zM376 471c0 28 -7.5 49.667 -22.5 65s-34.167 23 -57.5 23
s-42.5 -7.66699 -57.5 -23s-22.5 -37 -22.5 -65c0 -30 7.5 -52.5 22.5 -67.5s34.167 -22.5 57.5 -22.5s42.5 7.5 57.5 22.5s22.5 37.5 22.5 67.5z" />
    <glyph glyph-name="plusminus" unicode="&#xb1;" horiz-adv-x="646" 
d="M458 230v-185h-238v185h-177v228h177v185h238v-185h177v-228h-177zM327 357h-242v-20h242v-243h20v243h242v20h-242v243h-20v-243zM44.8887 -284.57l34.2217 192.992h511.773l-34.2217 -192.992h-511.773zM165.443 -191.965h314.997v15.5635h-314.997v-15.5635z" />
    <glyph glyph-name="twosuperior" unicode="&#xb2;" horiz-adv-x="468" 
d="M59.8115 311.562c1.54199 16.9561 8.67285 32.6631 21.3945 47.1152c12.7217 14.4512 28.0449 28.5176 45.9697 42.1982c17.9258 13.6807 37.2012 27.3613 57.8252 41.042s39.6094 28.2285 56.9561 43.6436c17.3477 15.415 31.8037 31.8896 43.3691 49.4248
c11.5645 17.5342 17.3467 37.2842 17.3467 59.25c0 17.7275 -3.18066 33.1426 -9.54102 46.2451s-14.9375 24.0859 -25.7314 32.9502c-10.7939 8.86328 -23.6123 15.5107 -38.4541 19.9434c-14.8408 4.43164 -30.5498 6.64746 -47.127 6.64746
c-33.9238 0 -61.1016 -7.90039 -81.5322 -23.7012c-20.4316 -15.7998 -33.9238 -38.1514 -40.4775 -67.0547l-21.3955 58.3838c26.9854 13.1025 55.416 23.6045 85.292 31.5049s64.4746 11.8506 103.796 11.8506c57.8252 0 101.387 -8.28613 130.685 -24.8574
s43.9473 -42.3916 43.9473 -77.4609c0 -18.498 -2.2168 -34.4912 -6.65039 -47.9795c-4.43262 -13.4883 -12.335 -25.8203 -23.707 -36.9961s-26.8887 -21.8701 -46.5498 -32.083c-19.6602 -10.2119 -44.7178 -21.4844 -75.1719 -33.8164
c-10.4082 -4.23926 -19.1787 -8.09277 -26.3105 -11.5615c-7.13184 -3.46777 -13.2998 -6.74316 -18.5039 -9.82617s-9.83008 -6.2627 -13.8779 -9.53906c-4.04785 -3.27539 -8.19141 -6.83984 -12.4316 -10.6943h193.134l-20.2383 -116.19h-38.7422v11.5615h-253.272z
M-22.8789 300.003c7.70996 38.5381 18.4062 71.8711 32.0908 100.003c13.6846 28.1328 30.4541 52.4111 50.3076 72.8359c19.8525 20.4248 43.0791 37.8633 69.6787 52.3154c26.5986 14.4512 56.667 27.2646 90.2051 38.4414
c13.1074 4.23926 21.3955 7.51465 24.8652 9.82617c3.46973 2.3125 5.2041 5.58789 5.2041 9.82715c0 3.08301 -2.69824 5.29883 -8.0957 6.64746s-12.7217 2.02246 -21.9736 2.02246c-20.8164 0 -42.9824 -2.50488 -66.498 -7.51465s-47.9951 -14.0664 -73.4375 -27.1689
l-11.5645 30.6377c1.54199 15.0293 5.01172 28.71 10.4092 41.042s12.7217 22.9297 21.9736 31.7939s20.624 15.7051 34.1162 20.5225s29.2979 7.22559 47.416 7.22559c15.4199 0 29.876 -2.02344 43.3691 -6.06934c13.4922 -4.04688 25.0566 -10.0205 34.6943 -17.9199
c9.6377 -7.90039 17.251 -17.7275 22.8408 -29.4814s8.38477 -25.3389 8.38477 -40.7539c0 -21.5811 -5.97559 -40.8496 -17.9258 -57.8066c-11.9502 -16.9561 -26.9844 -32.7559 -45.1025 -47.3994c-18.1182 -14.6445 -37.5859 -28.8076 -58.4023 -42.4883
c-20.8174 -13.6807 -40.2852 -27.8428 -58.4033 -42.4863c-18.1182 -14.6445 -33.1523 -30.3486 -45.1025 -47.1123s-17.9258 -35.7432 -17.9258 -56.9395h-71.124z" />
    <glyph glyph-name="threesuperior" unicode="&#xb3;" horiz-adv-x="475" 
d="M74.8223 315.121c-37.9521 11.0215 -70.9668 28.3164 -99.0508 51.8789l79.6982 93.4912c19.7354 -14.4414 40.6084 -25.2725 62.6201 -32.4941c22.0117 -7.2207 44.4033 -10.8311 67.1748 -10.8311c14.4209 0 24.5732 1.90039 30.4561 5.70117
c5.88184 3.7998 8.82324 8.93066 8.82324 15.3916c0 5.32031 -2.56152 9.50098 -7.68457 12.541c-5.12402 3.04004 -14.3271 4.56055 -27.6104 4.56055h-76.2832l18.2168 104.893h66.6055c12.1445 0 20.873 1.04492 26.1865 3.13574s7.96973 6.55664 7.96973 13.3975
c0 6.46094 -4.45898 11.4014 -13.3779 14.8223c-8.91895 3.41992 -20.5889 5.12988 -35.0098 5.12988c-15.9404 0 -31.8799 -2.08984 -47.8193 -6.27051s-33.5869 -10.2617 -52.9424 -18.2432l-7.40039 15.3916c2.27637 34.2041 14.2314 59.667 35.8643 76.3887
c21.6318 16.7217 49.9053 25.083 84.8203 25.083c13.6631 0 26.9463 -1.4248 39.8496 -4.27539s24.4785 -7.60156 34.7256 -14.2529s18.5967 -15.2969 25.0479 -25.9375c6.45215 -10.6416 9.86816 -23.7529 10.248 -39.334c0 -15.9619 -3.03613 -29.3584 -9.1084 -40.1895
s-14.042 -19.5723 -23.9092 -26.2236s-20.9678 -11.4023 -33.3027 -14.2529c-12.334 -2.85059 -24.7627 -4.27539 -37.2871 -4.27539h-27.8945v-11.4014h27.8945c15.9395 -0.759766 30.6455 -3.04004 44.1182 -6.84082c13.4736 -3.80078 25.2383 -9.50098 35.2949 -17.1016
c10.0576 -7.60156 17.8379 -17.293 23.3408 -29.0742s8.25391 -26.0332 8.25391 -42.7549s-3.32031 -31.4482 -9.96191 -44.1797s-15.4658 -23.4678 -26.4727 -32.209c-11.0059 -8.74121 -23.7197 -15.2969 -38.1406 -19.667
c-14.4219 -4.37012 -29.4131 -6.55566 -44.9727 -6.55566c-19.3555 0 -37.0029 2.4707 -52.9434 7.41113c-15.9395 4.94043 -29.6016 12.2559 -40.9873 21.9463c-11.3857 9.69141 -20.21 21.5684 -26.4727 35.6299c-6.26172 14.0615 -9.39258 30.4033 -9.39258 49.0254
v5.98535c0 2.09082 0.189453 4.27637 0.569336 6.55664h-11.3857c-0.379883 -2.28027 -0.569336 -4.46582 -0.569336 -6.55664v-5.98535c0 -18.6221 2.94141 -35.249 8.82422 -49.8809c5.88184 -14.6318 14.041 -27.1738 24.4775 -37.626
c10.4365 -10.4512 23.0557 -18.8125 37.8564 -25.083c14.8018 -6.27051 31.3105 -10.166 49.5273 -11.6865c-17.0781 0.760742 -33.7773 2.37598 -50.0967 4.8457c-16.3193 2.4707 -32.4482 5.7959 -48.3877 9.97656zM75.3945 688.519
c19.7344 7.60059 40.2256 13.3027 61.4785 17.1035c21.2529 3.7998 45.3525 5.7002 72.2988 5.7002c58.0654 0 102.185 -8.74121 132.356 -26.2227c30.1709 -17.4824 45.2568 -42.9453 45.2568 -76.3896c0 -25.083 -6.16699 -45.7002 -18.501 -61.8525
c-12.335 -16.1514 -30.0771 -28.0273 -53.2275 -35.6279c17.0791 -6.84082 30.2676 -16.1523 39.5654 -27.9336s13.9473 -26.793 13.9473 -45.0352c0 -17.8623 -3.13086 -34.6797 -9.39258 -50.4521c-6.2627 -15.7725 -15.751 -29.834 -28.4648 -42.1846
c-12.7139 -12.3516 -28.748 -22.4229 -48.1035 -30.2139s-42.127 -12.8271 -68.3135 -15.1074c15.1807 1.90039 29.5078 5.7959 42.9805 11.6865c13.4727 5.8916 25.2373 13.5879 35.2949 23.0889s17.9326 20.8076 23.625 33.9189
c5.69238 13.1123 8.53906 27.8389 8.53906 44.1807c0 16.7217 -2.56152 31.1631 -7.68457 43.3242c-5.12402 12.1611 -11.9551 22.3271 -20.4941 30.498s-18.2168 14.4414 -29.0332 18.8115c-10.8164 4.37109 -21.917 7.12695 -33.3027 8.2666v1.13965
c23.9092 2.28027 43.7393 11.0215 59.4893 26.2236s23.625 36.4844 23.625 63.8477c0 17.1025 -3.41602 31.7344 -10.2471 43.8955s-15.9395 22.042 -27.3252 29.6426c-11.3857 7.60156 -24.3838 13.1123 -38.9951 16.5322
c-14.6113 3.4209 -29.5078 5.13086 -44.6885 5.13086c-34.915 0 -63.7578 -7.79102 -86.5283 -23.373c-22.7705 -15.5811 -37.1924 -38.9541 -43.2646 -70.1182l-29.0332 64.418l19.0703 8.83594c6.2627 2.85059 12.6201 5.60547 19.0723 8.26562z" />
    <glyph glyph-name="acute" unicode="&#xb4;" horiz-adv-x="500" 
d="M327 559h-196l136 216h312zM312 732l-132 -144h15l146 144h-29z" />
    <glyph glyph-name="mu" unicode="&#xb5;" horiz-adv-x="648" 
d="M149 519l133 0.000976562l-58 -271c-3.33301 -13.333 -5.5 -24.333 -6.5 -33s-1.5 -16.667 -1.5 -24c0 -14.667 5.83301 -26 17.5 -34s24.834 -12 39.501 -12c22 0 39.333 5.33301 52 16s22.5 24.167 29.5 40.5s12.333 34 16 53s7.5 36.833 11.5 53.5l45 211h22v-249
c0 -24.667 -3.33301 -48 -10 -70s-16.834 -41.5 -30.501 -58.5s-30.5 -30.5 -50.5 -40.5s-43 -15 -69 -15c-19.333 0 -37.333 2.66699 -54 8s-31.5 13.833 -44.5 25.5s-23.167 26.667 -30.5 45s-11 40.166 -11 65.499v289zM517 0.000976562h-192.004l16 66
c-17.333 -25.333 -35.666 -44.833 -54.999 -58.5s-41.666 -20.5 -66.999 -20.5c-9.33301 0 -17.166 0.833008 -23.499 2.5s-14.166 5.16699 -23.499 10.5l-35 -168h-198l145 687h49v-591h17v221c14.667 -30 34 -50.833 58 -62.5s51 -17.5 81 -17.5
c44 0 79.333 11.333 106 34s44 51 52 85l2 -109h17v440h159z" />
    <glyph glyph-name="mu" unicode="&#x3bc;" horiz-adv-x="648" 
d="M149 519l133 0.000976562l-58 -271c-3.33301 -13.333 -5.5 -24.333 -6.5 -33s-1.5 -16.667 -1.5 -24c0 -14.667 5.83301 -26 17.5 -34s24.834 -12 39.501 -12c22 0 39.333 5.33301 52 16s22.5 24.167 29.5 40.5s12.333 34 16 53s7.5 36.833 11.5 53.5l45 211h22v-249
c0 -24.667 -3.33301 -48 -10 -70s-16.834 -41.5 -30.501 -58.5s-30.5 -30.5 -50.5 -40.5s-43 -15 -69 -15c-19.333 0 -37.333 2.66699 -54 8s-31.5 13.833 -44.5 25.5s-23.167 26.667 -30.5 45s-11 40.166 -11 65.499v289zM517 0.000976562h-192.004l16 66
c-17.333 -25.333 -35.666 -44.833 -54.999 -58.5s-41.666 -20.5 -66.999 -20.5c-9.33301 0 -17.166 0.833008 -23.499 2.5s-14.166 5.16699 -23.499 10.5l-35 -168h-198l145 687h49v-591h17v221c14.667 -30 34 -50.833 58 -62.5s51 -17.5 81 -17.5
c44 0 79.333 11.333 106 34s44 51 52 85l2 -109h17v440h159z" />
    <glyph glyph-name="paragraph" unicode="&#xb6;" horiz-adv-x="720" 
d="M339 669c-70.667 0 -125.502 -16.668 -164.502 -50.001s-58.5 -82 -58.5 -146c0 -26 5.33301 -50.5 16 -73.5s25.834 -43.167 45.501 -60.5s43 -31 70 -41s57.167 -15 90.5 -15v-468h-95l71 403h-22c-34.667 0 -66.667 5 -96 15s-54.5 24.167 -75.5 42.5
s-37.5 40.666 -49.5 66.999s-18 55.833 -18 88.5c0 44.667 7.5 83.834 22.5 117.501s35.833 61.834 62.5 84.501s57.834 39.5 93.501 50.5s74.5 16.5 116.5 16.5h411l-156 -885h-62v521l40 227h-40v106h-202zM357.998 -185.001v834h163v-132l-124 -702h-39z
M448.998 -185.001l72 408v-408h-72z" />
    <glyph glyph-name="periodcentered" unicode="&#xb7;" horiz-adv-x="360" 
d="M185 213c-44 0 -79 11.835 -105 35.502s-39 55.5 -39 95.5c0 25.333 4.16699 48.666 12.5 69.999s20 39.666 35 54.999s32.833 27.333 53.5 36s43.334 13 68.001 13c44 0 79.5 -11.667 106.5 -35s40.5 -55 40.5 -95c0 -25.333 -4.33301 -48.666 -13 -69.999
s-20.834 -39.833 -36.501 -55.5s-34 -27.834 -55 -36.501s-43.5 -13 -67.5 -13zM167 370.002c0 -9.33301 3 -17 9 -23s13.667 -9 23 -9s17 3 23 9s9 13.667 9 23s-3 17 -9 23s-13.667 9 -23 9s-17 -3 -23 -9s-9 -13.667 -9 -23z" />
    <glyph glyph-name="cedilla" unicode="&#xb8;" horiz-adv-x="500" 
d="M190 -203c-38.667 0 -72.502 4.49902 -101.502 13.499s-55.5 20.5 -79.5 34.5l40 60c20 -10.667 38.5 -19.167 55.5 -25.5s35.167 -9.5 54.5 -9.5c13.333 0 22.5 1.83301 27.5 5.5s7.5 8.83398 7.5 15.501c0 11.333 -7.66699 17 -23 17
c-7.33301 0 -14.166 -1.33301 -20.499 -4s-11.833 -5.33398 -16.5 -8.00098l-33 26l49 78h76l-24 -38c12 3.33301 24.333 5 37 5c24.667 0 45.334 -5.66699 62.001 -17s25 -28.333 25 -51c0 -33.333 -13.167 -58.666 -39.5 -75.999s-58.5 -26 -96.5 -26zM92.998 -170.001
c9.33301 -4.66699 20.9971 -8.83301 34.9971 -12.5s29 -5.5 45 -5.5c26.667 0 48.834 7.16699 66.501 21.5s26.5 33.166 26.5 56.499c0 20.667 -7.33301 35.834 -22 45.501s-32.667 14.5 -54 14.5c-13.333 0 -24.333 -2 -33 -6l41 56h-20l-57 -73l15 -10
c14.667 8.66699 32.667 13 54 13c11.333 0 23 -2.83301 35 -8.5s18 -17.167 18 -34.5c0 -15.333 -6.33301 -28.333 -19 -39s-29.667 -16 -51 -16c-13.333 0 -25.666 1.5 -36.999 4.5s-22.666 7.16699 -33.999 12.5z" />
    <glyph glyph-name="onesuperior" unicode="&#xb9;" horiz-adv-x="370" 
d="M72.7129 300l43.998 250.277h-71.9971l16.5703 92.5684c23.999 1.52441 44.5703 7.14355 61.7129 16.8574c17.1416 9.71387 30.2842 23.1426 39.4268 40.2852h138.282l-70.2842 -399.988h-157.709zM189.28 299.999h11.4277v388.56h-12.5713
c-8 -9.14258 -15.7139 -17.333 -23.1426 -24.5703c-7.42773 -7.23828 -15.1416 -13.7148 -23.1416 -19.4287s-16.5713 -10.8564 -25.7139 -15.4277s-19.6182 -8.76172 -31.4277 -12.5713v-11.4277c19.4287 5.33301 38.5713 13.999 57.4277 25.999
c18.8564 11.999 34.1895 26.1895 45.999 42.5703h1.14258v-373.703z" />
    <glyph glyph-name="ordmasculine" unicode="&#xba;" horiz-adv-x="502" 
d="M275 268c-32 0 -61.5 4 -88.5 12s-50.333 20 -70 36s-35 35.667 -46 59s-16.5 50.333 -16.5 81c0 34.667 5.5 67.334 16.5 98.001s27.167 57.667 48.5 81s47.666 41.833 78.999 55.5s67 20.5 107 20.5c32 0 61.5 -4 88.5 -12s50.333 -20 70 -36s35 -35.667 46 -59
s16.5 -50.333 16.5 -81c0 -34.667 -5.5 -67.334 -16.5 -98.001s-27.167 -57.667 -48.5 -81s-47.666 -41.833 -78.999 -55.5s-67 -20.5 -107 -20.5zM330 532c0 28.667 -9.33301 43 -28 43c-9.33301 0 -17.333 -4.66699 -24 -14s-12 -20.666 -16 -33.999s-7 -27.333 -9 -42
s-3 -27.334 -3 -38.001c0 -28.667 9.33301 -43 28 -43c9.33301 0 17.333 4.66699 24 14s12 20.666 16 33.999s7 27.333 9 42s3 27.334 3 38.001zM160 491c0 17.333 3 34.5 9 51.5s14.5 32.167 25.5 45.5s24.667 24 41 32s34.833 12 55.5 12s39 -4 55 -12
s29.5 -18.667 40.5 -32s19.5 -28.5 25.5 -45.5s9 -34.167 9 -51.5c0 -18 -3 -35.667 -9 -53s-14.5 -32.666 -25.5 -45.999s-24.5 -24.166 -40.5 -32.499s-34.333 -12.5 -55 -12.5s-39.167 4.16699 -55.5 12.5s-30 19.166 -41 32.499s-19.5 28.666 -25.5 45.999s-9 35 -9 53z
M140 491c0 -21.333 3.33594 -41.833 10.0029 -61.5s16.334 -37.167 29.001 -52.5s28.334 -27.5 47.001 -36.5s40 -13.5 64 -13.5c24.667 0 46.5 4.5 65.5 13.5s34.833 21.167 47.5 36.5s22.167 32.833 28.5 52.5s9.5 40.167 9.5 61.5c0 20.667 -3.16699 40.834 -9.5 60.501
s-15.833 36.834 -28.5 51.501s-28.334 26.5 -47.001 35.5s-40.334 13.5 -65.001 13.5s-46.334 -4.5 -65.001 -13.5s-34.334 -20.833 -47.001 -35.5s-22.334 -31.834 -29.001 -51.501s-10 -39.834 -10 -60.501z" />
    <glyph glyph-name="guillemotright" unicode="&#xbb;" horiz-adv-x="722" 
d="M572 0h-270l132 263l-40 262h270l40 -262zM244 0h-270l132 263l-40 262h270l40 -262zM220 375l83 -112l-83 -112v-35l103 139v16l-103 139v-35zM549 375l83 -112l-83 -112v-35l103 139v16l-103 139v-35z" />
    <glyph glyph-name="questiondown" unicode="&#xbf;" horiz-adv-x="608" 
d="M510 239l-0.000976562 -12.9971c0 -30.667 -4.33301 -58.5 -13 -83.5s-21.334 -46.5 -38.001 -64.5s-37.167 -32 -61.5 -42s-52.5 -15 -84.5 -15c-25.333 0 -48.833 3.16699 -70.5 9.5s-40.334 15.666 -56.001 27.999s-28 27.666 -37 45.999s-13.5 39.166 -13.5 62.499
c0 25.333 4.33301 47.666 13 66.999s18.667 36 30 50s22.333 25.5 33 34.5s18 15.5 22 19.5c17.333 16 31.833 31.167 43.5 45.5s21.167 29.166 28.5 44.499h172c-5.33301 -52.667 -21.666 -94.167 -48.999 -124.5s-69 -54.166 -125 -71.499
c-21.333 -7.33301 -34.166 -12.5 -38.499 -15.5s-6.5 -6.83301 -6.5 -11.5c0 -5.33301 3 -9.16602 9 -11.499s18.667 -3.5 38 -3.5c18 0 36.833 1.5 56.5 4.5s38.667 6.83301 57 11.5s35.333 10 51 16s28.834 11.667 39.501 17zM397.999 711.003
c20.667 0 39.9961 -2.49609 57.9961 -7.49609s33.667 -12.333 47 -22s24 -21.834 32 -36.501s12 -31.334 12 -50.001c0 -23.333 -4.33301 -43.833 -13 -61.5s-20.5 -32.5 -35.5 -44.5s-32.5 -21 -52.5 -27s-41.333 -9 -64 -9c-11.333 0 -22.166 1.33301 -32.499 4
s-20.166 4 -29.499 4c4.66699 13.333 7.83398 27.166 9.50098 41.499s2.5 30.166 2.5 47.499h-20c0 -33.333 -3.33301 -61 -10 -83c-21.333 9.33301 -38.166 22.333 -50.499 39s-18.5 36.667 -18.5 60c0 26 6.83301 50.5 20.5 73.5s33.5 40.5 59.5 52.5v-58h20v67
c18 6.66699 39.667 10 65 10zM580.995 59.0068c-50 -24 -99.502 -41.4971 -148.502 -52.4971s-99.5 -16.5 -151.5 -16.5c-40.667 0 -78.834 3.16699 -114.501 9.5s-66.667 16.166 -93 29.499s-47.166 30.166 -62.499 50.499s-23 44.833 -23 73.5
c0 30.667 4.16699 56.667 12.5 78s19.333 39.5 33 54.5s28.834 27.333 45.501 37s33.334 18.167 50.001 25.5l47 20.5c12.667 5.66699 23.334 11.167 32.001 16.5s15.667 11.333 21 18s9.66602 15 12.999 25h42c-8 -13.333 -17.833 -26.5 -29.5 -39.5
s-25.5 -27.167 -41.5 -42.5c-8 -8 -17.667 -17 -29 -27s-22 -22 -32 -36s-18.5 -30.5 -25.5 -49.5s-10.5 -41.167 -10.5 -66.5c0 -26.667 5.16699 -50.334 15.5 -71.001s24.333 -38 42 -52s38.5 -24.667 62.5 -32s49.667 -11 77 -11c62.667 0 112.5 17.5 149.5 52.5
s58.833 81.167 65.5 138.5z" />
    <glyph glyph-name="Agrave" unicode="&#xc0;" 
d="M570 235l94 -235h-227l-7 81h-166l-35 -81h-118l95 235h364zM610 700l98 -700h-22l-277 700h201zM214 255l176 439l172 -439h-348zM306 700h66l-284 -700h-128zM416 264c-1.33301 26.667 -2 50.001 -2 70.001v54v44.5c0 13 0.666992 25.833 2 38.5
c-7.33301 -24.667 -17.5 -55.334 -30.5 -92.001l-42.5 -115h73zM363 724.001l-176 216h312l60 -216h-196zM447 753.001h15l-125 144h-29z" />
    <glyph glyph-name="Aacute" unicode="&#xc1;" 
d="M570 235l94 -235h-227l-7 81h-166l-35 -81h-118l95 235h364zM610 700l98 -700h-22l-277 700h201zM214 255l176 439l172 -439h-348zM306 700h66l-284 -700h-128zM416 264c-1.33301 26.667 -2 50.001 -2 70.001v54v44.5c0 13 0.666992 25.833 2 38.5
c-7.33301 -24.667 -17.5 -55.334 -30.5 -92.001l-42.5 -115h73zM543 724.001h-196l136 216h312zM528 897.001l-132 -144h15l146 144h-29z" />
    <glyph glyph-name="Acircumflex" unicode="&#xc2;" 
d="M570 235l94 -235h-227l-7 81h-166l-35 -81h-118l95 235h364zM610 700l98 -700h-22l-277 700h201zM214 255l176 439l172 -439h-348zM306 700h66l-284 -700h-128zM416 264c-1.33301 26.667 -2 50.001 -2 70.001v54v44.5c0 13 0.666992 25.833 2 38.5
c-7.33301 -24.667 -17.5 -55.334 -30.5 -92.001l-42.5 -115h73zM517 724.001l-51 66l-75 -66h-202l209 220h190l131 -220h-202zM587 756.001l-114 139h-15l-113 -139h20l99 123l103 -123h20z" />
    <glyph glyph-name="Atilde" unicode="&#xc3;" 
d="M570 235l94 -235h-227l-7 81h-166l-35 -81h-118l95 235h364zM610 700l98 -700h-22l-277 700h201zM214 255l176 439l172 -439h-348zM306 700h66l-284 -700h-128zM416 264c-1.33301 26.667 -2 50.001 -2 70.001v54v44.5c0 13 0.666992 25.833 2 38.5
c-7.33301 -24.667 -17.5 -55.334 -30.5 -92.001l-42.5 -115h73zM757 944.001c-13.333 -78 -35.668 -134.5 -67.001 -169.5s-73.333 -52.5 -126 -52.5c-19.333 0 -37.166 2.83301 -53.499 8.5s-31 11.834 -44 18.501s-24.5 12.834 -34.5 18.501s-18.667 8.5 -26 8.5
c-6 0 -11.167 -3.5 -15.5 -10.5s-8.5 -20.5 -12.5 -40.5h-181c13.333 78 35.666 134.5 66.999 169.5s73.333 52.5 126 52.5c20.667 0 39.167 -2.83301 55.5 -8.5s30.833 -11.834 43.5 -18.501s23.834 -12.834 33.501 -18.501s18.167 -8.5 25.5 -8.5
c6 0 11.167 3.5 15.5 10.5s8.5 20.5 12.5 40.5h181zM365.998 795.001c1.33301 13.333 5.83301 26.499 13.5 39.499s19.167 19.5 34.5 19.5c10.667 0 21 -3 31 -9s20 -12.667 30 -20s20.333 -14 31 -20s22.334 -9 35.001 -9c38.667 0 61.667 25 69 75h-20
c-3.33301 -20 -9.16602 -34.167 -17.499 -42.5s-18.833 -12.5 -31.5 -12.5c-10 0 -20 3 -30 9s-20.333 12.667 -31 20s-21.5 14 -32.5 20s-22.167 9 -33.5 9c-10 0 -19 -2.33301 -27 -7s-14.833 -10.667 -20.5 -18s-10.334 -15.666 -14.001 -24.999
s-5.83398 -19 -6.50098 -29h20z" />
    <glyph glyph-name="Adieresis" unicode="&#xc4;" 
d="M570 235l94 -235h-227l-7 81h-166l-35 -81h-118l95 235h364zM610 700l98 -700h-22l-277 700h201zM214 255l176 439l172 -439h-348zM306 700h66l-284 -700h-128zM416 264c-1.33301 26.667 -2 50.001 -2 70.001v54v44.5c0 13 0.666992 25.833 2 38.5
c-7.33301 -24.667 -17.5 -55.334 -30.5 -92.001l-42.5 -115h73zM609 721.001c-16.667 0 -32.1621 3.00195 -46.4951 9.00195s-27 14.333 -38 25s-19.667 23 -26 37s-9.5 29 -9.5 45c0 18.667 4 36.167 12 52.5s18.667 30.666 32 42.999s28.666 22.166 45.999 29.499
s35.666 11 54.999 11c16 0 31.167 -2.83301 45.5 -8.5s26.666 -13.667 36.999 -24s18.666 -22.333 24.999 -36s9.5 -28.5 9.5 -44.5s-3.5 -32.167 -10.5 -48.5s-16.667 -31.333 -29 -45s-27.333 -24.667 -45 -33s-36.834 -12.5 -57.501 -12.5zM320.005 721.003
c-16.667 0 -32.1621 3.00195 -46.4951 9.00195s-27 14.333 -38 25s-19.667 23 -26 37s-9.5 29 -9.5 45c0 18.667 4 36.167 12 52.5s18.667 30.666 32 42.999s28.666 22.166 45.999 29.499s35.666 11 54.999 11c16 0 31.167 -2.83301 45.5 -8.5s26.666 -13.667 36.999 -24
s18.666 -22.333 24.999 -36s9.5 -28.5 9.5 -44.5s-3.5 -32.167 -10.5 -48.5s-16.667 -31.333 -29 -45s-27.333 -24.667 -45 -33s-36.834 -12.5 -57.501 -12.5zM565.01 784.005v81h-20v-81h20zM269.01 784.005v81h-20v-81h20z" />
    <glyph glyph-name="Aring" unicode="&#xc5;" 
d="M525 761c0 17.333 -4.66797 31.835 -14.001 43.502s-21.333 18.167 -36 19.5c1.33301 4 2.33301 8.16699 3 12.5s1 8.83301 1 13.5c0 19.333 -5.83301 36.666 -17.5 51.999s-26.167 26 -43.5 32c14.667 4 30.667 6 48 6c25.333 0 49 -4.66699 71 -14s41.333 -22 58 -38
s29.667 -35 39 -57s14 -45.333 14 -70c0 -19.333 -2.83301 -37.666 -8.5 -54.999s-13.5 -33.333 -23.5 -48l92 -658h-22l-282 714h-26l-290 -714h-128l340 687c-10.667 22 -16 46.667 -16 74c0 29.333 6.33301 56.666 19 81.999c1.33301 -22.667 10.5 -41.834 27.5 -57.501
s37.167 -23.5 60.5 -23.5h8c2.66699 0 5.33398 0.333008 8.00098 1v-2c0 -19.333 5.33301 -34.666 16 -45.999s25 -17 43 -17s32.333 5.66699 43 17s16 26.666 16 45.999zM569.999 235.002l94 -235h-227l-7 81h-166l-35 -81h-118l95 235h364zM213.999 255.002l176 439h2
l170 -439h-348zM458.999 850.002c0 -10 -1.83301 -16.999 -5.5 -20.999s-8.16699 -7.66699 -13.5 -11s-10.833 -7.33301 -16.5 -12s-10.167 -12 -13.5 -22c-3.33301 -1.33301 -6.5 -2 -9.5 -2h-9.5c-18.667 0 -34.667 6.66699 -48 20s-20 29.333 -20 48c0 12 3 23 9 33l5 5
c7.33301 7.33301 15.5 14.166 24.5 20.499s18.833 9.5 29.5 9.5c18.667 0 34.667 -6.66699 48 -20s20 -29.333 20 -48zM415.999 264.003c-1.33301 26.667 -2 50.001 -2 70.001v54v44.5c0 13 0.666992 25.833 2 38.5c-7.33301 -24.667 -17.5 -55.334 -30.5 -92.001
l-42.5 -115h73z" />
    <glyph glyph-name="AE" unicode="&#xc6;" horiz-adv-x="1149" 
d="M1187 700l-34 -194h-323l-11 -60h230l-33 -191h-230l-11 -61h325l-34 -194h-61v20h-392v342h360v20h-360v312h392v6h182zM441 700h87l-370 -700h-210zM593 274v-274h-117l14 81h-202l-52 -81h-56l145 274h88l-6 -10h115l2 10h69zM593 696v-402h-66l42 225l-15 -26
l-14.5 -25l-17.5 -29l-24 -37l-72 -108h-91l211 402h47z" />
    <glyph glyph-name="Ccedilla" unicode="&#xc7;" horiz-adv-x="701" 
d="M31 283c0 54 7.00293 105.333 21.0029 154s35.167 92 63.5 130s64.166 69.5 107.499 94.5s94.333 40.5 153 46.5c32 -4.66699 61.167 -13.834 87.5 -27.501s49 -30 68 -49s34 -40 45 -63s17.5 -45.833 19.5 -68.5h20c-0.666992 16.667 -4.66699 35 -12 55
s-17.833 39.5 -31.5 58.5s-30.834 37 -51.501 54s-44.667 30.833 -72 41.5c50.667 -1.33301 93.167 -8.83301 127.5 -22.5s62 -33 83 -58s36.167 -55 45.5 -90s14 -74.5 14 -118.5l-256 -47c0.666992 9.33301 1.16699 17.833 1.5 25.5s0.5 15.167 0.5 22.5
c0 34 -4.16699 57 -12.5 69s-21.5 18 -39.5 18c-16 0 -30.333 -7.5 -43 -22.5s-23.334 -33.833 -32.001 -56.5s-15.167 -47.5 -19.5 -74.5s-6.5 -52.167 -6.5 -75.5c0 -26 4.33301 -47 13 -63s22.334 -24 41.001 -24c20 0 37.167 8.66699 51.5 26s28.166 43 41.499 77
l145 -60c-8 -34 -20.333 -65.167 -37 -93.5s-37 -52.666 -61 -72.999s-51.667 -36.333 -83 -48s-66.333 -17.5 -105 -17.5c-40 0 -77.5 7.33301 -112.5 22s-65.5 34.667 -91.5 60s-46.333 55 -61 89s-22 70.333 -22 109zM225.003 -170
c9.33301 -4.66699 20.9941 -8.83398 34.9941 -12.501s29 -5.5 45 -5.5c26.667 0 48.834 7.16699 66.501 21.5s26.5 33.166 26.5 56.499c0 20.667 -7.33301 35.834 -22 45.501s-32.667 14.5 -54 14.5c-13.333 0 -24.333 -2 -33 -6l32 39c4.66699 0 9 0.166992 13 0.5
s8.33301 0.833008 13 1.5l-14 -23c12 3.33301 24.333 5 37 5c24.667 0 45.334 -5.66699 62.001 -17s25 -28.333 25 -51c0 -33.333 -13.167 -58.666 -39.5 -75.999s-58.5 -26 -96.5 -26c-38.667 0 -72.5 4.5 -101.5 13.5s-55.5 20.5 -79.5 34.5l40 60
c20 -10.667 38.5 -19.167 55.5 -25.5s35.167 -9.5 54.5 -9.5c13.333 0 22.5 1.83301 27.5 5.5s7.5 8.83398 7.5 15.501c0 11.333 -7.66699 17 -23 17c-7.33301 0 -14.166 -1.33301 -20.499 -4s-11.833 -5.33398 -16.5 -8.00098l-33 26l40 64
c4.66699 -1.33301 9.33398 -2 14.001 -2s9.66699 -0.333008 15 -1l-48 -56l15 -10c14.667 8.66699 32.667 13 54 13c11.333 0 23 -2.83301 35 -8.5s18 -17.167 18 -34.5c0 -15.333 -6.33301 -28.333 -19 -39s-29.667 -16 -51 -16c-13.333 0 -25.666 1.5 -36.999 4.5
s-22.666 7.16699 -33.999 12.5zM686.997 201c-12.667 -26.667 -27.5 -52.5 -44.5 -77.5s-37.667 -47.333 -62 -67s-52.833 -35.667 -85.5 -48s-71 -18.833 -115 -19.5c64.667 12 117 39 157 81s68.333 94.667 85 158z" />
    <glyph glyph-name="Egrave" unicode="&#xc8;" horiz-adv-x="665" 
d="M714 700l-34 -194h-323l-11 -60h230l-12 -64h-399v312h454v6h95zM165 362h396l-19 -107h-230l-11 -61h325l-31 -174h-430v342zM-8 0l124 700h29v-700h-153zM335 724l-176 216h312l60 -216h-196zM419 753h15l-125 144h-29z" />
    <glyph glyph-name="Eacute" unicode="&#xc9;" horiz-adv-x="665" 
d="M714 700l-34 -194h-323l-11 -60h230l-12 -64h-399v312h454v6h95zM165 362h396l-19 -107h-230l-11 -61h325l-31 -174h-430v342zM-8 0l124 700h29v-700h-153zM473 724h-196l136 216h312zM458 897l-132 -144h15l146 144h-29z" />
    <glyph glyph-name="Ecircumflex" unicode="&#xca;" horiz-adv-x="665" 
d="M714 700l-34 -194h-323l-11 -60h230l-12 -64h-399v312h454v6h95zM165 362h396l-19 -107h-230l-11 -61h325l-31 -174h-430v342zM-8 0l124 700h29v-700h-153zM477 724l-51 66l-75 -66h-202l209 220h190l131 -220h-202zM547 756l-114 139h-15l-113 -139h20l99 123l103 -123
h20z" />
    <glyph glyph-name="Edieresis" unicode="&#xcb;" horiz-adv-x="665" 
d="M714 700l-34 -194h-323l-11 -60h230l-12 -64h-399v312h454v6h95zM165 362h396l-19 -107h-230l-11 -61h325l-31 -174h-430v342zM-8 0l124 700h29v-700h-153zM566 721c-16.667 0 -32.1621 3.00195 -46.4951 9.00195s-27 14.333 -38 25s-19.667 23 -26 37s-9.5 29 -9.5 45
c0 18.667 4 36.167 12 52.5s18.667 30.666 32 42.999s28.666 22.166 45.999 29.499s35.666 11 54.999 11c16 0 31.167 -2.83301 45.5 -8.5s26.666 -13.667 36.999 -24s18.666 -22.333 24.999 -36s9.5 -28.5 9.5 -44.5s-3.5 -32.167 -10.5 -48.5s-16.667 -31.333 -29 -45
s-27.333 -24.667 -45 -33s-36.834 -12.5 -57.501 -12.5zM277.005 721.002c-16.667 0 -32.1621 3.00195 -46.4951 9.00195s-27 14.333 -38 25s-19.667 23 -26 37s-9.5 29 -9.5 45c0 18.667 4 36.167 12 52.5s18.667 30.666 32 42.999s28.666 22.166 45.999 29.499
s35.666 11 54.999 11c16 0 31.167 -2.83301 45.5 -8.5s26.666 -13.667 36.999 -24s18.666 -22.333 24.999 -36s9.5 -28.5 9.5 -44.5s-3.5 -32.167 -10.5 -48.5s-16.667 -31.333 -29 -45s-27.333 -24.667 -45 -33s-36.834 -12.5 -57.501 -12.5zM522.01 784.004v81h-20v-81h20
zM226.01 784.004v81h-20v-81h20z" />
    <glyph glyph-name="Igrave" unicode="&#xcc;" horiz-adv-x="364" 
d="M-8 0l124 700h118v-700h-242zM404 700l-124 -700h-26v700h150zM167 724l-176 216h312l60 -216h-196zM251 753h15l-125 144h-29z" />
    <glyph glyph-name="Iacute" unicode="&#xcd;" horiz-adv-x="364" 
d="M-8 0l124 700h118v-700h-242zM404 700l-124 -700h-26v700h150zM344 724h-196l136 216h312zM329 897l-132 -144h15l146 144h-29z" />
    <glyph glyph-name="Icircumflex" unicode="&#xce;" horiz-adv-x="364" 
d="M-8 0l124 700h118v-700h-242zM404 700l-124 -700h-26v700h150zM319 724l-51 66l-75 -66h-202l209 220h190l131 -220h-202zM389 756l-114 139h-15l-113 -139h20l99 123l103 -123h20z" />
    <glyph glyph-name="Idieresis" unicode="&#xcf;" horiz-adv-x="364" 
d="M-8 0l124 700h118v-700h-242zM404 700l-124 -700h-26v700h150zM411 721c-16.667 0 -32.1621 3.00195 -46.4951 9.00195s-27 14.333 -38 25s-19.667 23 -26 37s-9.5 29 -9.5 45c0 18.667 4 36.167 12 52.5s18.667 30.666 32 42.999s28.666 22.166 45.999 29.499
s35.666 11 54.999 11c16 0 31.167 -2.83301 45.5 -8.5s26.666 -13.667 36.999 -24s18.666 -22.333 24.999 -36s9.5 -28.5 9.5 -44.5s-3.5 -32.167 -10.5 -48.5s-16.667 -31.333 -29 -45s-27.333 -24.667 -45 -33s-36.834 -12.5 -57.501 -12.5zM122.005 721.002
c-16.667 0 -32.1621 3.00195 -46.4951 9.00195s-27 14.333 -38 25s-19.667 23 -26 37s-9.5 29 -9.5 45c0 18.667 4 36.167 12 52.5s18.667 30.666 32 42.999s28.666 22.166 45.999 29.499s35.666 11 54.999 11c16 0 31.167 -2.83301 45.5 -8.5s26.666 -13.667 36.999 -24
s18.666 -22.333 24.999 -36s9.5 -28.5 9.5 -44.5s-3.5 -32.167 -10.5 -48.5s-16.667 -31.333 -29 -45s-27.333 -24.667 -45 -33s-36.834 -12.5 -57.501 -12.5zM367.01 784.004v81h-20v-81h20zM71.0098 784.004v81h-20v-81h20z" />
    <glyph glyph-name="Eth" unicode="&#xd0;" horiz-adv-x="759" 
d="M433 450l-11.999 -68.001h-243v312h225c36 0 71.167 -5 105.5 -15s65.166 -27.833 92.499 -53.5s49.333 -60.167 66 -103.5s25 -98.333 25 -165c0 -57.333 -8.16699 -107.166 -24.5 -149.499s-38.666 -77.333 -66.999 -105s-61.333 -48.334 -99 -62.001
s-77.5 -20.5 -119.5 -20.5h-204v342h239l-17 -102h-78l-10 -58h42c16 0 30.333 1.66699 43 5s24 10 34 20s18.667 24 26 42s13.666 41.667 18.999 71c4 24 6 44.667 6 62c0 34.667 -7 59.334 -21 74.001s-35 22 -63 22h-34l-7 -41l-2 -7h78zM158.001 361.999v-362h-136
l46 260h-53l33 190h54l44 250h12v-318h-64v-20h64zM566.001 683.999c60.667 -16 108.167 -45.0029 142.5 -87.0029s51.5 -97.667 51.5 -167c0 -53.333 -5.5 -101.166 -16.5 -143.499s-26 -79.666 -45 -111.999s-41.667 -59.666 -68 -81.999s-54.5 -40.166 -84.5 -53.499
c24 12.667 46.167 28.5 66.5 47.5s37.833 41.5 52.5 67.5s26.167 55.833 34.5 89.5s12.5 71.5 12.5 113.5c0 49.333 -4.66699 92.666 -14 129.999s-22.166 69.5 -38.499 96.5s-35.333 49.167 -57 66.5s-44.834 31 -69.501 41c5.33301 -1.33301 10.833 -2.5 16.5 -3.5
s11.167 -2.16699 16.5 -3.5z" />
    <glyph glyph-name="Ntilde" unicode="&#xd1;" horiz-adv-x="752" 
d="M415 0l-52 134c-11.333 28 -22.5 58 -33.5 90s-18.5 60.333 -22.5 85c-1.33301 -10 -2.5 -20.833 -3.5 -32.5s-2.5 -23.167 -4.5 -34.5l-41 -242h-122v689h2l488 -689h-211zM378 700l39 -92c4.66699 -11.333 10 -25.833 16 -43.5l18 -55l17 -55.5
c5.33301 -18 9.33301 -32.333 12 -43l9 84l36 205h111v-675h-2l-478 675h222zM791 700l-123 -700h-12v700h135zM116 0h-124l124 700v-700zM754 944c-13.333 -78 -35.668 -134.5 -67.001 -169.5s-73.333 -52.5 -126 -52.5c-19.333 0 -37.166 2.83301 -53.499 8.5
s-31 11.834 -44 18.501s-24.5 12.834 -34.5 18.501s-18.667 8.5 -26 8.5c-6 0 -11.167 -3.5 -15.5 -10.5s-8.5 -20.5 -12.5 -40.5h-181c13.333 78 35.666 134.5 66.999 169.5s73.333 52.5 126 52.5c20.667 0 39.167 -2.83301 55.5 -8.5s30.833 -11.834 43.5 -18.501
s23.834 -12.834 33.501 -18.501s18.167 -8.5 25.5 -8.5c6 0 11.167 3.5 15.5 10.5s8.5 20.5 12.5 40.5h181zM362.998 795c1.33301 13.333 5.83301 26.499 13.5 39.499s19.167 19.5 34.5 19.5c10.667 0 21 -3 31 -9s20 -12.667 30 -20s20.333 -14 31 -20s22.334 -9 35.001 -9
c38.667 0 61.667 25 69 75h-20c-3.33301 -20 -9.16602 -34.167 -17.499 -42.5s-18.833 -12.5 -31.5 -12.5c-10 0 -20 3 -30 9s-20.333 12.667 -31 20s-21.5 14 -32.5 20s-22.167 9 -33.5 9c-10 0 -19 -2.33301 -27 -7s-14.833 -10.667 -20.5 -18
s-10.334 -15.666 -14.001 -24.999s-5.83398 -19 -6.50098 -29h20z" />
    <glyph glyph-name="Ograve" unicode="&#xd2;" 
d="M89 350c0.666992 51.333 8.16699 98.666 22.5 141.999s34.666 80.666 60.999 111.999s58.5 55.833 96.5 73.5s81 26.5 129 26.5s91 -8.83301 129 -26.5s70.167 -42.167 96.5 -73.5s46.666 -68.666 60.999 -111.999s21.833 -90.666 22.5 -141.999
c-0.666992 -51.333 -8.16699 -98.666 -22.5 -141.999s-34.666 -80.666 -60.999 -111.999s-58.5 -55.833 -96.5 -73.5s-81 -26.5 -129 -26.5s-91 8.83301 -129 26.5s-70.167 42.167 -96.5 73.5s-46.666 68.666 -60.999 111.999s-21.833 90.666 -22.5 141.999zM480 419
c0 28 -5.16699 49.5029 -15.5 64.5029s-26.166 22.5 -47.499 22.5c-18 0 -33.667 -7.5 -47 -22.5s-24.166 -33.667 -32.499 -56s-14.5 -46.833 -18.5 -73.5s-6 -51.334 -6 -74.001c0 -28 5.16699 -49.5 15.5 -64.5s26.166 -22.5 47.499 -22.5c18 0 33.667 7.5 47 22.5
s24.166 33.667 32.499 56s14.5 46.666 18.5 72.999s6 51.166 6 74.499zM69 350.003c0 -40 4.49902 -78.5 13.499 -115.5s22.333 -71 40 -102s39.5 -58.167 65.5 -81.5s56 -41.333 90 -54c-36 4.66699 -69.167 14.5 -99.5 29.5s-56.333 34.5 -78 58.5s-38.667 52.667 -51 86
s-18.5 71 -18.5 113c0.666992 58 8.66699 112.833 24 164.5s40 96.5 74 134.5l15 17c-25.333 -34 -44.166 -72.167 -56.499 -114.5s-18.5 -87.5 -18.5 -135.5zM554.999 692.003c30 -8 57.499 -19.998 82.499 -35.998s46.667 -35.5 65 -58.5s32.5 -50 42.5 -81
s15 -65.5 15 -103.5c0 -58 -8 -112 -24 -162s-39.333 -94 -70 -132c20 32 35.167 67.667 45.5 107s15.5 80.666 15.5 123.999c0 39.333 -4.33301 77 -13 113s-21.5 69.333 -38.5 100s-37.833 57.667 -62.5 81s-53.334 41.666 -86.001 54.999
c4.66699 -1.33301 9.33398 -2.5 14.001 -3.5s9.33398 -2.16699 14.001 -3.5zM360.998 729.005l-176 216h312l60 -216h-196zM444.998 758.005h15l-125 144h-29z" />
    <glyph glyph-name="Oacute" unicode="&#xd3;" 
d="M89 350c0.666992 51.333 8.16699 98.666 22.5 141.999s34.666 80.666 60.999 111.999s58.5 55.833 96.5 73.5s81 26.5 129 26.5s91 -8.83301 129 -26.5s70.167 -42.167 96.5 -73.5s46.666 -68.666 60.999 -111.999s21.833 -90.666 22.5 -141.999
c-0.666992 -51.333 -8.16699 -98.666 -22.5 -141.999s-34.666 -80.666 -60.999 -111.999s-58.5 -55.833 -96.5 -73.5s-81 -26.5 -129 -26.5s-91 8.83301 -129 26.5s-70.167 42.167 -96.5 73.5s-46.666 68.666 -60.999 111.999s-21.833 90.666 -22.5 141.999zM480 419
c0 28 -5.16699 49.5029 -15.5 64.5029s-26.166 22.5 -47.499 22.5c-18 0 -33.667 -7.5 -47 -22.5s-24.166 -33.667 -32.499 -56s-14.5 -46.833 -18.5 -73.5s-6 -51.334 -6 -74.001c0 -28 5.16699 -49.5 15.5 -64.5s26.166 -22.5 47.499 -22.5c18 0 33.667 7.5 47 22.5
s24.166 33.667 32.499 56s14.5 46.666 18.5 72.999s6 51.166 6 74.499zM69 350.003c0 -40 4.49902 -78.5 13.499 -115.5s22.333 -71 40 -102s39.5 -58.167 65.5 -81.5s56 -41.333 90 -54c-36 4.66699 -69.167 14.5 -99.5 29.5s-56.333 34.5 -78 58.5s-38.667 52.667 -51 86
s-18.5 71 -18.5 113c0.666992 58 8.66699 112.833 24 164.5s40 96.5 74 134.5l15 17c-25.333 -34 -44.166 -72.167 -56.499 -114.5s-18.5 -87.5 -18.5 -135.5zM554.999 692.003c30 -8 57.499 -19.998 82.499 -35.998s46.667 -35.5 65 -58.5s32.5 -50 42.5 -81
s15 -65.5 15 -103.5c0 -58 -8 -112 -24 -162s-39.333 -94 -70 -132c20 32 35.167 67.667 45.5 107s15.5 80.666 15.5 123.999c0 39.333 -4.33301 77 -13 113s-21.5 69.333 -38.5 100s-37.833 57.667 -62.5 81s-53.334 41.666 -86.001 54.999
c4.66699 -1.33301 9.33398 -2.5 14.001 -3.5s9.33398 -2.16699 14.001 -3.5zM458.998 729.005h-196l136 216h312zM443.998 902.005l-132 -144h15l146 144h-29z" />
    <glyph glyph-name="Ocircumflex" unicode="&#xd4;" 
d="M89 350c0.666992 51.333 8.16699 98.666 22.5 141.999s34.666 80.666 60.999 111.999s58.5 55.833 96.5 73.5s81 26.5 129 26.5s91 -8.83301 129 -26.5s70.167 -42.167 96.5 -73.5s46.666 -68.666 60.999 -111.999s21.833 -90.666 22.5 -141.999
c-0.666992 -51.333 -8.16699 -98.666 -22.5 -141.999s-34.666 -80.666 -60.999 -111.999s-58.5 -55.833 -96.5 -73.5s-81 -26.5 -129 -26.5s-91 8.83301 -129 26.5s-70.167 42.167 -96.5 73.5s-46.666 68.666 -60.999 111.999s-21.833 90.666 -22.5 141.999zM480 419
c0 28 -5.16699 49.5029 -15.5 64.5029s-26.166 22.5 -47.499 22.5c-18 0 -33.667 -7.5 -47 -22.5s-24.166 -33.667 -32.499 -56s-14.5 -46.833 -18.5 -73.5s-6 -51.334 -6 -74.001c0 -28 5.16699 -49.5 15.5 -64.5s26.166 -22.5 47.499 -22.5c18 0 33.667 7.5 47 22.5
s24.166 33.667 32.499 56s14.5 46.666 18.5 72.999s6 51.166 6 74.499zM69 350.003c0 -40 4.49902 -78.5 13.499 -115.5s22.333 -71 40 -102s39.5 -58.167 65.5 -81.5s56 -41.333 90 -54c-36 4.66699 -69.167 14.5 -99.5 29.5s-56.333 34.5 -78 58.5s-38.667 52.667 -51 86
s-18.5 71 -18.5 113c0.666992 58 8.66699 112.833 24 164.5s40 96.5 74 134.5l15 17c-25.333 -34 -44.166 -72.167 -56.499 -114.5s-18.5 -87.5 -18.5 -135.5zM554.999 692.003c30 -8 57.499 -19.998 82.499 -35.998s46.667 -35.5 65 -58.5s32.5 -50 42.5 -81
s15 -65.5 15 -103.5c0 -58 -8 -112 -24 -162s-39.333 -94 -70 -132c20 32 35.167 67.667 45.5 107s15.5 80.666 15.5 123.999c0 39.333 -4.33301 77 -13 113s-21.5 69.333 -38.5 100s-37.833 57.667 -62.5 81s-53.334 41.666 -86.001 54.999
c4.66699 -1.33301 9.33398 -2.5 14.001 -3.5s9.33398 -2.16699 14.001 -3.5zM516.998 729.005l-51 66l-75 -66h-202l209 220h190l131 -220h-202zM586.998 761.005l-114 139h-15l-113 -139h20l99 123l103 -123h20z" />
    <glyph glyph-name="Otilde" unicode="&#xd5;" 
d="M89 350c0.666992 51.333 8.16699 98.666 22.5 141.999s34.666 80.666 60.999 111.999s58.5 55.833 96.5 73.5s81 26.5 129 26.5s91 -8.83301 129 -26.5s70.167 -42.167 96.5 -73.5s46.666 -68.666 60.999 -111.999s21.833 -90.666 22.5 -141.999
c-0.666992 -51.333 -8.16699 -98.666 -22.5 -141.999s-34.666 -80.666 -60.999 -111.999s-58.5 -55.833 -96.5 -73.5s-81 -26.5 -129 -26.5s-91 8.83301 -129 26.5s-70.167 42.167 -96.5 73.5s-46.666 68.666 -60.999 111.999s-21.833 90.666 -22.5 141.999zM480 419
c0 28 -5.16699 49.5029 -15.5 64.5029s-26.166 22.5 -47.499 22.5c-18 0 -33.667 -7.5 -47 -22.5s-24.166 -33.667 -32.499 -56s-14.5 -46.833 -18.5 -73.5s-6 -51.334 -6 -74.001c0 -28 5.16699 -49.5 15.5 -64.5s26.166 -22.5 47.499 -22.5c18 0 33.667 7.5 47 22.5
s24.166 33.667 32.499 56s14.5 46.666 18.5 72.999s6 51.166 6 74.499zM69 350.003c0 -40 4.49902 -78.5 13.499 -115.5s22.333 -71 40 -102s39.5 -58.167 65.5 -81.5s56 -41.333 90 -54c-36 4.66699 -69.167 14.5 -99.5 29.5s-56.333 34.5 -78 58.5s-38.667 52.667 -51 86
s-18.5 71 -18.5 113c0.666992 58 8.66699 112.833 24 164.5s40 96.5 74 134.5l15 17c-25.333 -34 -44.166 -72.167 -56.499 -114.5s-18.5 -87.5 -18.5 -135.5zM554.999 692.003c30 -8 57.499 -19.998 82.499 -35.998s46.667 -35.5 65 -58.5s32.5 -50 42.5 -81
s15 -65.5 15 -103.5c0 -58 -8 -112 -24 -162s-39.333 -94 -70 -132c20 32 35.167 67.667 45.5 107s15.5 80.666 15.5 123.999c0 39.333 -4.33301 77 -13 113s-21.5 69.333 -38.5 100s-37.833 57.667 -62.5 81s-53.334 41.666 -86.001 54.999
c4.66699 -1.33301 9.33398 -2.5 14.001 -3.5s9.33398 -2.16699 14.001 -3.5zM706.998 949.005c-13.333 -78 -35.668 -134.5 -67.001 -169.5s-73.333 -52.5 -126 -52.5c-19.333 0 -37.166 2.83301 -53.499 8.5s-31 11.834 -44 18.501s-24.5 12.834 -34.5 18.501
s-18.667 8.5 -26 8.5c-6 0 -11.167 -3.5 -15.5 -10.5s-8.5 -20.5 -12.5 -40.5h-181c13.333 78 35.666 134.5 66.999 169.5s73.333 52.5 126 52.5c20.667 0 39.167 -2.83301 55.5 -8.5s30.833 -11.834 43.5 -18.501s23.834 -12.834 33.501 -18.501s18.167 -8.5 25.5 -8.5
c6 0 11.167 3.5 15.5 10.5s8.5 20.5 12.5 40.5h181zM315.996 800.005c1.33301 13.333 5.83301 26.499 13.5 39.499s19.167 19.5 34.5 19.5c10.667 0 21 -3 31 -9s20 -12.667 30 -20s20.333 -14 31 -20s22.334 -9 35.001 -9c38.667 0 61.667 25 69 75h-20
c-3.33301 -20 -9.16602 -34.167 -17.499 -42.5s-18.833 -12.5 -31.5 -12.5c-10 0 -20 3 -30 9s-20.333 12.667 -31 20s-21.5 14 -32.5 20s-22.167 9 -33.5 9c-10 0 -19 -2.33301 -27 -7s-14.833 -10.667 -20.5 -18s-10.334 -15.666 -14.001 -24.999
s-5.83398 -19 -6.50098 -29h20z" />
    <glyph glyph-name="Odieresis" unicode="&#xd6;" 
d="M89 350c0.666992 51.333 8.16699 98.666 22.5 141.999s34.666 80.666 60.999 111.999s58.5 55.833 96.5 73.5s81 26.5 129 26.5s91 -8.83301 129 -26.5s70.167 -42.167 96.5 -73.5s46.666 -68.666 60.999 -111.999s21.833 -90.666 22.5 -141.999
c-0.666992 -51.333 -8.16699 -98.666 -22.5 -141.999s-34.666 -80.666 -60.999 -111.999s-58.5 -55.833 -96.5 -73.5s-81 -26.5 -129 -26.5s-91 8.83301 -129 26.5s-70.167 42.167 -96.5 73.5s-46.666 68.666 -60.999 111.999s-21.833 90.666 -22.5 141.999zM480 419
c0 28 -5.16699 49.5029 -15.5 64.5029s-26.166 22.5 -47.499 22.5c-18 0 -33.667 -7.5 -47 -22.5s-24.166 -33.667 -32.499 -56s-14.5 -46.833 -18.5 -73.5s-6 -51.334 -6 -74.001c0 -28 5.16699 -49.5 15.5 -64.5s26.166 -22.5 47.499 -22.5c18 0 33.667 7.5 47 22.5
s24.166 33.667 32.499 56s14.5 46.666 18.5 72.999s6 51.166 6 74.499zM69 350.003c0 -40 4.49902 -78.5 13.499 -115.5s22.333 -71 40 -102s39.5 -58.167 65.5 -81.5s56 -41.333 90 -54c-36 4.66699 -69.167 14.5 -99.5 29.5s-56.333 34.5 -78 58.5s-38.667 52.667 -51 86
s-18.5 71 -18.5 113c0.666992 58 8.66699 112.833 24 164.5s40 96.5 74 134.5l15 17c-25.333 -34 -44.166 -72.167 -56.499 -114.5s-18.5 -87.5 -18.5 -135.5zM554.999 692.003c30 -8 57.499 -19.998 82.499 -35.998s46.667 -35.5 65 -58.5s32.5 -50 42.5 -81
s15 -65.5 15 -103.5c0 -58 -8 -112 -24 -162s-39.333 -94 -70 -132c20 32 35.167 67.667 45.5 107s15.5 80.666 15.5 123.999c0 39.333 -4.33301 77 -13 113s-21.5 69.333 -38.5 100s-37.833 57.667 -62.5 81s-53.334 41.666 -86.001 54.999
c4.66699 -1.33301 9.33398 -2.5 14.001 -3.5s9.33398 -2.16699 14.001 -3.5zM608.998 721.005c-16.667 0 -32.1621 3.00195 -46.4951 9.00195s-27 14.333 -38 25s-19.667 23 -26 37s-9.5 29 -9.5 45c0 18.667 4 36.167 12 52.5s18.667 30.666 32 42.999
s28.666 22.166 45.999 29.499s35.666 11 54.999 11c16 0 31.167 -2.83301 45.5 -8.5s26.666 -13.667 36.999 -24s18.666 -22.333 24.999 -36s9.5 -28.5 9.5 -44.5s-3.5 -32.167 -10.5 -48.5s-16.667 -31.333 -29 -45s-27.333 -24.667 -45 -33s-36.834 -12.5 -57.501 -12.5z
M320.003 721.007c-16.667 0 -32.1621 3.00195 -46.4951 9.00195s-27 14.333 -38 25s-19.667 23 -26 37s-9.5 29 -9.5 45c0 18.667 4 36.167 12 52.5s18.667 30.666 32 42.999s28.666 22.166 45.999 29.499s35.666 11 54.999 11c16 0 31.167 -2.83301 45.5 -8.5
s26.666 -13.667 36.999 -24s18.666 -22.333 24.999 -36s9.5 -28.5 9.5 -44.5s-3.5 -32.167 -10.5 -48.5s-16.667 -31.333 -29 -45s-27.333 -24.667 -45 -33s-36.834 -12.5 -57.501 -12.5zM565.008 784.009v81h-20v-81h20zM269.008 784.009v81h-20v-81h20z" />
    <glyph glyph-name="multiply" unicode="&#xd7;" horiz-adv-x="646" 
d="M504 348l131 -131l-169 -169l-131 131l-125 -125l-161 161l125 125l-131 131l169 169l131 -131l125 125l161 -161zM321 345l-171 -171l14 -15l171 172l172 -172l14 14l-171 172l171 171l-14 14l-172 -171l-171 172l-15 -14z" />
    <glyph glyph-name="Oslash" unicode="&#xd8;" 
d="M638 596c49.333 -62 74.666 -143.337 75.999 -244.004c-0.666992 -51.333 -8.16699 -98.666 -22.5 -141.999s-34.666 -80.666 -60.999 -111.999s-58.5 -55.833 -96.5 -73.5s-81 -26.5 -129 -26.5s-90.333 8.33301 -127 25s-68 40.334 -94 71.001l132 145
c3.33301 -16.667 10.5 -28.5 21.5 -35.5s22.833 -10.5 35.5 -10.5c19.333 0 35.833 7.33301 49.5 22s24.667 33.167 33 55.5s14.5 46.833 18.5 73.5s6 52.334 6 77.001zM171 108.996c-48.667 62 -73.6689 143.005 -75.002 243.005
c0.666992 51.333 8.16699 98.666 22.5 141.999s34.666 80.666 60.999 111.999s58.5 55.833 96.5 73.5s81 26.5 129 26.5c46.667 0 88.334 -8.16699 125.001 -24.5s68.334 -39.5 95.001 -69.5l-147 -163c-3.33301 21.333 -10.833 36.166 -22.5 44.499s-24.5 12.5 -38.5 12.5
c-18.667 0 -34.667 -6.83301 -48 -20.5s-24.166 -31.334 -32.499 -53.001s-14.5 -45.834 -18.5 -72.501s-6 -53 -6 -79v-16zM83.998 12.001l15.001 -12.002l71 79c36 -41.333 79.333 -69.666 130 -84.999c-10.667 1.33301 -20.834 2.83301 -30.501 4.5
s-19.167 3.83398 -28.5 6.50098l-44 -55h-258l137 167c-14.667 22 -25.834 46.833 -33.501 74.5s-11.5 58.5 -11.5 92.5s2.83301 67 8.5 99s14.167 62.5 25.5 91.5s25.5 55.833 42.5 80.5s36.5 46.667 58.5 66c-30 -34 -52.5 -74.167 -67.5 -120.5
s-22.5 -95.833 -22.5 -148.5c0 -50 6.83301 -97.167 20.5 -141.5s33.834 -83.5 60.501 -117.5zM587.999 749.999h258.001l-134 -164c15.333 -22.667 27.166 -48.167 35.499 -76.5s12.5 -60.5 12.5 -96.5c0 -49.333 -5.83301 -96 -17.5 -140s-29.167 -84 -52.5 -120
c29.333 58.667 44 125 44 199c0 50.667 -6.66699 98.167 -20 142.5s-34 83.5 -62 117.5l61 68l-15 12l-59 -65c-27.333 29.333 -59 52.333 -95 69z" />
    <glyph glyph-name="Ugrave" unicode="&#xd9;" horiz-adv-x="752" 
d="M594 266c0 -86 -19.668 -151.335 -59.001 -196.002s-100.333 -67 -183 -67s-143.667 22.333 -183 67s-59 110 -59 196v434h288l-70 -400c-2.66699 -13.333 -4 -26.666 -4 -39.999c0 -15.333 3.33301 -27.333 10 -36s19 -13 37 -13c21.333 0 36.333 6.33301 45 19
s15.334 32.334 20.001 59.001l72 411h86v-434zM724.999 298.998c-8 -46 -19 -86.834 -33 -122.501s-32 -66.167 -54 -91.5s-49 -45.666 -81 -60.999s-70.333 -25.333 -115 -30c56 14 98.667 43.5 128 88.5s44 106.167 44 183.5v434h182zM115.999 43.9971
c-54.667 36.667 -82 97.668 -82 183.001c0 28 3 58.667 9 92l47 267v-320c0 -74.667 13.667 -134.334 41 -179.001s67.333 -74.667 120 -90c-55.333 8 -100.333 23.667 -135 47zM357.999 723.998l-176 216h312l60 -216h-196zM441.999 752.998h15l-125 144h-29z" />
    <glyph glyph-name="Uacute" unicode="&#xda;" horiz-adv-x="752" 
d="M594 266c0 -86 -19.668 -151.335 -59.001 -196.002s-100.333 -67 -183 -67s-143.667 22.333 -183 67s-59 110 -59 196v434h288l-70 -400c-2.66699 -13.333 -4 -26.666 -4 -39.999c0 -15.333 3.33301 -27.333 10 -36s19 -13 37 -13c21.333 0 36.333 6.33301 45 19
s15.334 32.334 20.001 59.001l72 411h86v-434zM724.999 298.998c-8 -46 -19 -86.834 -33 -122.501s-32 -66.167 -54 -91.5s-49 -45.666 -81 -60.999s-70.333 -25.333 -115 -30c56 14 98.667 43.5 128 88.5s44 106.167 44 183.5v434h182zM115.999 43.9971
c-54.667 36.667 -82 97.668 -82 183.001c0 28 3 58.667 9 92l47 267v-320c0 -74.667 13.667 -134.334 41 -179.001s67.333 -74.667 120 -90c-55.333 8 -100.333 23.667 -135 47zM506.999 723.998h-196l136 216h312zM491.999 896.998l-132 -144h15l146 144h-29z" />
    <glyph glyph-name="Ucircumflex" unicode="&#xdb;" horiz-adv-x="752" 
d="M594 266c0 -86 -19.668 -151.335 -59.001 -196.002s-100.333 -67 -183 -67s-143.667 22.333 -183 67s-59 110 -59 196v434h288l-70 -400c-2.66699 -13.333 -4 -26.666 -4 -39.999c0 -15.333 3.33301 -27.333 10 -36s19 -13 37 -13c21.333 0 36.333 6.33301 45 19
s15.334 32.334 20.001 59.001l72 411h86v-434zM724.999 298.998c-8 -46 -19 -86.834 -33 -122.501s-32 -66.167 -54 -91.5s-49 -45.666 -81 -60.999s-70.333 -25.333 -115 -30c56 14 98.667 43.5 128 88.5s44 106.167 44 183.5v434h182zM115.999 43.9971
c-54.667 36.667 -82 97.668 -82 183.001c0 28 3 58.667 9 92l47 267v-320c0 -74.667 13.667 -134.334 41 -179.001s67.333 -74.667 120 -90c-55.333 8 -100.333 23.667 -135 47zM512.999 723.998l-51 66l-75 -66h-202l209 220h190l131 -220h-202zM582.999 755.998l-114 139
h-15l-113 -139h20l99 123l103 -123h20z" />
    <glyph glyph-name="Udieresis" unicode="&#xdc;" horiz-adv-x="752" 
d="M594 266c0 -86 -19.668 -151.335 -59.001 -196.002s-100.333 -67 -183 -67s-143.667 22.333 -183 67s-59 110 -59 196v434h288l-70 -400c-2.66699 -13.333 -4 -26.666 -4 -39.999c0 -15.333 3.33301 -27.333 10 -36s19 -13 37 -13c21.333 0 36.333 6.33301 45 19
s15.334 32.334 20.001 59.001l72 411h86v-434zM724.999 298.998c-8 -46 -19 -86.834 -33 -122.501s-32 -66.167 -54 -91.5s-49 -45.666 -81 -60.999s-70.333 -25.333 -115 -30c56 14 98.667 43.5 128 88.5s44 106.167 44 183.5v434h182zM115.999 43.9971
c-54.667 36.667 -82 97.668 -82 183.001c0 28 3 58.667 9 92l47 267v-320c0 -74.667 13.667 -134.334 41 -179.001s67.333 -74.667 120 -90c-55.333 8 -100.333 23.667 -135 47zM604.999 720.998c-16.667 0 -32.1621 3.00195 -46.4951 9.00195s-27 14.333 -38 25
s-19.667 23 -26 37s-9.5 29 -9.5 45c0 18.667 4 36.167 12 52.5s18.667 30.666 32 42.999s28.666 22.166 45.999 29.499s35.666 11 54.999 11c16 0 31.167 -2.83301 45.5 -8.5s26.666 -13.667 36.999 -24s18.666 -22.333 24.999 -36s9.5 -28.5 9.5 -44.5
s-3.5 -32.167 -10.5 -48.5s-16.667 -31.333 -29 -45s-27.333 -24.667 -45 -33s-36.834 -12.5 -57.501 -12.5zM316.004 721c-16.667 0 -32.1621 3.00195 -46.4951 9.00195s-27 14.333 -38 25s-19.667 23 -26 37s-9.5 29 -9.5 45c0 18.667 4 36.167 12 52.5
s18.667 30.666 32 42.999s28.666 22.166 45.999 29.499s35.666 11 54.999 11c16 0 31.167 -2.83301 45.5 -8.5s26.666 -13.667 36.999 -24s18.666 -22.333 24.999 -36s9.5 -28.5 9.5 -44.5s-3.5 -32.167 -10.5 -48.5s-16.667 -31.333 -29 -45s-27.333 -24.667 -45 -33
s-36.834 -12.5 -57.501 -12.5zM561.009 784.002v81h-20v-81h20zM265.009 784.002v81h-20v-81h20z" />
    <glyph glyph-name="Yacute" unicode="&#xdd;" horiz-adv-x="758" 
d="M519 239l-42 -239h-74v301l279 399h156zM231 239l-157 461h30l279 -399v-301h-194zM393 322l-263.998 377.999h251l18 -87c1.33301 -7.33301 3 -17.833 5 -31.5s3.83301 -28.167 5.5 -43.5s3.16699 -30.333 4.5 -45s2 -26.667 2 -36
c7.33301 22.667 16.666 46.334 27.999 71.001s25.666 53 42.999 85l48 87h124zM531.002 723.999h-196l136 216h312zM516.002 896.999l-132 -144h15l146 144h-29z" />
    <glyph glyph-name="Thorn" unicode="&#xde;" horiz-adv-x="688" 
d="M164 570h269c66.667 0 116.167 -15 148.5 -45s48.5 -73.333 48.5 -130c0 -28 -5 -52.667 -15 -74s-23.833 -39.5 -41.5 -54.5s-38.5 -26.333 -62.5 -34s-50 -11.5 -78 -11.5h-269v349zM164 590v110.002h231l-14 -81h33c90.667 0 160.5 -18.5 209.5 -55.5
s73.5 -91.5 73.5 -163.5c0 -57.333 -9.33301 -105 -28 -143s-43.5 -68.667 -74.5 -92s-66.667 -39.833 -107 -49.5s-82.5 -14.5 -126.5 -14.5h-71l-18 -101h-108v201h259c32.667 0 63 4.16699 91 12.5s52 20.666 72 36.999s35.667 36.666 47 60.999s17 52.166 17 83.499
c0 64.667 -19 113.334 -57 146.001s-91.333 49 -160 49h-269zM115 700.002h29v-700h-152zM431 373.002c0 16.667 -5.5 29.333 -16.5 38s-26.5 13 -46.5 13h-26l-22 -128h37c18 0 34.833 6.33301 50.5 19s23.5 32 23.5 58z" />
    <glyph glyph-name="germandbls" unicode="&#xdf;" horiz-adv-x="651" 
d="M352 359c33.333 0 64.1689 -2.33398 92.502 -7.00098s52.666 -13.5 72.999 -26.5s36.166 -31 47.499 -54s17 -52.833 17 -89.5c0 -22 -1.83301 -41.667 -5.5 -59s-9.16699 -33 -16.5 -47l-18 -14c-59.333 -41.333 -143 -62 -251 -62h-15l30 168h11
c26 0 43.667 8.16699 53 24.5s14 35.166 14 56.499c0 16.667 -4.33301 28.334 -13 35.001s-21.667 10 -39 10h-4l29 163h6c19.333 0 33.166 5.83301 41.499 17.5s12.5 28.167 12.5 49.5c0 24.667 -11.667 37 -35 37c-14.667 0 -25.667 -5.16699 -33 -15.5
s-12.666 -25.166 -15.999 -44.499l-107 -608l-275 -86l117 664c8.66699 48 21.667 88.333 39 121s39.166 59 65.499 79s56.833 34.167 91.5 42.5s73.667 12.5 117 12.5c91.333 0 159 -14.667 203 -44s66 -69.333 66 -120c0 -22 -3 -41.5 -9 -58.5s-14 -32 -24 -45
s-21.667 -24 -35 -33s-27.666 -16.833 -42.999 -23.5c28 -13.333 50.333 -31.5 67 -54.5s25 -52.5 25 -88.5c0 -56 -11.667 -102.667 -35 -140c4 20 6 41 6 63c0 52.667 -12.833 95.834 -38.5 129.501s-67.5 53.167 -125.5 58.5v2c42.667 7.33301 74.5 25.5 95.5 54.5
s31.5 64.5 31.5 106.5c0 26 -5.16699 49.167 -15.5 69.5s-24 37.666 -41 51.999s-36.5 25.166 -58.5 32.499s-45 11 -69 11c-21.333 0 -42.5 -2.83301 -63.5 -8.5s-39.833 -15.167 -56.5 -28.5s-30.167 -30.833 -40.5 -52.5s-15.5 -48.5 -15.5 -80.5v-556h20v553
c0 34.667 5.66699 62 17 82s25.166 35.333 41.499 46s33.333 17.5 51 20.5s33.167 4.5 46.5 4.5c22.667 0 44 -3.33301 64 -10s37.333 -16.167 52 -28.5s26.334 -27.5 35.001 -45.5s13 -38.333 13 -61c0 -28 -5 -51.833 -15 -71.5s-23.333 -35.667 -40 -48
s-36.167 -21.166 -58.5 -26.499s-45.5 -8 -69.5 -8h-10v-20z" />
    <glyph glyph-name="agrave" unicode="&#xe0;" horiz-adv-x="581" 
d="M135 -11c-48 0 -84.3359 12.6641 -109.003 37.9971s-37 59 -37 101c0 36.667 6 67.834 18 93.501s27.667 46.5 47 62.5s41 27.667 65 35s48.333 11 73 11c24 0 47.5 -2.33301 70.5 -7s43.167 -11 60.5 -19l2 14c0.666992 3.33301 1 8.33301 1 15
c0 20.667 -7.33301 33.5 -22 38.5s-34 7.5 -58 7.5c-23.333 0 -44.333 -1.33301 -63 -4s-38.334 -6.66699 -59.001 -12c5.33301 46 22.833 81.333 52.5 106s70.834 37 123.501 37c34 0 61 -4.5 81 -13.5s35.167 -20.5 45.5 -34.5s16.833 -29.333 19.5 -46s4 -32.667 4 -48
c0 -19.333 -3.83301 -34.166 -11.5 -44.499s-19.667 -18 -36 -23s-37.166 -8.33301 -62.499 -10s-55.666 -3.5 -90.999 -5.5c-21.333 -1.33301 -42.666 -4.16602 -63.999 -8.49902s-40.333 -12 -57 -23s-30.167 -26.167 -40.5 -45.5s-15.5 -45 -15.5 -77
c0 -36 9.5 -65 28.5 -87s45.5 -37 79.5 -45c-17.333 -4 -32.333 -6 -45 -6zM449.997 206.997c0 -23.333 -3.99805 -46.1631 -11.998 -68.4961s-19.5 -42.5 -34.5 -60.5s-33.833 -33.167 -56.5 -45.5s-48.334 -20.166 -77.001 -23.499l5 26c-15.333 -10 -32.333 -19 -51 -27
c-24.667 1.33301 -45.334 5.66602 -62.001 12.999s-30.167 16.5 -40.5 27.5s-17.833 23.333 -22.5 37s-7 27.5 -7 41.5c0 35.333 7.5 62.166 22.5 80.499s34 31.666 57 39.999s48.5 13.166 76.5 14.499l81.5 4c26.333 1.33301 50.333 4.16602 72 8.49902
s37.167 13.5 46.5 27.5h2v-95zM177.999 528c18.667 2.66699 37.9951 4.66309 57.9951 5.99609s40.667 2 62 2c46.667 0 87 -2.66699 121 -8s62 -14 84 -26s38.167 -27.833 48.5 -47.5s15.5 -43.5 15.5 -71.5c0 -14.667 -0.666992 -29.167 -2 -43.5s-3 -27.833 -5 -40.5
l-50 -281c-10.667 0 -20 2.16699 -28 6.5s-12 13.5 -12 27.5v327c-0.666992 28 -5.66699 51.333 -15 70s-21.666 33.834 -36.999 45.501s-33.166 19.834 -53.499 24.501s-41.833 7 -64.5 7c-31.333 0 -58.666 -4.16699 -81.999 -12.5s-43.166 -19.666 -59.499 -33.999
s-29 -31.5 -38 -51.5s-14.5 -41.667 -16.5 -65l-15 148c11.333 3.33301 24.333 6.33301 39 9s31.334 5.33398 50.001 8.00098zM304.994 201.996c-13.333 7.33301 -27.666 11 -42.999 11c-13.333 0 -23.5 -5.5 -30.5 -16.5s-10.5 -23.833 -10.5 -38.5
c0 -11.333 3.16699 -19.5 9.5 -24.5s14.833 -7.5 25.5 -7.5c11.333 0 23.666 2 36.999 6zM447.994 116.996h2v-67c0 -16 3.83301 -27.833 11.5 -35.5s17.167 -12.5 28.5 -14.5h-169c33.333 10.667 60.833 26.667 82.5 48s36.5 44.333 44.5 69zM268.994 558.996l-176 216h312
l60 -216h-196zM352.994 587.996h15l-125 144h-29z" />
    <glyph glyph-name="aacute" unicode="&#xe1;" horiz-adv-x="581" 
d="M135 -11c-48 0 -84.3359 12.6641 -109.003 37.9971s-37 59 -37 101c0 36.667 6 67.834 18 93.501s27.667 46.5 47 62.5s41 27.667 65 35s48.333 11 73 11c24 0 47.5 -2.33301 70.5 -7s43.167 -11 60.5 -19l2 14c0.666992 3.33301 1 8.33301 1 15
c0 20.667 -7.33301 33.5 -22 38.5s-34 7.5 -58 7.5c-23.333 0 -44.333 -1.33301 -63 -4s-38.334 -6.66699 -59.001 -12c5.33301 46 22.833 81.333 52.5 106s70.834 37 123.501 37c34 0 61 -4.5 81 -13.5s35.167 -20.5 45.5 -34.5s16.833 -29.333 19.5 -46s4 -32.667 4 -48
c0 -19.333 -3.83301 -34.166 -11.5 -44.499s-19.667 -18 -36 -23s-37.166 -8.33301 -62.499 -10s-55.666 -3.5 -90.999 -5.5c-21.333 -1.33301 -42.666 -4.16602 -63.999 -8.49902s-40.333 -12 -57 -23s-30.167 -26.167 -40.5 -45.5s-15.5 -45 -15.5 -77
c0 -36 9.5 -65 28.5 -87s45.5 -37 79.5 -45c-17.333 -4 -32.333 -6 -45 -6zM449.997 206.997c0 -23.333 -3.99805 -46.1631 -11.998 -68.4961s-19.5 -42.5 -34.5 -60.5s-33.833 -33.167 -56.5 -45.5s-48.334 -20.166 -77.001 -23.499l5 26c-15.333 -10 -32.333 -19 -51 -27
c-24.667 1.33301 -45.334 5.66602 -62.001 12.999s-30.167 16.5 -40.5 27.5s-17.833 23.333 -22.5 37s-7 27.5 -7 41.5c0 35.333 7.5 62.166 22.5 80.499s34 31.666 57 39.999s48.5 13.166 76.5 14.499l81.5 4c26.333 1.33301 50.333 4.16602 72 8.49902
s37.167 13.5 46.5 27.5h2v-95zM177.999 528c18.667 2.66699 37.9951 4.66309 57.9951 5.99609s40.667 2 62 2c46.667 0 87 -2.66699 121 -8s62 -14 84 -26s38.167 -27.833 48.5 -47.5s15.5 -43.5 15.5 -71.5c0 -14.667 -0.666992 -29.167 -2 -43.5s-3 -27.833 -5 -40.5
l-50 -281c-10.667 0 -20 2.16699 -28 6.5s-12 13.5 -12 27.5v327c-0.666992 28 -5.66699 51.333 -15 70s-21.666 33.834 -36.999 45.501s-33.166 19.834 -53.499 24.501s-41.833 7 -64.5 7c-31.333 0 -58.666 -4.16699 -81.999 -12.5s-43.166 -19.666 -59.499 -33.999
s-29 -31.5 -38 -51.5s-14.5 -41.667 -16.5 -65l-15 148c11.333 3.33301 24.333 6.33301 39 9s31.334 5.33398 50.001 8.00098zM304.994 201.996c-13.333 7.33301 -27.666 11 -42.999 11c-13.333 0 -23.5 -5.5 -30.5 -16.5s-10.5 -23.833 -10.5 -38.5
c0 -11.333 3.16699 -19.5 9.5 -24.5s14.833 -7.5 25.5 -7.5c11.333 0 23.666 2 36.999 6zM447.994 116.996h2v-67c0 -16 3.83301 -27.833 11.5 -35.5s17.167 -12.5 28.5 -14.5h-169c33.333 10.667 60.833 26.667 82.5 48s36.5 44.333 44.5 69zM420.994 558.996h-196l136 216
h312zM405.994 731.996l-132 -144h15l146 144h-29z" />
    <glyph glyph-name="acircumflex" unicode="&#xe2;" horiz-adv-x="581" 
d="M135 -11c-48 0 -84.3359 12.6641 -109.003 37.9971s-37 59 -37 101c0 36.667 6 67.834 18 93.501s27.667 46.5 47 62.5s41 27.667 65 35s48.333 11 73 11c24 0 47.5 -2.33301 70.5 -7s43.167 -11 60.5 -19l2 14c0.666992 3.33301 1 8.33301 1 15
c0 20.667 -7.33301 33.5 -22 38.5s-34 7.5 -58 7.5c-23.333 0 -44.333 -1.33301 -63 -4s-38.334 -6.66699 -59.001 -12c5.33301 46 22.833 81.333 52.5 106s70.834 37 123.501 37c34 0 61 -4.5 81 -13.5s35.167 -20.5 45.5 -34.5s16.833 -29.333 19.5 -46s4 -32.667 4 -48
c0 -19.333 -3.83301 -34.166 -11.5 -44.499s-19.667 -18 -36 -23s-37.166 -8.33301 -62.499 -10s-55.666 -3.5 -90.999 -5.5c-21.333 -1.33301 -42.666 -4.16602 -63.999 -8.49902s-40.333 -12 -57 -23s-30.167 -26.167 -40.5 -45.5s-15.5 -45 -15.5 -77
c0 -36 9.5 -65 28.5 -87s45.5 -37 79.5 -45c-17.333 -4 -32.333 -6 -45 -6zM449.997 206.997c0 -23.333 -3.99805 -46.1631 -11.998 -68.4961s-19.5 -42.5 -34.5 -60.5s-33.833 -33.167 -56.5 -45.5s-48.334 -20.166 -77.001 -23.499l5 26c-15.333 -10 -32.333 -19 -51 -27
c-24.667 1.33301 -45.334 5.66602 -62.001 12.999s-30.167 16.5 -40.5 27.5s-17.833 23.333 -22.5 37s-7 27.5 -7 41.5c0 35.333 7.5 62.166 22.5 80.499s34 31.666 57 39.999s48.5 13.166 76.5 14.499l81.5 4c26.333 1.33301 50.333 4.16602 72 8.49902
s37.167 13.5 46.5 27.5h2v-95zM177.999 528c18.667 2.66699 37.9951 4.66309 57.9951 5.99609s40.667 2 62 2c46.667 0 87 -2.66699 121 -8s62 -14 84 -26s38.167 -27.833 48.5 -47.5s15.5 -43.5 15.5 -71.5c0 -14.667 -0.666992 -29.167 -2 -43.5s-3 -27.833 -5 -40.5
l-50 -281c-10.667 0 -20 2.16699 -28 6.5s-12 13.5 -12 27.5v327c-0.666992 28 -5.66699 51.333 -15 70s-21.666 33.834 -36.999 45.501s-33.166 19.834 -53.499 24.501s-41.833 7 -64.5 7c-31.333 0 -58.666 -4.16699 -81.999 -12.5s-43.166 -19.666 -59.499 -33.999
s-29 -31.5 -38 -51.5s-14.5 -41.667 -16.5 -65l-15 148c11.333 3.33301 24.333 6.33301 39 9s31.334 5.33398 50.001 8.00098zM304.994 201.996c-13.333 7.33301 -27.666 11 -42.999 11c-13.333 0 -23.5 -5.5 -30.5 -16.5s-10.5 -23.833 -10.5 -38.5
c0 -11.333 3.16699 -19.5 9.5 -24.5s14.833 -7.5 25.5 -7.5c11.333 0 23.666 2 36.999 6zM447.994 116.996h2v-67c0 -16 3.83301 -27.833 11.5 -35.5s17.167 -12.5 28.5 -14.5h-169c33.333 10.667 60.833 26.667 82.5 48s36.5 44.333 44.5 69zM394.994 558.996l-51 66
l-75 -66h-202l209 220h190l131 -220h-202zM464.994 590.996l-114 139h-15l-113 -139h20l99 123l103 -123h20z" />
    <glyph glyph-name="atilde" unicode="&#xe3;" horiz-adv-x="581" 
d="M135 -11c-48 0 -84.3359 12.6641 -109.003 37.9971s-37 59 -37 101c0 36.667 6 67.834 18 93.501s27.667 46.5 47 62.5s41 27.667 65 35s48.333 11 73 11c24 0 47.5 -2.33301 70.5 -7s43.167 -11 60.5 -19l2 14c0.666992 3.33301 1 8.33301 1 15
c0 20.667 -7.33301 33.5 -22 38.5s-34 7.5 -58 7.5c-23.333 0 -44.333 -1.33301 -63 -4s-38.334 -6.66699 -59.001 -12c5.33301 46 22.833 81.333 52.5 106s70.834 37 123.501 37c34 0 61 -4.5 81 -13.5s35.167 -20.5 45.5 -34.5s16.833 -29.333 19.5 -46s4 -32.667 4 -48
c0 -19.333 -3.83301 -34.166 -11.5 -44.499s-19.667 -18 -36 -23s-37.166 -8.33301 -62.499 -10s-55.666 -3.5 -90.999 -5.5c-21.333 -1.33301 -42.666 -4.16602 -63.999 -8.49902s-40.333 -12 -57 -23s-30.167 -26.167 -40.5 -45.5s-15.5 -45 -15.5 -77
c0 -36 9.5 -65 28.5 -87s45.5 -37 79.5 -45c-17.333 -4 -32.333 -6 -45 -6zM449.997 206.997c0 -23.333 -3.99805 -46.1631 -11.998 -68.4961s-19.5 -42.5 -34.5 -60.5s-33.833 -33.167 -56.5 -45.5s-48.334 -20.166 -77.001 -23.499l5 26c-15.333 -10 -32.333 -19 -51 -27
c-24.667 1.33301 -45.334 5.66602 -62.001 12.999s-30.167 16.5 -40.5 27.5s-17.833 23.333 -22.5 37s-7 27.5 -7 41.5c0 35.333 7.5 62.166 22.5 80.499s34 31.666 57 39.999s48.5 13.166 76.5 14.499l81.5 4c26.333 1.33301 50.333 4.16602 72 8.49902
s37.167 13.5 46.5 27.5h2v-95zM177.999 528c18.667 2.66699 37.9951 4.66309 57.9951 5.99609s40.667 2 62 2c46.667 0 87 -2.66699 121 -8s62 -14 84 -26s38.167 -27.833 48.5 -47.5s15.5 -43.5 15.5 -71.5c0 -14.667 -0.666992 -29.167 -2 -43.5s-3 -27.833 -5 -40.5
l-50 -281c-10.667 0 -20 2.16699 -28 6.5s-12 13.5 -12 27.5v327c-0.666992 28 -5.66699 51.333 -15 70s-21.666 33.834 -36.999 45.501s-33.166 19.834 -53.499 24.501s-41.833 7 -64.5 7c-31.333 0 -58.666 -4.16699 -81.999 -12.5s-43.166 -19.666 -59.499 -33.999
s-29 -31.5 -38 -51.5s-14.5 -41.667 -16.5 -65l-15 148c11.333 3.33301 24.333 6.33301 39 9s31.334 5.33398 50.001 8.00098zM304.994 201.996c-13.333 7.33301 -27.666 11 -42.999 11c-13.333 0 -23.5 -5.5 -30.5 -16.5s-10.5 -23.833 -10.5 -38.5
c0 -11.333 3.16699 -19.5 9.5 -24.5s14.833 -7.5 25.5 -7.5c11.333 0 23.666 2 36.999 6zM447.994 116.996h2v-67c0 -16 3.83301 -27.833 11.5 -35.5s17.167 -12.5 28.5 -14.5h-169c33.333 10.667 60.833 26.667 82.5 48s36.5 44.333 44.5 69zM612.994 778.996
c-13.333 -78 -35.668 -134.5 -67.001 -169.5s-73.333 -52.5 -126 -52.5c-19.333 0 -37.166 2.83301 -53.499 8.5s-31 11.834 -44 18.501s-24.5 12.834 -34.5 18.501s-18.667 8.5 -26 8.5c-6 0 -11.167 -3.5 -15.5 -10.5s-8.5 -20.5 -12.5 -40.5h-181
c13.333 78 35.666 134.5 66.999 169.5s73.333 52.5 126 52.5c20.667 0 39.167 -2.83301 55.5 -8.5s30.833 -11.834 43.5 -18.501s23.834 -12.834 33.501 -18.501s18.167 -8.5 25.5 -8.5c6 0 11.167 3.5 15.5 10.5s8.5 20.5 12.5 40.5h181zM221.992 629.996
c1.33301 13.333 5.83301 26.499 13.5 39.499s19.167 19.5 34.5 19.5c10.667 0 21 -3 31 -9s20 -12.667 30 -20s20.333 -14 31 -20s22.334 -9 35.001 -9c38.667 0 61.667 25 69 75h-20c-3.33301 -20 -9.16602 -34.167 -17.499 -42.5s-18.833 -12.5 -31.5 -12.5
c-10 0 -20 3 -30 9s-20.333 12.667 -31 20s-21.5 14 -32.5 20s-22.167 9 -33.5 9c-10 0 -19 -2.33301 -27 -7s-14.833 -10.667 -20.5 -18s-10.334 -15.666 -14.001 -24.999s-5.83398 -19 -6.50098 -29h20z" />
    <glyph glyph-name="adieresis" unicode="&#xe4;" horiz-adv-x="581" 
d="M135 -11c-48 0 -84.3359 12.6641 -109.003 37.9971s-37 59 -37 101c0 36.667 6 67.834 18 93.501s27.667 46.5 47 62.5s41 27.667 65 35s48.333 11 73 11c24 0 47.5 -2.33301 70.5 -7s43.167 -11 60.5 -19l2 14c0.666992 3.33301 1 8.33301 1 15
c0 20.667 -7.33301 33.5 -22 38.5s-34 7.5 -58 7.5c-23.333 0 -44.333 -1.33301 -63 -4s-38.334 -6.66699 -59.001 -12c5.33301 46 22.833 81.333 52.5 106s70.834 37 123.501 37c34 0 61 -4.5 81 -13.5s35.167 -20.5 45.5 -34.5s16.833 -29.333 19.5 -46s4 -32.667 4 -48
c0 -19.333 -3.83301 -34.166 -11.5 -44.499s-19.667 -18 -36 -23s-37.166 -8.33301 -62.499 -10s-55.666 -3.5 -90.999 -5.5c-21.333 -1.33301 -42.666 -4.16602 -63.999 -8.49902s-40.333 -12 -57 -23s-30.167 -26.167 -40.5 -45.5s-15.5 -45 -15.5 -77
c0 -36 9.5 -65 28.5 -87s45.5 -37 79.5 -45c-17.333 -4 -32.333 -6 -45 -6zM449.997 206.997c0 -23.333 -3.99805 -46.1631 -11.998 -68.4961s-19.5 -42.5 -34.5 -60.5s-33.833 -33.167 -56.5 -45.5s-48.334 -20.166 -77.001 -23.499l5 26c-15.333 -10 -32.333 -19 -51 -27
c-24.667 1.33301 -45.334 5.66602 -62.001 12.999s-30.167 16.5 -40.5 27.5s-17.833 23.333 -22.5 37s-7 27.5 -7 41.5c0 35.333 7.5 62.166 22.5 80.499s34 31.666 57 39.999s48.5 13.166 76.5 14.499l81.5 4c26.333 1.33301 50.333 4.16602 72 8.49902
s37.167 13.5 46.5 27.5h2v-95zM177.999 528c18.667 2.66699 37.9951 4.66309 57.9951 5.99609s40.667 2 62 2c46.667 0 87 -2.66699 121 -8s62 -14 84 -26s38.167 -27.833 48.5 -47.5s15.5 -43.5 15.5 -71.5c0 -14.667 -0.666992 -29.167 -2 -43.5s-3 -27.833 -5 -40.5
l-50 -281c-10.667 0 -20 2.16699 -28 6.5s-12 13.5 -12 27.5v327c-0.666992 28 -5.66699 51.333 -15 70s-21.666 33.834 -36.999 45.501s-33.166 19.834 -53.499 24.501s-41.833 7 -64.5 7c-31.333 0 -58.666 -4.16699 -81.999 -12.5s-43.166 -19.666 -59.499 -33.999
s-29 -31.5 -38 -51.5s-14.5 -41.667 -16.5 -65l-15 148c11.333 3.33301 24.333 6.33301 39 9s31.334 5.33398 50.001 8.00098zM304.994 201.996c-13.333 7.33301 -27.666 11 -42.999 11c-13.333 0 -23.5 -5.5 -30.5 -16.5s-10.5 -23.833 -10.5 -38.5
c0 -11.333 3.16699 -19.5 9.5 -24.5s14.833 -7.5 25.5 -7.5c11.333 0 23.666 2 36.999 6zM447.994 116.996h2v-67c0 -16 3.83301 -27.833 11.5 -35.5s17.167 -12.5 28.5 -14.5h-169c33.333 10.667 60.833 26.667 82.5 48s36.5 44.333 44.5 69zM496.994 550.996
c-16.667 0 -32.1621 3.00195 -46.4951 9.00195s-27 14.333 -38 25s-19.667 23 -26 37s-9.5 29 -9.5 45c0 18.667 4 36.167 12 52.5s18.667 30.666 32 42.999s28.666 22.166 45.999 29.499s35.666 11 54.999 11c16 0 31.167 -2.83301 45.5 -8.5s26.666 -13.667 36.999 -24
s18.666 -22.333 24.999 -36s9.5 -28.5 9.5 -44.5s-3.5 -32.167 -10.5 -48.5s-16.667 -31.333 -29 -45s-27.333 -24.667 -45 -33s-36.834 -12.5 -57.501 -12.5zM207.999 550.998c-16.667 0 -32.1621 3.00195 -46.4951 9.00195s-27 14.333 -38 25s-19.667 23 -26 37
s-9.5 29 -9.5 45c0 18.667 4 36.167 12 52.5s18.667 30.666 32 42.999s28.666 22.166 45.999 29.499s35.666 11 54.999 11c16 0 31.167 -2.83301 45.5 -8.5s26.666 -13.667 36.999 -24s18.666 -22.333 24.999 -36s9.5 -28.5 9.5 -44.5s-3.5 -32.167 -10.5 -48.5
s-16.667 -31.333 -29 -45s-27.333 -24.667 -45 -33s-36.834 -12.5 -57.501 -12.5zM453.004 614v81h-20v-81h20zM157.004 614v81h-20v-81h20z" />
    <glyph glyph-name="aring" unicode="&#xe5;" horiz-adv-x="581" 
d="M135 -11c-48 0 -84.3359 12.6641 -109.003 37.9971s-37 59 -37 101c0 36.667 6 67.834 18 93.501s27.667 46.5 47 62.5s41 27.667 65 35s48.333 11 73 11c24 0 47.5 -2.33301 70.5 -7s43.167 -11 60.5 -19l2 14c0.666992 3.33301 1 8.33301 1 15
c0 20.667 -7.33301 33.5 -22 38.5s-34 7.5 -58 7.5c-23.333 0 -44.333 -1.33301 -63 -4s-38.334 -6.66699 -59.001 -12c5.33301 46 22.833 81.333 52.5 106s70.834 37 123.501 37c34 0 61 -4.5 81 -13.5s35.167 -20.5 45.5 -34.5s16.833 -29.333 19.5 -46s4 -32.667 4 -48
c0 -19.333 -3.83301 -34.166 -11.5 -44.499s-19.667 -18 -36 -23s-37.166 -8.33301 -62.499 -10s-55.666 -3.5 -90.999 -5.5c-21.333 -1.33301 -42.666 -4.16602 -63.999 -8.49902s-40.333 -12 -57 -23s-30.167 -26.167 -40.5 -45.5s-15.5 -45 -15.5 -77
c0 -36 9.5 -65 28.5 -87s45.5 -37 79.5 -45c-17.333 -4 -32.333 -6 -45 -6zM449.997 206.997c0 -23.333 -3.99805 -46.1631 -11.998 -68.4961s-19.5 -42.5 -34.5 -60.5s-33.833 -33.167 -56.5 -45.5s-48.334 -20.166 -77.001 -23.499l5 26c-15.333 -10 -32.333 -19 -51 -27
c-24.667 1.33301 -45.334 5.66602 -62.001 12.999s-30.167 16.5 -40.5 27.5s-17.833 23.333 -22.5 37s-7 27.5 -7 41.5c0 35.333 7.5 62.166 22.5 80.499s34 31.666 57 39.999s48.5 13.166 76.5 14.499l81.5 4c26.333 1.33301 50.333 4.16602 72 8.49902
s37.167 13.5 46.5 27.5h2v-95zM177.999 528c18.667 2.66699 37.9951 4.66309 57.9951 5.99609s40.667 2 62 2c46.667 0 87 -2.66699 121 -8s62 -14 84 -26s38.167 -27.833 48.5 -47.5s15.5 -43.5 15.5 -71.5c0 -14.667 -0.666992 -29.167 -2 -43.5s-3 -27.833 -5 -40.5
l-50 -281c-10.667 0 -20 2.16699 -28 6.5s-12 13.5 -12 27.5v327c-0.666992 28 -5.66699 51.333 -15 70s-21.666 33.834 -36.999 45.501s-33.166 19.834 -53.499 24.501s-41.833 7 -64.5 7c-31.333 0 -58.666 -4.16699 -81.999 -12.5s-43.166 -19.666 -59.499 -33.999
s-29 -31.5 -38 -51.5s-14.5 -41.667 -16.5 -65l-15 148c11.333 3.33301 24.333 6.33301 39 9s31.334 5.33398 50.001 8.00098zM304.994 201.996c-13.333 7.33301 -27.666 11 -42.999 11c-13.333 0 -23.5 -5.5 -30.5 -16.5s-10.5 -23.833 -10.5 -38.5
c0 -11.333 3.16699 -19.5 9.5 -24.5s14.833 -7.5 25.5 -7.5c11.333 0 23.666 2 36.999 6zM447.994 116.996h2v-67c0 -16 3.83301 -27.833 11.5 -35.5s17.167 -12.5 28.5 -14.5h-169c33.333 10.667 60.833 26.667 82.5 48s36.5 44.333 44.5 69zM505.994 692.996
c0 -20 -3.66699 -38.333 -11 -55s-17.5 -31.167 -30.5 -43.5s-28 -22 -45 -29s-35.5 -10.5 -55.5 -10.5s-38.5 3.5 -55.5 10.5s-32 16.667 -45 29s-23.167 26.833 -30.5 43.5s-11 35 -11 55s3.66699 38.333 11 55s17.5 31.334 30.5 44.001s28 22.5 45 29.5
s35.5 10.5 55.5 10.5s38.5 -3.5 55.5 -10.5s32 -16.833 45 -29.5s23.167 -27.334 30.5 -44.001s11 -35 11 -55zM412.994 692.996c0 16 -4.33301 29 -13 39s-20.667 15 -36 15s-27.333 -5 -36 -15s-13 -23 -13 -39s4.33301 -28.833 13 -38.5s20.667 -14.5 36 -14.5
s27.333 4.83301 36 14.5s13 22.5 13 38.5z" />
    <glyph glyph-name="ae" unicode="&#xe6;" horiz-adv-x="891" 
d="M180 529c16 2.66699 33 4.5 51 5.5s37 1.5 57 1.5c48 0 89.667 -3.66699 125 -11s63.666 -19.666 84.999 -36.999c42 32 89.333 48 142 48c32.667 0 63.5 -4 92.5 -12s54.333 -21 76 -39s38.834 -41.333 51.501 -70s19 -63.334 19 -104.001
c0 -15.333 -1 -32.833 -3 -52.5s-5 -38.167 -9 -55.5h-321c3.33301 -12.667 7.83301 -23 13.5 -31s13.167 -14.333 22.5 -19s21 -7.83398 35 -9.50098s30.667 -2.5 50 -2.5c45.333 0 91 7.66699 137 23l14 -61c-17.333 -32 -41.5 -55.833 -72.5 -71.5
s-65.5 -23.5 -103.5 -23.5c-36.667 0 -67.834 6.33301 -93.501 19s-46.5 30.167 -62.5 52.5s-27.833 48.333 -35.5 78s-12.167 61.5 -13.5 95.5h427v14c0 34.667 -4.33301 67.667 -13 99s-22 58.833 -40 82.5s-40.833 42.5 -68.5 56.5s-60.5 21 -98.5 21
c-27.333 0 -52 -3.83301 -74 -11.5s-41.667 -18.167 -59 -31.5s-32 -29.166 -44 -47.499s-21.333 -38.166 -28 -59.499h-2c-0.666992 28.667 -5.66699 52.667 -15 72s-21.666 34.666 -36.999 45.999s-33.166 19.5 -53.499 24.5s-41.833 7.5 -64.5 7.5
c-42.667 0 -78 -7.5 -106 -22.5s-49.667 -35.167 -65 -60.5l-7 68c29.333 8 59.666 14 90.999 18zM417 207c0 -25.333 -4.5 -50.002 -13.5 -74.002s-22.333 -45.167 -40 -63.5s-39.5 -33.166 -65.5 -44.499s-55.667 -17 -89 -17c-28 0 -51.5 3.5 -70.5 10.5
s-34.5 16 -46.5 27s-20.5 23.667 -25.5 38s-7.5 28.833 -7.5 43.5c0 26.667 4.33301 48.334 13 65.001s20.167 30 34.5 40s31 17.167 50 21.5s38.667 7.33301 59 9s40.833 2.66699 61.5 3s40 1.33301 58 3s34 5 48 10s24.667 12.833 32 23.5h2v-95zM437 272.998
c2.66699 35.333 9.00098 67.333 19.001 96s23.667 53.167 41 73.5s38.333 36 63 47s52.667 16.5 84 16.5c34 0 63.5 -6.16699 88.5 -18.5s45.667 -29 62 -50s28.666 -45.667 36.999 -74s12.5 -58.5 12.5 -90.5h-407zM155.001 -11.002
c-110.667 0 -166.003 46.3301 -166.003 138.997c0 36.667 6 67.834 18 93.501s27.667 46.5 47 62.5s41 27.667 65 35s48.333 11 73 11c24 0 47.5 -2.33301 70.5 -7s43.167 -11 60.5 -19l2 14c0.666992 3.33301 1 8.33301 1 15c0 10.667 -2 19 -6 25s-9.5 10.5 -16.5 13.5
s-15.5 5 -25.5 6s-21.333 1.5 -34 1.5c-22 0 -43.667 -1.5 -65 -4.5s-46 -8.16699 -74 -15.5l-5 44c10.667 33.333 30.167 58.833 58.5 76.5s64.5 26.5 108.5 26.5c34 0 61 -4.5 81 -13.5s35.167 -20.5 45.5 -34.5s16.833 -29.333 19.5 -46s4 -32.667 4 -48
c0 -19.333 -3.83301 -34.166 -11.5 -44.499s-19.667 -18 -36 -23s-37.166 -8.33301 -62.499 -10s-55.666 -3.5 -90.999 -5.5c-21.333 -1.33301 -42.666 -4.16602 -63.999 -8.49902s-40.333 -12 -57 -23s-30.167 -26.167 -40.5 -45.5s-15.5 -45 -15.5 -77
c0 -42 12.667 -74.333 38 -97s60 -36 104 -40c-4.66699 -0.666992 -9 -1 -13 -1h-13zM392.998 50.9951l-23 -12c-8 -4 -16.333 -7.66699 -25 -11c21.333 14.667 39.166 32.5 53.499 53.5s24.166 45.5 29.499 73.5h2c12.667 -50 34.834 -89.167 66.501 -117.5
s71.834 -44.5 120.501 -48.5h-4c-50 0 -92.833 5.66699 -128.5 17s-66.167 26.333 -91.5 45zM304.998 201.995c-13.333 7.33301 -27.666 11 -42.999 11c-13.333 0 -23.5 -5.5 -30.5 -16.5s-10.5 -23.833 -10.5 -38.5c0 -11.333 3.16699 -19.5 9.5 -24.5
s14.833 -7.5 25.5 -7.5c11.333 0 23.666 2 36.999 6zM673.998 323.995c0 21.333 -3.66797 37.168 -11.001 47.501s-20 15.5 -38 15.5c-19.333 0 -34.166 -5.83301 -44.499 -17.5s-17.833 -26.834 -22.5 -45.501h116zM836.997 21.9971
c-25.333 -9.33301 -50.167 -16.335 -74.5 -21.002s-51.5 -8 -81.5 -10c30.667 4.66699 58.167 14.334 82.5 29.001s44.5 33.334 60.5 56.001z" />
    <glyph glyph-name="ccedilla" unicode="&#xe7;" horiz-adv-x="567" 
d="M140 -170c9.33301 -4.66699 20.999 -8.83105 34.999 -12.498s29 -5.5 45 -5.5c26.667 0 48.834 7.16699 66.501 21.5s26.5 33.166 26.5 56.499c0 20.667 -7.33301 35.834 -22 45.501s-32.667 14.5 -54 14.5c-13.333 0 -24.333 -2 -33 -6l36 44
c27.333 0.666992 52.666 5.66699 75.999 15s43.666 22.166 60.999 38.499s31.333 35.666 42 57.999s17.334 47.5 20.001 75.5h-20c-2 -26 -8.33301 -49.167 -19 -69.5s-24.5 -37.833 -41.5 -52.5s-36.667 -25.834 -59 -33.501s-45.833 -11.5 -70.5 -11.5
c-34 0 -64 6.5 -90 19.5s-47.667 30.5 -65 52.5s-30.5 47.333 -39.5 76s-13.5 58.667 -13.5 90c0 37.333 5.5 73.333 16.5 108s30.167 66.334 57.5 95.001l22 21c16 11.333 34.333 20.166 55 26.499s43.667 9.5 69 9.5c21.333 0 41.666 -3 60.999 -9
s36.666 -15.167 51.999 -27.5s28.333 -27.833 39 -46.5s18 -40.334 22 -65.001h20c-3.33301 27.333 -10.833 51.5 -22.5 72.5s-26.167 38.5 -43.5 52.5s-37 24.667 -59 32s-45 11 -69 11h-12c26 6.66699 54.667 10 86 10c83.333 0 145.166 -18.5 185.499 -55.5
s63.5 -90.833 69.5 -161.5l-223 -35v20c0 22.667 -2.5 38.334 -7.5 47.001s-13.5 13 -25.5 13s-21.833 -6.33301 -29.5 -19s-14 -27.5 -19 -44.5s-8.5 -34.167 -10.5 -51.5s-3 -30.333 -3 -39c0 -18 3 -30.667 9 -38s14.667 -11 26 -11c9.33301 0 19 4.5 29 13.5
s19.333 25.5 28 49.5l194 -71c-25.333 -50.667 -59.5 -90.667 -102.5 -120s-93.833 -44 -152.5 -44h-15l-17 -27c12 3.33301 24.333 5 37 5c24.667 0 45.334 -5.66699 62.001 -17s25 -28.333 25 -51c0 -33.333 -13.167 -58.666 -39.5 -75.999s-58.5 -26 -96.5 -26
c-38.667 0 -72.5 4.5 -101.5 13.5s-55.5 20.5 -79.5 34.5l40 60c20 -10.667 38.5 -19.167 55.5 -25.5s35.167 -9.5 54.5 -9.5c13.333 0 22.5 1.83301 27.5 5.5s7.5 8.83398 7.5 15.501c0 11.333 -7.66699 17 -23 17c-7.33301 0 -14.166 -1.33301 -20.499 -4
s-11.833 -5.33398 -16.5 -8.00098l-33 26l42 68l27 -2l-51 -61l15 -10c14.667 8.66699 32.667 13 54 13c11.333 0 23 -2.83301 35 -8.5s18 -17.167 18 -34.5c0 -15.333 -6.33301 -28.333 -19 -39s-29.667 -16 -51 -16c-13.333 0 -25.666 1.5 -36.999 4.5
s-22.666 7.16699 -33.999 12.5z" />
    <glyph glyph-name="egrave" unicode="&#xe8;" horiz-adv-x="578" 
d="M518 253v14.0049c0 34 -4.5 66.5 -13.5 97.5s-22.667 58.5 -41 82.5s-41.666 43.167 -69.999 57.5s-61.833 21.5 -100.5 21.5c-29.333 0 -57.5 -6 -84.5 -18s-50.833 -29.5 -71.5 -52.5s-37.334 -51.167 -50.001 -84.5s-19 -71.333 -19 -114
c0 -34 3.33301 -65.833 10 -95.5s17 -56.334 31 -80.001s32 -43.334 54 -59.001s48.333 -25.834 79 -30.501c-81.333 9.33301 -140.333 34.166 -177 74.499s-55 93.833 -55 160.5c0 48.667 7.66699 92 23 130s37 70.333 65 97s61.333 47 100 61s81.667 21 129 21
c32.667 0 63.5 -4 92.5 -12s54.333 -21 76 -39s38.834 -41.333 51.501 -70s19 -63.334 19 -104.001c0 -15.333 -1 -32.833 -3 -52.5s-5 -38.167 -9 -55.5h-321c3.33301 -12.667 7.83301 -23 13.5 -31s13.167 -14.333 22.5 -19s21 -7.83398 35 -9.50098s30.667 -2.5 50 -2.5
c46.667 0 91.667 7.33301 135 22c-10.667 -51.333 -33.5 -90 -68.5 -116s-78.167 -39 -129.5 -39c-36.667 0 -67.667 6.33301 -93 19s-46 30 -62 52s-27.833 47.833 -35.5 77.5s-11.834 61.834 -12.501 96.501h430zM88 273.005c2 36 8.66992 68.3301 20.0029 96.9971
s26.166 53.167 44.499 73.5s39.666 35.833 63.999 46.5s50.5 16 78.5 16c33.333 0 62.666 -6.16699 87.999 -18.5s46.5 -29.166 63.5 -50.499s29.833 -46.166 38.5 -74.499s13 -58.166 13 -89.499h-410zM361.003 324.002c0 21.333 -3.66797 37.168 -11.001 47.501
s-20 15.5 -38 15.5c-19.333 0 -34.166 -5.83301 -44.499 -17.5s-17.833 -26.834 -22.5 -45.501h116zM260.002 559.004l-176 216h312l60 -216h-196zM344.002 588.004h15l-125 144h-29z" />
    <glyph glyph-name="eacute" unicode="&#xe9;" horiz-adv-x="578" 
d="M518 253v14.0049c0 34 -4.5 66.5 -13.5 97.5s-22.667 58.5 -41 82.5s-41.666 43.167 -69.999 57.5s-61.833 21.5 -100.5 21.5c-29.333 0 -57.5 -6 -84.5 -18s-50.833 -29.5 -71.5 -52.5s-37.334 -51.167 -50.001 -84.5s-19 -71.333 -19 -114
c0 -34 3.33301 -65.833 10 -95.5s17 -56.334 31 -80.001s32 -43.334 54 -59.001s48.333 -25.834 79 -30.501c-81.333 9.33301 -140.333 34.166 -177 74.499s-55 93.833 -55 160.5c0 48.667 7.66699 92 23 130s37 70.333 65 97s61.333 47 100 61s81.667 21 129 21
c32.667 0 63.5 -4 92.5 -12s54.333 -21 76 -39s38.834 -41.333 51.501 -70s19 -63.334 19 -104.001c0 -15.333 -1 -32.833 -3 -52.5s-5 -38.167 -9 -55.5h-321c3.33301 -12.667 7.83301 -23 13.5 -31s13.167 -14.333 22.5 -19s21 -7.83398 35 -9.50098s30.667 -2.5 50 -2.5
c46.667 0 91.667 7.33301 135 22c-10.667 -51.333 -33.5 -90 -68.5 -116s-78.167 -39 -129.5 -39c-36.667 0 -67.667 6.33301 -93 19s-46 30 -62 52s-27.833 47.833 -35.5 77.5s-11.834 61.834 -12.501 96.501h430zM88 273.005c2 36 8.66992 68.3301 20.0029 96.9971
s26.166 53.167 44.499 73.5s39.666 35.833 63.999 46.5s50.5 16 78.5 16c33.333 0 62.666 -6.16699 87.999 -18.5s46.5 -29.166 63.5 -50.499s29.833 -46.166 38.5 -74.499s13 -58.166 13 -89.499h-410zM361.003 324.002c0 21.333 -3.66797 37.168 -11.001 47.501
s-20 15.5 -38 15.5c-19.333 0 -34.166 -5.83301 -44.499 -17.5s-17.833 -26.834 -22.5 -45.501h116zM420.002 559.004h-196l136 216h312zM405.002 732.004l-132 -144h15l146 144h-29z" />
    <glyph glyph-name="ecircumflex" unicode="&#xea;" horiz-adv-x="578" 
d="M518 253v14.0049c0 34 -4.5 66.5 -13.5 97.5s-22.667 58.5 -41 82.5s-41.666 43.167 -69.999 57.5s-61.833 21.5 -100.5 21.5c-29.333 0 -57.5 -6 -84.5 -18s-50.833 -29.5 -71.5 -52.5s-37.334 -51.167 -50.001 -84.5s-19 -71.333 -19 -114
c0 -34 3.33301 -65.833 10 -95.5s17 -56.334 31 -80.001s32 -43.334 54 -59.001s48.333 -25.834 79 -30.501c-81.333 9.33301 -140.333 34.166 -177 74.499s-55 93.833 -55 160.5c0 48.667 7.66699 92 23 130s37 70.333 65 97s61.333 47 100 61s81.667 21 129 21
c32.667 0 63.5 -4 92.5 -12s54.333 -21 76 -39s38.834 -41.333 51.501 -70s19 -63.334 19 -104.001c0 -15.333 -1 -32.833 -3 -52.5s-5 -38.167 -9 -55.5h-321c3.33301 -12.667 7.83301 -23 13.5 -31s13.167 -14.333 22.5 -19s21 -7.83398 35 -9.50098s30.667 -2.5 50 -2.5
c46.667 0 91.667 7.33301 135 22c-10.667 -51.333 -33.5 -90 -68.5 -116s-78.167 -39 -129.5 -39c-36.667 0 -67.667 6.33301 -93 19s-46 30 -62 52s-27.833 47.833 -35.5 77.5s-11.834 61.834 -12.501 96.501h430zM88 273.005c2 36 8.66992 68.3301 20.0029 96.9971
s26.166 53.167 44.499 73.5s39.666 35.833 63.999 46.5s50.5 16 78.5 16c33.333 0 62.666 -6.16699 87.999 -18.5s46.5 -29.166 63.5 -50.499s29.833 -46.166 38.5 -74.499s13 -58.166 13 -89.499h-410zM361.003 324.002c0 21.333 -3.66797 37.168 -11.001 47.501
s-20 15.5 -38 15.5c-19.333 0 -34.166 -5.83301 -44.499 -17.5s-17.833 -26.834 -22.5 -45.501h116zM397.002 559.004l-51 66l-75 -66h-202l209 220h190l131 -220h-202zM467.002 591.004l-114 139h-15l-113 -139h20l99 123l103 -123h20z" />
    <glyph glyph-name="edieresis" unicode="&#xeb;" horiz-adv-x="578" 
d="M518 253v14.0049c0 34 -4.5 66.5 -13.5 97.5s-22.667 58.5 -41 82.5s-41.666 43.167 -69.999 57.5s-61.833 21.5 -100.5 21.5c-29.333 0 -57.5 -6 -84.5 -18s-50.833 -29.5 -71.5 -52.5s-37.334 -51.167 -50.001 -84.5s-19 -71.333 -19 -114
c0 -34 3.33301 -65.833 10 -95.5s17 -56.334 31 -80.001s32 -43.334 54 -59.001s48.333 -25.834 79 -30.501c-81.333 9.33301 -140.333 34.166 -177 74.499s-55 93.833 -55 160.5c0 48.667 7.66699 92 23 130s37 70.333 65 97s61.333 47 100 61s81.667 21 129 21
c32.667 0 63.5 -4 92.5 -12s54.333 -21 76 -39s38.834 -41.333 51.501 -70s19 -63.334 19 -104.001c0 -15.333 -1 -32.833 -3 -52.5s-5 -38.167 -9 -55.5h-321c3.33301 -12.667 7.83301 -23 13.5 -31s13.167 -14.333 22.5 -19s21 -7.83398 35 -9.50098s30.667 -2.5 50 -2.5
c46.667 0 91.667 7.33301 135 22c-10.667 -51.333 -33.5 -90 -68.5 -116s-78.167 -39 -129.5 -39c-36.667 0 -67.667 6.33301 -93 19s-46 30 -62 52s-27.833 47.833 -35.5 77.5s-11.834 61.834 -12.501 96.501h430zM88 273.005c2 36 8.66992 68.3301 20.0029 96.9971
s26.166 53.167 44.499 73.5s39.666 35.833 63.999 46.5s50.5 16 78.5 16c33.333 0 62.666 -6.16699 87.999 -18.5s46.5 -29.166 63.5 -50.499s29.833 -46.166 38.5 -74.499s13 -58.166 13 -89.499h-410zM361.003 324.002c0 21.333 -3.66797 37.168 -11.001 47.501
s-20 15.5 -38 15.5c-19.333 0 -34.166 -5.83301 -44.499 -17.5s-17.833 -26.834 -22.5 -45.501h116zM489.002 551.004c-16.667 0 -32.1621 3.00195 -46.4951 9.00195s-27 14.333 -38 25s-19.667 23 -26 37s-9.5 29 -9.5 45c0 18.667 4 36.167 12 52.5
s18.667 30.666 32 42.999s28.666 22.166 45.999 29.499s35.666 11 54.999 11c16 0 31.167 -2.83301 45.5 -8.5s26.666 -13.667 36.999 -24s18.666 -22.333 24.999 -36s9.5 -28.5 9.5 -44.5s-3.5 -32.167 -10.5 -48.5s-16.667 -31.333 -29 -45s-27.333 -24.667 -45 -33
s-36.834 -12.5 -57.501 -12.5zM200.007 551.006c-16.667 0 -32.1621 3.00195 -46.4951 9.00195s-27 14.333 -38 25s-19.667 23 -26 37s-9.5 29 -9.5 45c0 18.667 4 36.167 12 52.5s18.667 30.666 32 42.999s28.666 22.166 45.999 29.499s35.666 11 54.999 11
c16 0 31.167 -2.83301 45.5 -8.5s26.666 -13.667 36.999 -24s18.666 -22.333 24.999 -36s9.5 -28.5 9.5 -44.5s-3.5 -32.167 -10.5 -48.5s-16.667 -31.333 -29 -45s-27.333 -24.667 -45 -33s-36.834 -12.5 -57.501 -12.5zM445.012 614.008v81h-20v-81h20zM149.012 614.008
v81h-20v-81h20z" />
    <glyph glyph-name="igrave" unicode="&#xec;" horiz-adv-x="322" 
d="M-15 0l93 525h260l-93 -525h-260zM165 514h-20v-514h20v514zM127 559l-176 216h312l60 -216h-196zM211 588h15l-125 144h-29z" />
    <glyph glyph-name="iacute" unicode="&#xed;" horiz-adv-x="322" 
d="M-15 0l93 525h260l-93 -525h-260zM165 514h-20v-514h20v514zM302 559h-196l136 216h312zM287 732l-132 -144h15l146 144h-29z" />
    <glyph glyph-name="icircumflex" unicode="&#xee;" horiz-adv-x="322" 
d="M-15 0l93 525h260l-93 -525h-260zM165 514h-20v-514h20v514zM278 559l-51 66l-75 -66h-202l209 220h190l131 -220h-202zM348 591l-114 139h-15l-113 -139h20l99 123l103 -123h20z" />
    <glyph glyph-name="idieresis" unicode="&#xef;" horiz-adv-x="322" 
d="M-15 0l93 525h260l-93 -525h-260zM165 514h-20v-514h20v514zM370 551c-16.667 0 -32.1621 3.00195 -46.4951 9.00195s-27 14.333 -38 25s-19.667 23 -26 37s-9.5 29 -9.5 45c0 18.667 4 36.167 12 52.5s18.667 30.666 32 42.999s28.666 22.166 45.999 29.499
s35.666 11 54.999 11c16 0 31.167 -2.83301 45.5 -8.5s26.666 -13.667 36.999 -24s18.666 -22.333 24.999 -36s9.5 -28.5 9.5 -44.5s-3.5 -32.167 -10.5 -48.5s-16.667 -31.333 -29 -45s-27.333 -24.667 -45 -33s-36.834 -12.5 -57.501 -12.5zM81.0049 551.002
c-16.667 0 -32.1621 3.00195 -46.4951 9.00195s-27 14.333 -38 25s-19.667 23 -26 37s-9.5 29 -9.5 45c0 18.667 4 36.167 12 52.5s18.667 30.666 32 42.999s28.666 22.166 45.999 29.499s35.666 11 54.999 11c16 0 31.167 -2.83301 45.5 -8.5s26.666 -13.667 36.999 -24
s18.666 -22.333 24.999 -36s9.5 -28.5 9.5 -44.5s-3.5 -32.167 -10.5 -48.5s-16.667 -31.333 -29 -45s-27.333 -24.667 -45 -33s-36.834 -12.5 -57.501 -12.5zM326.01 614.004v81h-20v-81h20zM30.0098 614.004v81h-20v-81h20z" />
    <glyph glyph-name="eth" unicode="&#xf0;" horiz-adv-x="606" 
d="M146 188c0 30.667 4.5 60.335 13.5 89.002s22.5 54.167 40.5 76.5s40.167 40.166 66.5 53.499s56.833 20 91.5 20c34 0 64.167 -6.66699 90.5 -20s48.5 -31.166 66.5 -53.499s31.5 -47.833 40.5 -76.5s13.5 -58.334 13.5 -89.001c0 -15.333 -4.33301 -30.833 -13 -46.5
s-17.667 -29.834 -27 -42.501c-24 -32.667 -55.833 -59.167 -95.5 -79.5s-89.5 -30.5 -149.5 -30.5c-19.333 0 -37.333 1 -54 3c-28 22 -49 50.333 -63 85s-21 71.667 -21 111zM474 711.001l129.999 -111.005l-62 -54c17.333 -28 30.833 -58.667 40.5 -92
s14.5 -72 14.5 -116c0 -33.333 -3.66699 -68.333 -11 -105c-6 63.333 -25.167 122.833 -57.5 178.5s-80.5 112.834 -144.5 171.501l120 67l-15 16l-123 -68c-12 10 -26.167 20.667 -42.5 32s-34.166 22 -53.499 32l-16 -14c19.333 -10 36.666 -20.167 51.999 -30.5
s29 -20.166 41 -29.499l-120 -67c-6.66699 1.33301 -13.167 2.33301 -19.5 3s-13.166 1.33398 -20.499 2.00098l33 186c36 -3.33301 70.167 -9.16602 102.5 -17.499s63.5 -20.166 93.5 -35.499zM173.999 0.996094c-24.667 6.66699 -47.335 15.6689 -68.002 27.002
s-38.334 25.166 -53.001 41.499s-26.167 35.5 -34.5 57.5s-12.5 46.667 -12.5 74c0 38.667 5.83301 73.667 17.5 105s28.334 58.166 50.001 80.499s47.834 39.5 78.501 51.5s65.334 18 104.001 18c12.667 0 25.667 -0.833008 39 -2.5s26 -3.83398 38 -6.50098l4 -1
c-34 -2.66699 -64.167 -11.667 -90.5 -27s-48.5 -34.666 -66.5 -57.999s-31.5 -50 -40.5 -80s-13.5 -61 -13.5 -93c0 -36.667 5.66699 -71.667 17 -105s28.333 -62 51 -86zM316.998 493.998c-16.667 8.66699 -36.334 15.667 -59.001 21l105 59
c12 -10 25.167 -22.167 39.5 -36.5s28.833 -30.333 43.5 -48s28.834 -36.167 42.501 -55.5s25.5 -39 35.5 -59h-4c-17.333 22.667 -38.5 39.667 -63.5 51s-51.167 18 -78.5 20c-14.667 18.667 -35 34.667 -61 48zM342.998 242.998c0 13.333 -3 24.166 -9 32.499
s-16.333 12.5 -31 12.5c-18.667 0 -32.334 -8.83301 -41.001 -26.5s-13 -37.5 -13 -59.5c0 -13.333 3 -24.166 9 -32.499s16.333 -12.5 31 -12.5c18.667 0 32.334 8.83301 41.001 26.5s13 37.5 13 59.5z" />
    <glyph glyph-name="ntilde" unicode="&#xf1;" horiz-adv-x="649" 
d="M314 0l50.9961 286c0.666992 4 1.16699 7.83301 1.5 11.5s0.5 7.16699 0.5 10.5c0 19.333 -10 29 -30 29c-13.333 0 -22.666 -3.33301 -27.999 -10s-9.66602 -18.667 -12.999 -36l-52 -291h-119v291c0 28 3.66699 54.833 11 80.5s18.333 48.5 33 68.5
s32.834 36 54.501 48s46.834 18 75.501 18c24 0 46.667 -2.83301 68 -8.5s40 -15 56 -28s28.667 -30.333 38 -52s14 -48.167 14 -79.5v-338h-161zM392.996 522c12 5.33301 24.834 9 38.501 11s27.167 3 40.5 3c52 0 92.5 -11 121.5 -33s43.5 -59.333 43.5 -112
c-0.666992 -9.33301 -1.33398 -19.166 -2.00098 -29.499s-1.66699 -20.5 -3 -30.5l-58 -331h-79v341c0 46.667 -10.5 84.667 -31.5 114s-49.167 49.666 -84.5 60.999zM104.997 0l-121 0.000976562l93 525h213c-44.667 -4 -81 -18.833 -109 -44.5s-46 -56.834 -54 -93.501h-2
v127h-20v-514zM675.997 779.001c-13.333 -78 -35.668 -134.5 -67.001 -169.5s-73.333 -52.5 -126 -52.5c-19.333 0 -37.166 2.83301 -53.499 8.5s-31 11.834 -44 18.501s-24.5 12.834 -34.5 18.501s-18.667 8.5 -26 8.5c-6 0 -11.167 -3.5 -15.5 -10.5
s-8.5 -20.5 -12.5 -40.5h-181c13.333 78 35.666 134.5 66.999 169.5s73.333 52.5 126 52.5c20.667 0 39.167 -2.83301 55.5 -8.5s30.833 -11.834 43.5 -18.501s23.834 -12.834 33.501 -18.501s18.167 -8.5 25.5 -8.5c6 0 11.167 3.5 15.5 10.5s8.5 20.5 12.5 40.5h181z
M284.995 630.001c1.33301 13.333 5.83301 26.499 13.5 39.499s19.167 19.5 34.5 19.5c10.667 0 21 -3 31 -9s20 -12.667 30 -20s20.333 -14 31 -20s22.334 -9 35.001 -9c38.667 0 61.667 25 69 75h-20c-3.33301 -20 -9.16602 -34.167 -17.499 -42.5
s-18.833 -12.5 -31.5 -12.5c-10 0 -20 3 -30 9s-20.333 12.667 -31 20s-21.5 14 -32.5 20s-22.167 9 -33.5 9c-10 0 -19 -2.33301 -27 -7s-14.833 -10.667 -20.5 -18s-10.334 -15.666 -14.001 -24.999s-5.83398 -19 -6.50098 -29h20z" />
    <glyph glyph-name="ograve" unicode="&#xf2;" horiz-adv-x="606" 
d="M288 -11c-40 0 -76.998 4.5 -110.998 13.5s-63.333 22.667 -88 41s-43.834 41.333 -57.501 69s-20.5 60.5 -20.5 98.5c0 43.333 6 84.666 18 123.999s30.5 73.833 55.5 103.5s57 53.334 96 71.001s85.167 26.5 138.5 26.5c36.667 0 71.667 -4 105 -12
s62.666 -21 87.999 -39s45.5 -41 60.5 -69s22.5 -62 22.5 -102c0 -52 -7.5 -98.167 -22.5 -138.5s-36 -74.333 -63 -102s-59.333 -48.667 -97 -63s-79.167 -21.5 -124.5 -21.5zM354.002 318c0 20 -3.16699 33.333 -9.5 40s-15.833 10 -28.5 10c-12 0 -22 -6.33301 -30 -19
s-14.5 -27.834 -19.5 -45.501s-8.5 -35.667 -10.5 -54s-3 -32.833 -3 -43.5c0 -20 3.16699 -33.333 9.5 -40s15.833 -10 28.5 -10c12 0 22 6.33301 30 19s14.5 27.834 19.5 45.501s8.5 35.5 10.5 53.5s3 32.667 3 44zM95.002 262c0 32 4.5 63 13.5 93s22.5 56.5 40.5 79.5
s40.167 41.5 66.5 55.5s56.833 21 91.5 21c34 0 64.167 -7 90.5 -21s48.5 -32.5 66.5 -55.5s31.5 -49.5 40.5 -79.5s13.5 -61 13.5 -93c0 -32.667 -4.5 -64 -13.5 -94s-22.5 -56.5 -40.5 -79.5s-40.167 -41.333 -66.5 -55s-56.5 -20.5 -90.5 -20.5
c-34.667 0 -65.167 6.83301 -91.5 20.5s-48.5 32 -66.5 55s-31.5 49.5 -40.5 79.5s-13.5 61.333 -13.5 94zM75.002 262c0 -35.333 5.00098 -69.166 15.001 -101.499s24.667 -61 44 -86s43.5 -44.833 72.5 -59.5s62.167 -22 99.5 -22c38 0 71.333 7.33301 100 22
s52.834 34.5 72.501 59.5s34.5 53.667 44.5 86s15 66.166 15 101.499c0 34.667 -5 68.334 -15 101.001s-24.833 61.334 -44.5 86.001s-43.834 44.5 -72.501 59.5s-61.667 22.5 -99 22.5c-38 0 -71.333 -7.5 -100 -22.5s-52.834 -34.833 -72.501 -59.5
s-34.5 -53.334 -44.5 -86.001s-15 -66.334 -15 -101.001zM268.003 559l-176 216h312l60 -216h-196zM352.003 588h15l-125 144h-29z" />
    <glyph glyph-name="oacute" unicode="&#xf3;" horiz-adv-x="606" 
d="M288 -11c-40 0 -76.998 4.5 -110.998 13.5s-63.333 22.667 -88 41s-43.834 41.333 -57.501 69s-20.5 60.5 -20.5 98.5c0 43.333 6 84.666 18 123.999s30.5 73.833 55.5 103.5s57 53.334 96 71.001s85.167 26.5 138.5 26.5c36.667 0 71.667 -4 105 -12
s62.666 -21 87.999 -39s45.5 -41 60.5 -69s22.5 -62 22.5 -102c0 -52 -7.5 -98.167 -22.5 -138.5s-36 -74.333 -63 -102s-59.333 -48.667 -97 -63s-79.167 -21.5 -124.5 -21.5zM354.002 318c0 20 -3.16699 33.333 -9.5 40s-15.833 10 -28.5 10c-12 0 -22 -6.33301 -30 -19
s-14.5 -27.834 -19.5 -45.501s-8.5 -35.667 -10.5 -54s-3 -32.833 -3 -43.5c0 -20 3.16699 -33.333 9.5 -40s15.833 -10 28.5 -10c12 0 22 6.33301 30 19s14.5 27.834 19.5 45.501s8.5 35.5 10.5 53.5s3 32.667 3 44zM95.002 262c0 32 4.5 63 13.5 93s22.5 56.5 40.5 79.5
s40.167 41.5 66.5 55.5s56.833 21 91.5 21c34 0 64.167 -7 90.5 -21s48.5 -32.5 66.5 -55.5s31.5 -49.5 40.5 -79.5s13.5 -61 13.5 -93c0 -32.667 -4.5 -64 -13.5 -94s-22.5 -56.5 -40.5 -79.5s-40.167 -41.333 -66.5 -55s-56.5 -20.5 -90.5 -20.5
c-34.667 0 -65.167 6.83301 -91.5 20.5s-48.5 32 -66.5 55s-31.5 49.5 -40.5 79.5s-13.5 61.333 -13.5 94zM75.002 262c0 -35.333 5.00098 -69.166 15.001 -101.499s24.667 -61 44 -86s43.5 -44.833 72.5 -59.5s62.167 -22 99.5 -22c38 0 71.333 7.33301 100 22
s52.834 34.5 72.501 59.5s34.5 53.667 44.5 86s15 66.166 15 101.499c0 34.667 -5 68.334 -15 101.001s-24.833 61.334 -44.5 86.001s-43.834 44.5 -72.501 59.5s-61.667 22.5 -99 22.5c-38 0 -71.333 -7.5 -100 -22.5s-52.834 -34.833 -72.501 -59.5
s-34.5 -53.334 -44.5 -86.001s-15 -66.334 -15 -101.001zM355.003 559h-196l136 216h312zM340.003 732l-132 -144h15l146 144h-29z" />
    <glyph glyph-name="ocircumflex" unicode="&#xf4;" horiz-adv-x="606" 
d="M288 -11c-40 0 -76.998 4.5 -110.998 13.5s-63.333 22.667 -88 41s-43.834 41.333 -57.501 69s-20.5 60.5 -20.5 98.5c0 43.333 6 84.666 18 123.999s30.5 73.833 55.5 103.5s57 53.334 96 71.001s85.167 26.5 138.5 26.5c36.667 0 71.667 -4 105 -12
s62.666 -21 87.999 -39s45.5 -41 60.5 -69s22.5 -62 22.5 -102c0 -52 -7.5 -98.167 -22.5 -138.5s-36 -74.333 -63 -102s-59.333 -48.667 -97 -63s-79.167 -21.5 -124.5 -21.5zM354.002 318c0 20 -3.16699 33.333 -9.5 40s-15.833 10 -28.5 10c-12 0 -22 -6.33301 -30 -19
s-14.5 -27.834 -19.5 -45.501s-8.5 -35.667 -10.5 -54s-3 -32.833 -3 -43.5c0 -20 3.16699 -33.333 9.5 -40s15.833 -10 28.5 -10c12 0 22 6.33301 30 19s14.5 27.834 19.5 45.501s8.5 35.5 10.5 53.5s3 32.667 3 44zM95.002 262c0 32 4.5 63 13.5 93s22.5 56.5 40.5 79.5
s40.167 41.5 66.5 55.5s56.833 21 91.5 21c34 0 64.167 -7 90.5 -21s48.5 -32.5 66.5 -55.5s31.5 -49.5 40.5 -79.5s13.5 -61 13.5 -93c0 -32.667 -4.5 -64 -13.5 -94s-22.5 -56.5 -40.5 -79.5s-40.167 -41.333 -66.5 -55s-56.5 -20.5 -90.5 -20.5
c-34.667 0 -65.167 6.83301 -91.5 20.5s-48.5 32 -66.5 55s-31.5 49.5 -40.5 79.5s-13.5 61.333 -13.5 94zM75.002 262c0 -35.333 5.00098 -69.166 15.001 -101.499s24.667 -61 44 -86s43.5 -44.833 72.5 -59.5s62.167 -22 99.5 -22c38 0 71.333 7.33301 100 22
s52.834 34.5 72.501 59.5s34.5 53.667 44.5 86s15 66.166 15 101.499c0 34.667 -5 68.334 -15 101.001s-24.833 61.334 -44.5 86.001s-43.834 44.5 -72.501 59.5s-61.667 22.5 -99 22.5c-38 0 -71.333 -7.5 -100 -22.5s-52.834 -34.833 -72.501 -59.5
s-34.5 -53.334 -44.5 -86.001s-15 -66.334 -15 -101.001zM410.003 559l-51 66l-75 -66h-202l209 220h190l131 -220h-202zM480.003 591l-114 139h-15l-113 -139h20l99 123l103 -123h20z" />
    <glyph glyph-name="otilde" unicode="&#xf5;" horiz-adv-x="606" 
d="M288 -11c-40 0 -76.998 4.5 -110.998 13.5s-63.333 22.667 -88 41s-43.834 41.333 -57.501 69s-20.5 60.5 -20.5 98.5c0 43.333 6 84.666 18 123.999s30.5 73.833 55.5 103.5s57 53.334 96 71.001s85.167 26.5 138.5 26.5c36.667 0 71.667 -4 105 -12
s62.666 -21 87.999 -39s45.5 -41 60.5 -69s22.5 -62 22.5 -102c0 -52 -7.5 -98.167 -22.5 -138.5s-36 -74.333 -63 -102s-59.333 -48.667 -97 -63s-79.167 -21.5 -124.5 -21.5zM354.002 318c0 20 -3.16699 33.333 -9.5 40s-15.833 10 -28.5 10c-12 0 -22 -6.33301 -30 -19
s-14.5 -27.834 -19.5 -45.501s-8.5 -35.667 -10.5 -54s-3 -32.833 -3 -43.5c0 -20 3.16699 -33.333 9.5 -40s15.833 -10 28.5 -10c12 0 22 6.33301 30 19s14.5 27.834 19.5 45.501s8.5 35.5 10.5 53.5s3 32.667 3 44zM95.002 262c0 32 4.5 63 13.5 93s22.5 56.5 40.5 79.5
s40.167 41.5 66.5 55.5s56.833 21 91.5 21c34 0 64.167 -7 90.5 -21s48.5 -32.5 66.5 -55.5s31.5 -49.5 40.5 -79.5s13.5 -61 13.5 -93c0 -32.667 -4.5 -64 -13.5 -94s-22.5 -56.5 -40.5 -79.5s-40.167 -41.333 -66.5 -55s-56.5 -20.5 -90.5 -20.5
c-34.667 0 -65.167 6.83301 -91.5 20.5s-48.5 32 -66.5 55s-31.5 49.5 -40.5 79.5s-13.5 61.333 -13.5 94zM75.002 262c0 -35.333 5.00098 -69.166 15.001 -101.499s24.667 -61 44 -86s43.5 -44.833 72.5 -59.5s62.167 -22 99.5 -22c38 0 71.333 7.33301 100 22
s52.834 34.5 72.501 59.5s34.5 53.667 44.5 86s15 66.166 15 101.499c0 34.667 -5 68.334 -15 101.001s-24.833 61.334 -44.5 86.001s-43.834 44.5 -72.501 59.5s-61.667 22.5 -99 22.5c-38 0 -71.333 -7.5 -100 -22.5s-52.834 -34.833 -72.501 -59.5
s-34.5 -53.334 -44.5 -86.001s-15 -66.334 -15 -101.001zM657.003 779c-13.333 -78 -35.668 -134.5 -67.001 -169.5s-73.333 -52.5 -126 -52.5c-19.333 0 -37.166 2.83301 -53.499 8.5s-31 11.834 -44 18.501s-24.5 12.834 -34.5 18.501s-18.667 8.5 -26 8.5
c-6 0 -11.167 -3.5 -15.5 -10.5s-8.5 -20.5 -12.5 -40.5h-181c13.333 78 35.666 134.5 66.999 169.5s73.333 52.5 126 52.5c20.667 0 39.167 -2.83301 55.5 -8.5s30.833 -11.834 43.5 -18.501s23.834 -12.834 33.501 -18.501s18.167 -8.5 25.5 -8.5
c6 0 11.167 3.5 15.5 10.5s8.5 20.5 12.5 40.5h181zM266.001 630c1.33301 13.333 5.83301 26.499 13.5 39.499s19.167 19.5 34.5 19.5c10.667 0 21 -3 31 -9s20 -12.667 30 -20s20.333 -14 31 -20s22.334 -9 35.001 -9c38.667 0 61.667 25 69 75h-20
c-3.33301 -20 -9.16602 -34.167 -17.499 -42.5s-18.833 -12.5 -31.5 -12.5c-10 0 -20 3 -30 9s-20.333 12.667 -31 20s-21.5 14 -32.5 20s-22.167 9 -33.5 9c-10 0 -19 -2.33301 -27 -7s-14.833 -10.667 -20.5 -18s-10.334 -15.666 -14.001 -24.999
s-5.83398 -19 -6.50098 -29h20z" />
    <glyph glyph-name="odieresis" unicode="&#xf6;" horiz-adv-x="606" 
d="M288 -11c-40 0 -76.998 4.5 -110.998 13.5s-63.333 22.667 -88 41s-43.834 41.333 -57.501 69s-20.5 60.5 -20.5 98.5c0 43.333 6 84.666 18 123.999s30.5 73.833 55.5 103.5s57 53.334 96 71.001s85.167 26.5 138.5 26.5c36.667 0 71.667 -4 105 -12
s62.666 -21 87.999 -39s45.5 -41 60.5 -69s22.5 -62 22.5 -102c0 -52 -7.5 -98.167 -22.5 -138.5s-36 -74.333 -63 -102s-59.333 -48.667 -97 -63s-79.167 -21.5 -124.5 -21.5zM354.002 318c0 20 -3.16699 33.333 -9.5 40s-15.833 10 -28.5 10c-12 0 -22 -6.33301 -30 -19
s-14.5 -27.834 -19.5 -45.501s-8.5 -35.667 -10.5 -54s-3 -32.833 -3 -43.5c0 -20 3.16699 -33.333 9.5 -40s15.833 -10 28.5 -10c12 0 22 6.33301 30 19s14.5 27.834 19.5 45.501s8.5 35.5 10.5 53.5s3 32.667 3 44zM95.002 262c0 32 4.5 63 13.5 93s22.5 56.5 40.5 79.5
s40.167 41.5 66.5 55.5s56.833 21 91.5 21c34 0 64.167 -7 90.5 -21s48.5 -32.5 66.5 -55.5s31.5 -49.5 40.5 -79.5s13.5 -61 13.5 -93c0 -32.667 -4.5 -64 -13.5 -94s-22.5 -56.5 -40.5 -79.5s-40.167 -41.333 -66.5 -55s-56.5 -20.5 -90.5 -20.5
c-34.667 0 -65.167 6.83301 -91.5 20.5s-48.5 32 -66.5 55s-31.5 49.5 -40.5 79.5s-13.5 61.333 -13.5 94zM75.002 262c0 -35.333 5.00098 -69.166 15.001 -101.499s24.667 -61 44 -86s43.5 -44.833 72.5 -59.5s62.167 -22 99.5 -22c38 0 71.333 7.33301 100 22
s52.834 34.5 72.501 59.5s34.5 53.667 44.5 86s15 66.166 15 101.499c0 34.667 -5 68.334 -15 101.001s-24.833 61.334 -44.5 86.001s-43.834 44.5 -72.501 59.5s-61.667 22.5 -99 22.5c-38 0 -71.333 -7.5 -100 -22.5s-52.834 -34.833 -72.501 -59.5
s-34.5 -53.334 -44.5 -86.001s-15 -66.334 -15 -101.001zM502.003 551c-16.667 0 -32.1621 3.00195 -46.4951 9.00195s-27 14.333 -38 25s-19.667 23 -26 37s-9.5 29 -9.5 45c0 18.667 4 36.167 12 52.5s18.667 30.666 32 42.999s28.666 22.166 45.999 29.499
s35.666 11 54.999 11c16 0 31.167 -2.83301 45.5 -8.5s26.666 -13.667 36.999 -24s18.666 -22.333 24.999 -36s9.5 -28.5 9.5 -44.5s-3.5 -32.167 -10.5 -48.5s-16.667 -31.333 -29 -45s-27.333 -24.667 -45 -33s-36.834 -12.5 -57.501 -12.5zM213.008 551.002
c-16.667 0 -32.1621 3.00195 -46.4951 9.00195s-27 14.333 -38 25s-19.667 23 -26 37s-9.5 29 -9.5 45c0 18.667 4 36.167 12 52.5s18.667 30.666 32 42.999s28.666 22.166 45.999 29.499s35.666 11 54.999 11c16 0 31.167 -2.83301 45.5 -8.5s26.666 -13.667 36.999 -24
s18.666 -22.333 24.999 -36s9.5 -28.5 9.5 -44.5s-3.5 -32.167 -10.5 -48.5s-16.667 -31.333 -29 -45s-27.333 -24.667 -45 -33s-36.834 -12.5 -57.501 -12.5zM458.013 614.004v81h-20v-81h20zM162.013 614.004v81h-20v-81h20z" />
    <glyph glyph-name="divide" unicode="&#xf7;" horiz-adv-x="826" 
d="M670 215c-15.333 -13.333 -29.666 -20 -42.999 -20c-10.667 0 -19.334 3.83301 -26.001 11.5s-10 16.167 -10 25.5c0 2.66699 0.166992 5.16699 0.5 7.5s0.833008 5.16602 1.5 8.49902l4 16h-83v-60l16 4c3.33301 0.666992 6.16602 1.16699 8.49902 1.5
s4.83301 0.5 7.5 0.5c9.33301 0 17.833 -3.33301 25.5 -10s11.5 -15.667 11.5 -27c0 -12.667 -6.66699 -26.667 -20 -42l-135 -156l-135 156c-13.333 15.333 -20 29.333 -20 42c0 11.333 3.83301 20.333 11.5 27s16.167 10 25.5 10c2.66699 0 5.16699 -0.166992 7.5 -0.5
s5.16602 -0.833008 8.49902 -1.5l16 -4v60h-83l4 -16c0.666992 -3.33301 1.16699 -6.16602 1.5 -8.49902s0.5 -4.83301 0.5 -7.5c0 -9.33301 -3.33301 -17.833 -10 -25.5s-15.667 -11.5 -27 -11.5c-12.667 0 -26.667 6.66699 -42 20l-156 135l156 135
c15.333 13.333 29.333 20 42 20c11.333 0 20.333 -3.83301 27 -11.5s10 -16.167 10 -25.5c0 -2.66699 -0.166992 -5.16699 -0.5 -7.5s-0.833008 -5.16602 -1.5 -8.49902l-4 -16h83v60l-16 -4c-3.33301 -0.666992 -6.16602 -1.16699 -8.49902 -1.5s-4.83301 -0.5 -7.5 -0.5
c-9.33301 0 -17.833 3.33301 -25.5 10s-11.5 15.334 -11.5 26.001c0 13.333 6.66699 27.666 20 42.999l135 156l135 -156c13.333 -15.333 20 -29.666 20 -42.999c0 -10.667 -3.83301 -19.334 -11.5 -26.001s-16.167 -10 -25.5 -10c-2.66699 0 -5.16699 0.166992 -7.5 0.5
s-5.16602 0.833008 -8.49902 1.5l-16 4v-60h83l-4 16c-0.666992 3.33301 -1.16699 6.16602 -1.5 8.49902s-0.5 4.83301 -0.5 7.5c0 9.33301 3.33301 17.833 10 25.5s15.334 11.5 26.001 11.5c13.333 0 27.666 -6.66699 42.999 -20l156 -135z" />
    <glyph glyph-name="oslash" unicode="&#xf8;" horiz-adv-x="606" 
d="M156 -50h-212.999l107 132c-12.667 17.333 -22.334 36.5 -29.001 57.5s-10 44.833 -10 71.5c0 43.333 6 84.666 18 123.999s30.5 73.833 55.5 103.5s57 53.334 96 71.001s85.167 26.5 138.5 26.5c31.333 0 61 -3 89 -9l39 48h213l-106 -130
c13.333 -17.333 23.5 -36.5 30.5 -57.5s10.5 -45.5 10.5 -73.5c0 -52 -7.5 -98.167 -22.5 -138.5s-36 -74.333 -63 -102s-59.333 -48.667 -97 -63s-79.167 -21.5 -124.5 -21.5c-33.333 0 -64.333 3 -93 9zM473.001 455c-19.333 24 -43 42.8359 -71 56.5029
s-60 20.5 -96 20.5c-38 0 -71.333 -7.5 -100 -22.5s-52.834 -34.833 -72.501 -59.5s-34.5 -53.334 -44.5 -86.001s-15 -66.334 -15 -101.001c0 -32 4.16699 -63 12.5 -93s20.833 -56.667 37.5 -80l-60 -62l14 -14l57 59c19.333 -24 43 -43.167 71 -57.5s61 -21.5 99 -21.5
s71.333 7.33301 100 22s52.834 34.5 72.501 59.5s34.5 53.667 44.5 86s15 66.166 15 101.499c0 34 -4.33301 66 -13 96s-21.667 56.667 -39 80l47 49l-14 14zM470.001 424.003c15.333 -22.667 27.002 -47.666 35.002 -74.999s12 -56 12 -86c0 -32.667 -4.5 -64 -13.5 -94
s-22.5 -56.5 -40.5 -79.5s-40.167 -41.333 -66.5 -55s-56.5 -20.5 -90.5 -20.5c-34.667 0 -65 6.66699 -91 20s-47.667 31.666 -65 54.999l103 108c1.33301 -17.333 5.16602 -28.5 11.499 -33.5s15.166 -7.5 26.499 -7.5c10 0 19 5.16699 27 15.5s14.5 23 19.5 38
s8.83301 30.833 11.5 47.5s4 31.667 4 45zM138.003 105.004c-29.333 44.667 -43.999 97.333 -43.999 158c0 32 4.5 63 13.5 93s22.5 56.5 40.5 79.5s40.167 41.5 66.5 55.5s56.833 21 91.5 21c34 0 63.5 -6.5 88.5 -19.5s46.167 -30.5 63.5 -52.5l-105 -109
c-1.33301 14.667 -5 24.5 -11 29.5s-14.667 7.5 -26 7.5c-9.33301 0 -17.333 -3.66699 -24 -11s-12.334 -16.833 -17.001 -28.5s-8.5 -24.5 -11.5 -38.5s-5.5 -27.667 -7.5 -41l-3 -23z" />
    <glyph glyph-name="ugrave" unicode="&#xf9;" horiz-adv-x="649" 
d="M505 514h-20v-291c0 -28 -3.66699 -54.5 -11 -79.5s-18.333 -47.167 -33 -66.5s-32.667 -35.166 -54 -47.499s-46.333 -19.5 -75 -21.5h-41c-19.333 2.66699 -37.166 8 -53.499 16s-30.666 18.667 -42.999 32s-22 30 -29 50s-10.5 43.333 -10.5 70v338h-20v-341
c0 -48 10.833 -86.667 32.5 -116s50.5 -49.333 86.5 -60c-20 -5.33301 -39.333 -8 -58 -8c-52 0 -92.5 11 -121.5 33s-43.5 59.333 -43.5 112c0 9.33301 0.333008 19.166 1 29.499s2 20.5 4 30.5l58 331h260l-51 -286c-0.666992 -4 -1.16699 -7.83301 -1.5 -11.5
s-0.5 -7.16699 -0.5 -10.5c0 -19.333 10 -29 30 -29c13.333 0 22.666 3.33301 27.999 10s9.66602 18.667 12.999 36l52 291h260l-93 -525h-66v514zM483 127l2 0.000976562v-127h-114c30 10.667 54.5 27.167 73.5 49.5s31.833 48.166 38.5 77.499zM290 559.001l-176 216h312
l60 -216h-196zM374 588.001h15l-125 144h-29z" />
    <glyph glyph-name="uacute" unicode="&#xfa;" horiz-adv-x="649" 
d="M505 514h-20v-291c0 -28 -3.66699 -54.5 -11 -79.5s-18.333 -47.167 -33 -66.5s-32.667 -35.166 -54 -47.499s-46.333 -19.5 -75 -21.5h-41c-19.333 2.66699 -37.166 8 -53.499 16s-30.666 18.667 -42.999 32s-22 30 -29 50s-10.5 43.333 -10.5 70v338h-20v-341
c0 -48 10.833 -86.667 32.5 -116s50.5 -49.333 86.5 -60c-20 -5.33301 -39.333 -8 -58 -8c-52 0 -92.5 11 -121.5 33s-43.5 59.333 -43.5 112c0 9.33301 0.333008 19.166 1 29.499s2 20.5 4 30.5l58 331h260l-51 -286c-0.666992 -4 -1.16699 -7.83301 -1.5 -11.5
s-0.5 -7.16699 -0.5 -10.5c0 -19.333 10 -29 30 -29c13.333 0 22.666 3.33301 27.999 10s9.66602 18.667 12.999 36l52 291h260l-93 -525h-66v514zM483 127l2 0.000976562v-127h-114c30 10.667 54.5 27.167 73.5 49.5s31.833 48.166 38.5 77.499zM449 559.001h-196l136 216
h312zM434 732.001l-132 -144h15l146 144h-29z" />
    </font>
</defs>
</svg>
